<svg xmlns="http://www.w3.org/2000/svg" width="27" height="34" viewBox="0 0 27 34">
  <defs>
    <style>
      .cls-1 {
        fill: #0088d2;
        fill-rule: evenodd;
      }
    </style>
  </defs>
  <path id="_6" data-name="6" class="cls-1" d="M720.82,1455.35a0.535,0.535,0,1,0,0,1.07h2.88a0.535,0.535,0,1,0,0-1.07h-2.88Zm0-3.22h2.88a0.54,0.54,0,1,0,0-1.08h-2.88A0.54,0.54,0,1,0,720.82,1452.13Zm5.76-23.27h-0.72a0.54,0.54,0,0,0,0,1.08h0.72A0.54,0.54,0,1,0,726.58,1428.86Zm-7.92,24.34h-0.72a0.535,0.535,0,1,0,0,1.07h0.72A0.535,0.535,0,1,0,718.66,1453.2Zm0,2.15h-0.72a0.535,0.535,0,1,0,0,1.07h0.72A0.535,0.535,0,1,0,718.66,1455.35Zm8.46-1.61a0.539,0.539,0,0,0-.54-0.54h-5.76a0.535,0.535,0,1,0,0,1.07h5.76A0.537,0.537,0,0,0,727.12,1453.74Zm-2.7,5.19H704.98a0.905,0.905,0,0,1-.9-0.9v-30.06a0.9,0.9,0,0,1,.9-0.9h1.44a0.535,0.535,0,1,0,0-1.07h-1.44a1.975,1.975,0,0,0-1.98,1.97v30.06a1.975,1.975,0,0,0,1.98,1.97h19.44A0.535,0.535,0,1,0,724.42,1458.93Zm-10.8-26.49a0.535,0.535,0,0,0-.468.27l-2.724,4.69H707.5a0.535,0.535,0,1,0,0,1.07h2.928l2.724,4.7a0.547,0.547,0,0,0,.468.26h5.76a0.547,0.547,0,0,0,.468-0.26l2.724-4.7H725.5a0.535,0.535,0,1,0,0-1.07h-2.928l-2.724-4.69a0.535,0.535,0,0,0-.468-0.27h-5.76Zm5.448,9.92h-5.136l-2.257-3.89h1.813a3.062,3.062,0,0,0,6.024,0h1.813Zm-0.663-3.89a1.98,1.98,0,0,1-3.81,0h3.81Zm-3.81-1.07a1.984,1.984,0,0,1,3.81,0H714.6Zm6.73,0h-1.813a3.064,3.064,0,0,0-6.024,0h-1.813l2.257-3.88h5.136Zm-1.226-5.32a0.544,0.544,0,0,0,.45-0.23l1.28-1.91H723.7a0.54,0.54,0,1,0,0-1.08h-2.16a0.539,0.539,0,0,0-.449.24l-1.44,2.15a0.528,0.528,0,0,0,.149.74A0.547,0.547,0,0,0,720.1,1432.08Zm-13.679,0h2.16a0.535,0.535,0,1,0,0-1.07h-2.16A0.535,0.535,0,1,0,706.42,1432.08Zm0.72,13.96h-0.72a0.539,0.539,0,0,0-.54.54,0.546,0.546,0,0,0,.54.54h0.72a0.546,0.546,0,0,0,.54-0.54A0.539,0.539,0,0,0,707.14,1446.04Zm0,5.01h-0.72a0.54,0.54,0,0,0,0,1.08h0.72A0.54,0.54,0,1,0,707.14,1451.05Zm0,4.3h-0.72a0.535,0.535,0,1,0,0,1.07h0.72A0.535,0.535,0,1,0,707.14,1455.35Zm3.6-26.49h-4.32a0.54,0.54,0,0,0,0,1.08h4.32A0.54,0.54,0,1,0,710.74,1428.86Zm17.28-2.86H708.58a0.535,0.535,0,1,0,0,1.07h19.44a0.9,0.9,0,0,1,.9.9v30.06a0.905,0.905,0,0,1-.9.9h-1.44a0.535,0.535,0,1,0,0,1.07h1.44a1.975,1.975,0,0,0,1.98-1.97v-30.06A1.975,1.975,0,0,0,728.02,1426Zm-9.36,25.05h-0.72a0.54,0.54,0,1,0,0,1.08h0.72A0.54,0.54,0,1,0,718.66,1451.05Zm-3.06,2.69a0.539,0.539,0,0,0-.54-0.54H709.3a0.535,0.535,0,1,0,0,1.07h5.76A0.537,0.537,0,0,0,715.6,1453.74Zm-6.3,1.61a0.535,0.535,0,1,0,0,1.07h2.88a0.535,0.535,0,1,0,0-1.07H709.3Zm0-8.23h2.16a0.539,0.539,0,0,0,.449-0.24l1.44-2.15a0.541,0.541,0,0,0-.15-0.75,0.551,0.551,0,0,0-.748.15l-1.28,1.91H709.3a0.539,0.539,0,0,0-.54.54A0.546,0.546,0,0,0,709.3,1447.12Zm-2.16,6.08h-0.72a0.535,0.535,0,1,0,0,1.07h0.72A0.535,0.535,0,1,0,707.14,1453.2Zm2.16-1.07h2.88a0.54,0.54,0,1,0,0-1.08H709.3A0.54,0.54,0,0,0,709.3,1452.13Z" transform="translate(-703 -1426)"/>
</svg>
