<svg xmlns="http://www.w3.org/2000/svg" width="32" height="34" viewBox="0 0 32 34">
  <defs>
    <style>
      .cls-1 {
        fill: #0088d2;
        fill-rule: evenodd;
      }
    </style>
  </defs>
  <path id="_5" data-name="5" class="cls-1" d="M730.3,1343H703.7a2.7,2.7,0,0,0-2.7,2.69v28.62a2.7,2.7,0,0,0,2.7,2.69h26.6a2.7,2.7,0,0,0,2.7-2.69v-28.62A2.7,2.7,0,0,0,730.3,1343Zm1.342,31.31a1.342,1.342,0,0,1-1.342,1.34H703.7a1.342,1.342,0,0,1-1.342-1.34v-28.62a1.342,1.342,0,0,1,1.342-1.34h26.6a1.342,1.342,0,0,1,1.342,1.34v28.62h0Zm-2.276-28.4h-24.73a0.684,0.684,0,0,0-.68.68v5.01a0.678,0.678,0,0,0,.68.68h24.73a0.677,0.677,0,0,0,.679-0.68v-5.01A0.683,0.683,0,0,0,729.365,1345.91Zm-0.679,5.01H705.314v-3.65h23.372v3.65h0Zm-19.645,3.73h-4.406a0.678,0.678,0,0,0-.68.68v2.41a0.684,0.684,0,0,0,.68.68h4.406a0.683,0.683,0,0,0,.679-0.68v-2.41A0.677,0.677,0,0,0,709.041,1354.65Zm-0.679,2.41h-3.048V1356h3.048v1.06Zm7.454-2.41h-4.407a0.677,0.677,0,0,0-.679.68v2.41a0.683,0.683,0,0,0,.679.68h4.407a0.683,0.683,0,0,0,.679-0.68v-2.41A0.677,0.677,0,0,0,715.816,1354.65Zm-0.68,2.41h-3.047V1356h3.047v1.06Zm7.454-2.41h-4.406a0.677,0.677,0,0,0-.679.68v2.41a0.683,0.683,0,0,0,.679.68h4.406a0.683,0.683,0,0,0,.68-0.68v-2.41A0.677,0.677,0,0,0,722.59,1354.65Zm-0.679,2.41h-3.048V1356h3.048v1.06Zm7.454-2.41h-4.406a0.678,0.678,0,0,0-.68.68v2.41a0.684,0.684,0,0,0,.68.68h4.406a0.683,0.683,0,0,0,.679-0.68v-2.41A0.677,0.677,0,0,0,729.365,1354.65Zm-0.679,2.41h-3.048V1356h3.048v1.06Zm-19.645,2.57h-4.406a0.684,0.684,0,0,0-.68.68v2.41a0.678,0.678,0,0,0,.68.68h4.406a0.677,0.677,0,0,0,.679-0.68v-2.41A0.683,0.683,0,0,0,709.041,1359.63Zm-0.679,2.42h-3.048v-1.06h3.048v1.06Zm7.454-2.42h-4.407a0.683,0.683,0,0,0-.679.68v2.41a0.677,0.677,0,0,0,.679.68h4.407a0.677,0.677,0,0,0,.679-0.68v-2.41A0.683,0.683,0,0,0,715.816,1359.63Zm-0.68,2.42h-3.047v-1.06h3.047v1.06Zm7.454-2.42h-4.406a0.683,0.683,0,0,0-.679.68v2.41a0.677,0.677,0,0,0,.679.68h4.406a0.677,0.677,0,0,0,.68-0.68v-2.41A0.683,0.683,0,0,0,722.59,1359.63Zm-0.679,2.42h-3.048v-1.06h3.048v1.06Zm7.454-2.42h-4.406a0.684,0.684,0,0,0-.68.68v2.41a0.678,0.678,0,0,0,.68.68h4.406a0.677,0.677,0,0,0,.679-0.68v-2.41A0.683,0.683,0,0,0,729.365,1359.63Zm-0.679,2.42h-3.048v-1.06h3.048v1.06Zm-19.645,2.65h-4.406a0.678,0.678,0,0,0-.68.68v2.41a0.684,0.684,0,0,0,.68.68h4.406a0.683,0.683,0,0,0,.679-0.68v-2.41A0.677,0.677,0,0,0,709.041,1364.7Zm-0.679,2.41h-3.048v-1.06h3.048v1.06Zm7.454-2.41h-4.407a0.677,0.677,0,0,0-.679.68v2.41a0.683,0.683,0,0,0,.679.68h4.407a0.683,0.683,0,0,0,.679-0.68v-2.41A0.677,0.677,0,0,0,715.816,1364.7Zm-0.68,2.41h-3.047v-1.06h3.047v1.06Zm7.454-2.41h-4.406a0.677,0.677,0,0,0-.679.68v2.41a0.683,0.683,0,0,0,.679.68h4.406a0.683,0.683,0,0,0,.68-0.68v-2.41A0.677,0.677,0,0,0,722.59,1364.7Zm-0.679,2.41h-3.048v-1.06h3.048v1.06Zm-12.87,2.74h-4.406a0.675,0.675,0,0,0-.68.67v2.42a0.675,0.675,0,0,0,.68.67h4.406a0.675,0.675,0,0,0,.679-0.67v-2.42A0.675,0.675,0,0,0,709.041,1369.85Zm-0.679,2.41h-3.048v-1.06h3.048v1.06Zm7.454-2.41h-4.407a0.675,0.675,0,0,0-.679.67v2.42a0.675,0.675,0,0,0,.679.67h4.407a0.675,0.675,0,0,0,.679-0.67v-2.42A0.675,0.675,0,0,0,715.816,1369.85Zm-0.68,2.41h-3.047v-1.06h3.047v1.06Zm7.454-2.41h-4.406a0.675,0.675,0,0,0-.679.67v2.42a0.675,0.675,0,0,0,.679.67h4.406a0.675,0.675,0,0,0,.68-0.67v-2.42A0.675,0.675,0,0,0,722.59,1369.85Zm-0.679,2.41h-3.048v-1.06h3.048v1.06Zm7.454-7.59h-4.406a0.684,0.684,0,0,0-.68.68v7.59a0.675,0.675,0,0,0,.68.67h4.406a0.675,0.675,0,0,0,.679-0.67v-7.59A0.683,0.683,0,0,0,729.365,1364.67Zm-0.679,7.59h-3.048v-6.23h3.048v6.23Zm-1.767-23.84H718.9a0.675,0.675,0,1,0,0,1.35h8.017A0.675,0.675,0,1,0,726.919,1348.42Zm-10.191,0h-0.611a0.675,0.675,0,1,0,0,1.35h0.611A0.675,0.675,0,1,0,716.728,1348.42Z" transform="translate(-701 -1343)"/>
</svg>
