<svg xmlns="http://www.w3.org/2000/svg" width="28" height="34" viewBox="0 0 28 34">
  <defs>
    <style>
      .cls-1 {
        fill: #0088d2;
        fill-rule: evenodd;
      }
    </style>
  </defs>
  <path id="_4" data-name="4" class="cls-1" d="M419.873,1605.53l-0.142-.1,8.4-11.97a3.392,3.392,0,0,0,4.25-1.1l1.635-2.33a3.378,3.378,0,0,0-.831-4.71,0.527,0.527,0,0,0-.737.13L430,1588.94a0.9,0.9,0,0,1-1.249.22,0.867,0.867,0,0,1-.366-0.57,0.883,0.883,0,0,1,.147-0.66l2.453-3.49a0.549,0.549,0,0,0-.131-0.76,3.4,3.4,0,0,0-4.707.83l-1.635,2.33a3.4,3.4,0,0,0,.414,4.38l-2.949,4.2-3.11-4.43-0.633-4.26a1.983,1.983,0,0,0-.335-0.84l-1.442-2.06a1.965,1.965,0,0,0-2.721-.48l-3.5,2.45a1.959,1.959,0,0,0-.481,2.73l1.443,2.06a2,2,0,0,0,.671.6l3.8,2.05,3.921,5.59-3.061,4.36-0.152-.1a1.956,1.956,0,0,0-2.721.48l-0.771,1.1a0.53,0.53,0,0,0,.126.74,0.521,0.521,0,0,0,.741-0.12l0.772-1.1a0.9,0.9,0,0,1,1.248-.22l2.918,2.04h0l0.582,0.41a0.862,0.862,0,0,1,.365.57,0.887,0.887,0,0,1-.146.66l-4.906,6.99a3.037,3.037,0,0,1-4.226.74,3.01,3.01,0,0,1-.744-4.2l2.738-3.9a0.54,0.54,0,0,0-.126-0.75,0.523,0.523,0,0,0-.741.13l-2.738,3.9a4.093,4.093,0,0,0,3.346,6.44,4.1,4.1,0,0,0,3.359-1.74l4.9-6.99A1.969,1.969,0,0,0,419.873,1605.53Zm-3.416-13.02a0.644,0.644,0,0,0-.183-0.16l-3.908-2.11a0.961,0.961,0,0,1-.306-0.27l-1.442-2.06a0.858,0.858,0,0,1-.147-0.65,0.888,0.888,0,0,1,.366-0.58l1.319-.92,2.148,3.06a0.523,0.523,0,0,0,.741.13,0.543,0.543,0,0,0,.127-0.75l-2.142-3.05,1.309-.92a0.906,0.906,0,0,1,1.249.22l1.442,2.06a0.868,0.868,0,0,1,.15.38l0.6,4.05-0.7.49a0.533,0.533,0,0,0-.134.74,0.522,0.522,0,0,0,.739.14l0.536-.37,3.095,4.41-1.088,1.55Zm2.4,12.31-1.461-1.02,8.682-12.37a0.55,0.55,0,0,0,.089-0.41,0.516,0.516,0,0,0-.221-0.34,2.315,2.315,0,0,1-.952-1.5,2.272,2.272,0,0,1,.384-1.71l1.635-2.33a2.316,2.316,0,0,1,2.755-.83l-2.1,3a1.957,1.957,0,1,0,3.2,2.25l2.114-3.01a2.3,2.3,0,0,1,.171,2.86l-1.635,2.33a2.326,2.326,0,0,1-3.233.57h0l-0.948-.67a0.538,0.538,0,0,0-.605.89l0.507,0.35Zm-3.181.93a0.529,0.529,0,0,0-.741.12l-4.5,6.41a0.541,0.541,0,0,0,.127.75,0.5,0.5,0,0,0,.307.1,0.528,0.528,0,0,0,.434-0.23l4.5-6.4A0.541,0.541,0,0,0,415.676,1605.75Zm19.582,4.81-2.738-3.9a0.523,0.523,0,0,0-.741-0.13,0.541,0.541,0,0,0-.127.75l2.738,3.9a3.009,3.009,0,0,1-.743,4.2,3.046,3.046,0,0,1-4.226-.74l-4.906-6.99a0.892,0.892,0,0,1-.146-0.66,0.862,0.862,0,0,1,.365-0.57l3.5-2.45a0.9,0.9,0,0,1,1.249.22l0.771,1.1a0.521,0.521,0,0,0,.741.12,0.53,0.53,0,0,0,.126-0.74l-0.771-1.1a1.948,1.948,0,0,0-2.721-.48l-0.187.13-1.952-2.79a0.521,0.521,0,0,0-.741-0.12,0.531,0.531,0,0,0-.127.74l1.945,2.78-1.46,1.02-1.47-2.1a0.521,0.521,0,0,0-.741-0.12,0.531,0.531,0,0,0-.127.74l1.463,2.09-0.106.07a1.969,1.969,0,0,0-.481,2.74l4.9,6.99a4.1,4.1,0,0,0,3.359,1.74A4.091,4.091,0,0,0,435.258,1610.56Zm-8.815-3.43a0.543,0.543,0,0,0-.127.75l4.5,6.41a0.525,0.525,0,0,0,.434.23,0.505,0.505,0,0,0,.307-0.1,0.542,0.542,0,0,0,.126-0.75l-4.5-6.41A0.532,0.532,0,0,0,426.443,1607.13Zm6.687,6a0.5,0.5,0,0,0,.307-0.1,0.541,0.541,0,0,0,.127-0.75l-4.5-6.41a0.529,0.529,0,0,0-.741-0.12,0.541,0.541,0,0,0-.126.75l4.5,6.4A0.528,0.528,0,0,0,433.13,1613.13Zm-20.682,1.29a0.505,0.505,0,0,0,.307.1,0.526,0.526,0,0,0,.434-0.23l4.5-6.41a0.543,0.543,0,0,0-.127-0.75,0.532,0.532,0,0,0-.741.13l-4.5,6.41A0.542,0.542,0,0,0,412.448,1614.42Z" transform="translate(-408 -1583)"/>
</svg>
