<svg xmlns="http://www.w3.org/2000/svg" width="33" height="34" viewBox="0 0 33 34">
  <defs>
    <style>
      .cls-1 {
        fill: #0088d2;
        fill-rule: evenodd;
      }
    </style>
  </defs>
  <path id="_8" data-name="8" class="cls-1" d="M735.433,1615.89h-3.854v-1.13a7.975,7.975,0,0,0-2.109-5.97,6.358,6.358,0,0,0-4.113-1.74h-2.841v-1.68a0.44,0.44,0,0,0-.007-0.08,7.9,7.9,0,0,0,3.668-3.03c0.12-.18.229-0.36,0.33-0.54a3.417,3.417,0,0,0,3.275-3.38,3.347,3.347,0,0,0-.544-1.82,5.2,5.2,0,0,0,.011-1.16,1.443,1.443,0,0,0-.56-1.01,1.763,1.763,0,0,0-.76-0.33v-5.48a3.685,3.685,0,0,0-2.357-3.73,0.771,0.771,0,0,1-.409-1.05,0.549,0.549,0,0,0-.219-0.67,0.592,0.592,0,0,0-.713.07c-0.9.9-1.849,0.87-3.574,0.83a26.087,26.087,0,0,0-4.668.21,5.27,5.27,0,0,0-4.436,3.32,6.884,6.884,0,0,0-.492,2.69v3.63a0.541,0.541,0,0,0,.027.17,2.046,2.046,0,0,0-.791.34,1.442,1.442,0,0,0-.559,1.01,3.721,3.721,0,0,0,.7,2.79,1.989,1.989,0,0,0,1.033.6v0.12a0.656,0.656,0,0,0,.006.08,9.044,9.044,0,0,0,1.347,3.31,7.9,7.9,0,0,0,3.668,3.03,0.431,0.431,0,0,0-.008.08v1.68h-2.836a6.35,6.35,0,0,0-4.117,1.74,7.975,7.975,0,0,0-2.109,5.97v1.13h-3.854a0.555,0.555,0,1,0,0,1.11h31.866A0.555,0.555,0,1,0,735.433,1615.89Zm-10.072-7.73h0a5.22,5.22,0,0,1,3.309,1.41,6.97,6.97,0,0,1,1.774,5.19v1.13h-8.989a0.5,0.5,0,0,0-.018-0.12l-1.088-4.04,0.78,0.25a0.538,0.538,0,0,0,.176.03,0.583,0.583,0,0,0,.428-0.19l0.592-.67,1.027-.61a0.556,0.556,0,0,0,.263-0.57l-0.323-1.81h2.068Zm-8.582.82a3.025,3.025,0,0,0,1.941,1.59l-0.777.25-0.4-.46a0.677,0.677,0,0,0-.133-0.11l-0.774-.46Zm5.49-.11,0.163,0.92-0.773.46a0.649,0.649,0,0,0-.133.11l-0.4.46-0.809-.26A3.008,3.008,0,0,0,722.269,1608.87Zm-1.971,7.02h-1.524l0.762-2.82Zm0.752-23.59a0.57,0.57,0,0,0-.38.36,4.866,4.866,0,0,0-.195,1.04,4.532,4.532,0,0,0-1.981-.01,4.662,4.662,0,0,0-.194-1.03,0.566,0.566,0,0,0-.38-0.36,10.627,10.627,0,0,0-2.9-.41,10.121,10.121,0,0,0-1.158.07,0.566,0.566,0,0,0,.132-0.36v-1.21c0.523-.24,2.073-0.79,5.52-0.79s5,0.55,5.52.79v1.21a0.535,0.535,0,0,0,.136.36,10.944,10.944,0,0,0-1.21-.07A10.633,10.633,0,0,0,721.05,1592.3Zm-6.035.7a9.773,9.773,0,0,1,2.28.28,2.354,2.354,0,0,1-.171,1.71,1.494,1.494,0,0,1-1.22.53c-0.448.02-.77,0.03-1.046,0.03-1.452,0-1.972-.11-2.1-2.26A8.619,8.619,0,0,1,715.015,1593Zm6.66,0.28a9.779,9.779,0,0,1,2.28-.28,8.692,8.692,0,0,1,2.262.29c-0.132,2.15-.653,2.26-2.1,2.26-0.276,0-.6-0.01-1.046-0.03a1.491,1.491,0,0,1-1.22-.53A2.355,2.355,0,0,1,721.675,1593.28Zm6.973,5.06a2.278,2.278,0,0,1-1.563,2.15,7.978,7.978,0,0,0,.439-1.54,0.656,0.656,0,0,0,.006-0.08v-0.12a2.032,2.032,0,0,0,1.02-.6c0.027-.03.054-0.06,0.079-0.09A2.324,2.324,0,0,1,728.648,1598.34Zm-0.528-2.86a2.656,2.656,0,0,1-.412,1.93,0.835,0.835,0,0,1-.178.15v-2.48a0.931,0.931,0,0,1,.464.15A0.313,0.313,0,0,1,728.12,1595.48Zm-11.971-10.18a24.707,24.707,0,0,1,4.479-.2,7.076,7.076,0,0,0,3.416-.43,1.769,1.769,0,0,0,1.07,1.15,2.591,2.591,0,0,1,1.681,2.72v3.41l-0.632-.59v-1.29a0.532,0.532,0,0,0-.208-0.42c-0.148-.12-1.587-1.16-6.446-1.16s-6.3,1.04-6.447,1.16a0.534,0.534,0,0,0-.207.42v1.29l-0.66.61v-1.77c0-.01,0-0.02,0-0.03C712.185,1589.99,712.015,1585.87,716.149,1585.3Zm-4.871,12.11a2.656,2.656,0,0,1-.412-1.93,0.313,0.313,0,0,1,.127-0.25,0.979,0.979,0,0,1,.477-0.16v2.5A1.358,1.358,0,0,1,711.278,1597.41Zm2.521,4.29a8.153,8.153,0,0,1-1.195-2.88v-2.73a3.47,3.47,0,0,0,2.254.57c0.3,0,.637-0.01,1.106-0.04a2.559,2.559,0,0,0,2.1-1,2.418,2.418,0,0,0,.344-0.76,3.429,3.429,0,0,1,1.469-.14v2.1a0.227,0.227,0,0,1-.227.23h-0.292a0.227,0.227,0,0,1-.227-0.23,0.567,0.567,0,0,0-1.134,0,1.351,1.351,0,0,0,1.361,1.34h0.292a1.351,1.351,0,0,0,1.358-1.28q0-.03,0-0.06v-1.08a2.6,2.6,0,0,0,2,.88c0.468,0.03.807,0.04,1.106,0.04a3.406,3.406,0,0,0,2.283-.6v2.76a7.879,7.879,0,0,1-.592,1.8h-3.855a0.674,0.674,0,0,0-.2.03,0.842,0.842,0,0,0-.612-0.26h-0.626a0.829,0.829,0,0,0-.834.82,0.82,0.82,0,0,0,.834.81h0.626a0.821,0.821,0,0,0,.66-0.32,0.407,0.407,0,0,0,.155.03h3.232a6.977,6.977,0,0,1-5.629,3.08h-0.105A6.971,6.971,0,0,1,713.8,1601.7Zm5.593,4.22h0.216a9.42,9.42,0,0,0,1.774-.27v1.96a0.016,0.016,0,0,1,0,.01,0.452,0.452,0,0,0-.012.11,1.871,1.871,0,0,1-3.742,0,0.452,0.452,0,0,0-.012-0.11v-1.97A9.444,9.444,0,0,0,719.392,1605.92Zm-10.837,8.84c0-6.52,4.878-6.6,5.088-6.6h2.131l-0.323,1.81a0.556,0.556,0,0,0,.263.57l1.027,0.61,0.591,0.67a0.586,0.586,0,0,0,.429.19,0.538,0.538,0,0,0,.176-0.03l0.785-.25-1.089,4.04a0.553,0.553,0,0,0-.018.12h-9.06v-1.13Zm6.92-21.16a0.66,0.66,0,1,1-.677.66A0.665,0.665,0,0,1,715.475,1593.6Zm8.05,0a0.66,0.66,0,1,1-.677.66A0.665,0.665,0,0,1,723.525,1593.6Zm-5.694,7.27a3.274,3.274,0,0,1-1.026-.52,0.585,0.585,0,0,0-.8.04,0.542,0.542,0,0,0,.037.78,4.082,4.082,0,0,0,1.418.75,0.6,0.6,0,0,0,.185.03A0.554,0.554,0,0,0,717.831,1600.87Z" transform="translate(-703 -1583)"/>
</svg>
