<svg xmlns="http://www.w3.org/2000/svg" width="27" height="34" viewBox="0 0 27 34">
  <defs>
    <style>
      .cls-1 {
        fill: #0088d2;
        fill-rule: evenodd;
      }
    </style>
  </defs>
  <path id="_7" data-name="7" class="cls-1" d="M718.845,1520.18l0.326-.64a0.54,0.54,0,1,0-.963-0.49l-0.327.64a0.913,0.913,0,0,1-.824.5h-1.115a0.913,0.913,0,0,1-.823-0.5l-0.327-.64a0.54,0.54,0,1,0-.963.49l0.326,0.64a1.988,1.988,0,0,0,1.788,1.08h1.115A1.987,1.987,0,0,0,718.845,1520.18Zm-0.247-4.83h0.821a0.535,0.535,0,1,0,0-1.07H718.6A0.535,0.535,0,1,0,718.6,1515.35Zm8.925,9.35-1.828-.39h-0.022l-3.218-.68h-0.021l-1.506-.32v-0.42a5.626,5.626,0,0,0,.914-0.54,5.309,5.309,0,0,0,1.975-2.77,32.783,32.783,0,0,0,1.3-6.64h0.073a1.675,1.675,0,0,0,1.2-2.87l-1.146-1.12a5.388,5.388,0,0,0-5.395-5.14H719.5a1.369,1.369,0,0,0-1.247-.81h-3.5a1.369,1.369,0,0,0-1.247.81H713.15a5.389,5.389,0,0,0-5.395,5.14l-1.146,1.12a1.675,1.675,0,0,0,1.2,2.87h0.073a32.783,32.783,0,0,0,1.3,6.64,5.309,5.309,0,0,0,1.975,2.77,5.626,5.626,0,0,0,.914.54v0.42l-1.506.32h-0.021l-3.22.68h-0.019l-1.829.39a3.1,3.1,0,0,0-2.477,3.01v7.32a1.985,1.985,0,0,0,2,1.97h15.155a0.535,0.535,0,1,0,0-1.07H707.968v-10.66l2.16-.45v3.38a3.115,3.115,0,0,0,3.132,3.08h2.52a0.54,0.54,0,1,0,0-1.08h-2.52a2.03,2.03,0,0,1-2.052-2v-3.61l1.16-.25,1.669,2.46a2.982,2.982,0,0,0,4.925,0l1.67-2.46,1.16,0.25v3.61a1.929,1.929,0,0,1-.089.58h-3.024a1.256,1.256,0,0,0-1.259,1.25v1.44a1.256,1.256,0,0,0,1.259,1.25h3.669a1.256,1.256,0,0,0,1.26-1.25v-1.44a1.268,1.268,0,0,0-.81-1.17,2.961,2.961,0,0,0,.074-0.66v-3.38l2.16,0.45v10.66h-2.7a0.535,0.535,0,1,0,0,1.07H728a1.985,1.985,0,0,0,2-1.97v-7.32A3.1,3.1,0,0,0,727.523,1524.7Zm-20.635,11.23H705a0.915,0.915,0,0,1-.919-0.9v-7.32a2.02,2.02,0,0,1,1.621-1.96l1.187-.25v10.43Zm12.962-31.05a4.318,4.318,0,0,1,4.286,3.76h-3.885l-0.547-3.76h0.146Zm-11.475,6.98h-0.566a0.612,0.612,0,0,1-.621-0.6,0.575,0.575,0,0,1,.18-0.42l1.3-1.28a0.541,0.541,0,0,0,.161-0.39,4.314,4.314,0,0,1,4.32-4.29H713.3l-0.547,3.76h-1.985a0.535,0.535,0,1,0,0,1.07h5.016a0.535,0.535,0,1,0,0-1.07h-1.94l0.613-4.21c0-.01,0-0.01,0-0.02l0.015-.1a0.278,0.278,0,0,1,.278-0.24h3.5a0.278,0.278,0,0,1,.278.24l0.015,0.1a0.142,0.142,0,0,0,0,.02l0.612,4.21h-1.22a0.535,0.535,0,1,0,0,1.07h6.545l1.147,1.13a0.575,0.575,0,0,1,.18.42,0.612,0.612,0,0,1-.621.6H708.375Zm9.205,11.55h1a5.917,5.917,0,0,0,1.266-.14v0.31l-1.781,2.62a1.908,1.908,0,0,1-3.135,0l-1.78-2.62v-0.31a5.917,5.917,0,0,0,1.266.14h1a0.535,0.535,0,1,0,0-1.07h-1a4.343,4.343,0,0,1-4.2-3.07,31.671,31.671,0,0,1-1.25-6.33h6.993v3.67h-0.19a0.535,0.535,0,1,0,0,1.07h1.46a0.535,0.535,0,1,0,0-1.07h-0.19v-3.67h6.993a31.671,31.671,0,0,1-1.25,6.33,4.343,4.343,0,0,1-4.2,3.07h-1A0.535,0.535,0,1,0,717.58,1523.41Zm4.948,8.06a0.18,0.18,0,0,1-.18.18h-3.669a0.18,0.18,0,0,1-.18-0.18v-1.44a0.178,0.178,0,0,1,.18-0.17h3.669a0.178,0.178,0,0,1,.18.17v1.44h0Zm6.392,3.56a0.915,0.915,0,0,1-.92.9h-1.888V1525.5l1.187,0.25a2.02,2.02,0,0,1,1.621,1.96v7.32Zm-13.978-20.21a0.539,0.539,0,0,0-.54-0.54h-0.821a0.535,0.535,0,1,0,0,1.07H714.4A0.537,0.537,0,0,0,714.942,1514.82Z" transform="translate(-703 -1503)"/>
</svg>
