<svg xmlns="http://www.w3.org/2000/svg" width="34" height="34" viewBox="0 0 34 34">
  <defs>
    <style>
      .cls-1 {
        fill: #0088d2;
        fill-rule: evenodd;
      }
    </style>
  </defs>
  <path id="_3" data-name="3" class="cls-1" d="M437.548,1514.86l-2.846-.57a10.82,10.82,0,0,0-.722-1.74l1.61-2.42a1.8,1.8,0,0,0-.225-2.27l-1.221-1.23a1.812,1.812,0,0,0-2.278-.22l-2.416,1.61a10.864,10.864,0,0,0-1.742-.72l-0.569-2.85a1.81,1.81,0,0,0-1.771-1.45h-1.726a1.811,1.811,0,0,0-1.771,1.45l-0.569,2.85a10.9,10.9,0,0,0-1.742.72l-2.415-1.61a1.814,1.814,0,0,0-2.279.22l-1.221,1.23a1.8,1.8,0,0,0-.225,2.27l1.61,2.42a10.725,10.725,0,0,0-.721,1.74l-2.847.57a1.81,1.81,0,0,0-1.452,1.77v1.73a1.81,1.81,0,0,0,1.452,1.77l1.843,0.37a0.54,0.54,0,0,0,.211-1.06l-1.843-.36a0.736,0.736,0,0,1-.589-0.72v-1.73a0.736,0.736,0,0,1,.589-0.72l3.164-.63a0.541,0.541,0,0,0,.411-0.38,9.623,9.623,0,0,1,.876-2.12,0.534,0.534,0,0,0-.021-0.56l-1.79-2.68a0.743,0.743,0,0,1,.092-0.93l1.22-1.22a0.746,0.746,0,0,1,.924-0.09l2.685,1.79a0.539,0.539,0,0,0,.561.02,9.5,9.5,0,0,1,2.115-.87,0.558,0.558,0,0,0,.382-0.41l0.632-3.17a0.737,0.737,0,0,1,.718-0.59h1.726a0.736,0.736,0,0,1,.718.59l0.633,3.17a0.556,0.556,0,0,0,.382.41,9.49,9.49,0,0,1,2.114.87,0.539,0.539,0,0,0,.561-0.02l2.685-1.79a0.746,0.746,0,0,1,.924.09l1.221,1.22a0.743,0.743,0,0,1,.091.93l-1.79,2.68a0.536,0.536,0,0,0-.021.56,9.623,9.623,0,0,1,.876,2.12,0.544,0.544,0,0,0,.412.38l3.164,0.63a0.736,0.736,0,0,1,.588.72v1.73a0.736,0.736,0,0,1-.588.72l-3.164.63a0.544,0.544,0,0,0-.412.38,9.351,9.351,0,0,1-.876,2.11,0.553,0.553,0,0,0,.021.57l1.79,2.68a0.728,0.728,0,0,1-.091.92l-1.221,1.22a0.734,0.734,0,0,1-.924.1l-2.685-1.79a0.535,0.535,0,0,0-.6.89l2.685,1.79a1.82,1.82,0,0,0,1,.3,1.8,1.8,0,0,0,1.278-.53l1.221-1.22a1.811,1.811,0,0,0,.225-2.28l-1.61-2.41a10.82,10.82,0,0,0,.722-1.74l2.846-.57a1.81,1.81,0,0,0,1.452-1.77v-1.73A1.81,1.81,0,0,0,437.548,1514.86Zm-11.253,6.75h-5.011a0.535,0.535,0,1,0,0,1.07H426.3a0.9,0.9,0,0,1,.894.9v0.71a0.9,0.9,0,0,1-.894.9h-5.011a0.535,0.535,0,1,0,0,1.07H426.3a0.9,0.9,0,0,1,.894.9v0.71a0.9,0.9,0,0,1-.894.9h-5.011a0.535,0.535,0,1,0,0,1.07H426.3a0.9,0.9,0,0,1,.894.9v0.71a0.9,0.9,0,0,1-.894.9h-5.011a0.535,0.535,0,1,0,0,1.07H426.3a0.9,0.9,0,0,1,.894.9v0.71a0.9,0.9,0,0,1-.894.9H416.57a1.892,1.892,0,0,1-1.345-.56,3,3,0,0,0-2.111-.88H411.8v-5.9a0.537,0.537,0,1,0-1.074,0v7.16a0.179,0.179,0,0,1-.179.18h-1.61v-7.34a0.537,0.537,0,1,0-1.074,0v7.34h-1.61a0.179,0.179,0,0,1-.179-0.18v-12.17a0.179,0.179,0,0,1,.179-0.18h4.294a0.179,0.179,0,0,1,.179.18v2.86a0.537,0.537,0,1,0,1.074,0v-1.61h1.294a1.968,1.968,0,0,0,1.868-1.34l0.2-.6a18.2,18.2,0,0,0,.933-5.75,0.9,0.9,0,0,1,.894-0.9,1.608,1.608,0,0,1,1.611,1.61v5.73a0.537,0.537,0,1,0,1.074,0v-5.73a2.675,2.675,0,0,0-2.685-2.68,1.969,1.969,0,0,0-1.968,1.97,17.113,17.113,0,0,1-.878,5.41l-0.2.6a0.9,0.9,0,0,1-.849.61H411.8v-0.18a1.252,1.252,0,0,0-1.253-1.25h-4.294a1.252,1.252,0,0,0-1.253,1.25v12.17a1.252,1.252,0,0,0,1.253,1.25h4.294a1.252,1.252,0,0,0,1.253-1.25v-0.18h1.314a1.922,1.922,0,0,1,1.354.56,2.961,2.961,0,0,0,2.1.87H426.3a1.969,1.969,0,0,0,1.968-1.97v-0.71a1.972,1.972,0,0,0-.619-1.44,1.949,1.949,0,0,0,.619-1.43v-0.71a1.972,1.972,0,0,0-.619-1.44,1.933,1.933,0,0,0,.619-1.43v-0.71a1.949,1.949,0,0,0-.619-1.43,1.972,1.972,0,0,0,.619-1.44v-0.71A1.969,1.969,0,0,0,426.3,1521.61Zm-1.792-1.36a3.087,3.087,0,0,0,.427-0.03A2.776,2.776,0,1,0,424.5,1520.25Zm-0.257-4.42a1.685,1.685,0,1,1-1.4,1.92A1.689,1.689,0,0,1,424.246,1515.83Zm5.114,6.85a0.532,0.532,0,0,0,.388-0.16,7.269,7.269,0,0,0,.644-9.28,0.537,0.537,0,1,0-.869.63,6.2,6.2,0,0,1-.551,7.91,0.526,0.526,0,0,0,.016.75A0.537,0.537,0,0,0,429.36,1522.68Zm-0.378-10.23a0.535,0.535,0,0,0-.105-0.75,7.254,7.254,0,0,0-10.745,2.32,0.526,0.526,0,0,0,.213.72,0.486,0.486,0,0,0,.257.07,0.535,0.535,0,0,0,.472-0.28,6.19,6.19,0,0,1,9.156-1.98A0.532,0.532,0,0,0,428.982,1512.45Z" transform="translate(-405 -1503)"/>
</svg>
