<svg xmlns="http://www.w3.org/2000/svg" width="34" height="34" viewBox="0 0 34 34">
  <defs>
    <style>
      .cls-1 {
        fill: #0088d2;
        fill-rule: evenodd;
      }
    </style>
  </defs>
  <path id="_1" data-name="1" class="cls-1" d="M422.451,1364.06a0.54,0.54,0,0,0-.716-0.25,8.215,8.215,0,0,1-1.357.51,0.524,0.524,0,0,0-.382.41l-0.568,2.84a0.6,0.6,0,0,1-.59.48h-1.55a0.6,0.6,0,0,1-.59-0.48l-0.568-2.84a0.525,0.525,0,0,0-.381-0.41,9.055,9.055,0,0,1-1.886-.78,0.539,0.539,0,0,0-.561.02l-2.41,1.6a0.6,0.6,0,0,1-.759-0.07l-1.1-1.1a0.6,0.6,0,0,1-.075-0.76l1.607-2.41a0.534,0.534,0,0,0,.021-0.56,8.537,8.537,0,0,1-.782-1.88,0.511,0.511,0,0,0-.411-0.38l-2.84-.57a0.612,0.612,0,0,1-.484-0.59v-1.55a0.6,0.6,0,0,1,.484-0.59l2.84-.57a0.541,0.541,0,0,0,.411-0.38,8.614,8.614,0,0,1,.782-1.89,0.536,0.536,0,0,0-.021-0.56l-1.607-2.41a0.6,0.6,0,0,1,.076-0.76l1.095-1.09a0.606,0.606,0,0,1,.76-0.08l2.409,1.61a0.539,0.539,0,0,0,.561.02,8.108,8.108,0,0,1,1.886-.78,0.558,0.558,0,0,0,.382-0.41l0.567-2.84a0.61,0.61,0,0,1,.591-0.49h1.549a0.609,0.609,0,0,1,.59.49L420,1347.4a0.556,0.556,0,0,0,.382.41,8.1,8.1,0,0,1,1.885.78,0.539,0.539,0,0,0,.561-0.02l2.41-1.61a0.6,0.6,0,0,1,.759.08l1.1,1.09a0.6,0.6,0,0,1,.075.76l-1.606,2.41a0.534,0.534,0,0,0-.021.56,8.66,8.66,0,0,1,.781,1.89,0.541,0.541,0,0,0,.412.38l2.839,0.57a0.6,0.6,0,0,1,.484.59v1.55a0.612,0.612,0,0,1-.484.59l-2.839.57a0.525,0.525,0,0,0-.412.38,8.99,8.99,0,0,1-.523,1.39,0.536,0.536,0,0,0,.968.46,9.554,9.554,0,0,0,.494-1.25l2.523-.5a1.685,1.685,0,0,0,1.346-1.64v-1.55a1.668,1.668,0,0,0-1.347-1.64l-2.523-.51a9.417,9.417,0,0,0-.626-1.51l1.427-2.14a1.688,1.688,0,0,0-.209-2.12l-1.1-1.09a1.685,1.685,0,0,0-2.114-.21l-2.141,1.43a8.445,8.445,0,0,0-1.512-.63l-0.5-2.52a1.683,1.683,0,0,0-1.643-1.35h-1.55a1.685,1.685,0,0,0-1.643,1.35l-0.5,2.52a8.445,8.445,0,0,0-1.512.63l-2.141-1.43a1.685,1.685,0,0,0-2.114.21l-1.1,1.09a1.69,1.69,0,0,0-.209,2.12l1.427,2.14a9.417,9.417,0,0,0-.626,1.51l-2.523.51a1.668,1.668,0,0,0-1.347,1.64v1.55a1.684,1.684,0,0,0,1.347,1.64l2.523,0.51a9.812,9.812,0,0,0,.626,1.51l-1.427,2.14a1.673,1.673,0,0,0,.209,2.11l1.1,1.1a1.685,1.685,0,0,0,2.114.21l2.141-1.43a10.215,10.215,0,0,0,1.512.63l0.5,2.52a1.683,1.683,0,0,0,1.643,1.35h1.549a1.683,1.683,0,0,0,1.643-1.35l0.5-2.52a10.3,10.3,0,0,0,1.211-.48A0.543,0.543,0,0,0,422.451,1364.06Zm0.262-5.01a0.561,0.561,0,0,0,.723-0.24,6.036,6.036,0,0,0-9.585-7.07,0.537,0.537,0,0,0,.749.77,4.961,4.961,0,0,1,7.88,5.81A0.545,0.545,0,0,0,422.713,1359.05Zm-9.675-5.28a0.532,0.532,0,0,0-.682.33,6.031,6.031,0,0,0,9.243,6.85,0.537,0.537,0,0,0-.63-0.87,4.889,4.889,0,0,1-2.906.94,4.959,4.959,0,0,1-4.692-6.57A0.533,0.533,0,0,0,413.038,1353.77Zm24.929,12.69-1.553-.31a6.754,6.754,0,0,0-.34-0.82l0.878-1.32a1.286,1.286,0,0,0-.16-1.62l-0.72-.72a1.29,1.29,0,0,0-1.622-.16l-1.317.88a6.131,6.131,0,0,0-.822-0.34L432,1360.5a1.294,1.294,0,0,0-1.26-1.04h-1.019a1.294,1.294,0,0,0-1.26,1.04l-0.31,1.55a6.131,6.131,0,0,0-.822.34l-1.317-.88a1.29,1.29,0,0,0-1.622.16l-0.72.72a1.286,1.286,0,0,0-.16,1.62l0.878,1.32a6.472,6.472,0,0,0-.439,1.14,0.537,0.537,0,0,0,1.034.29,5.427,5.427,0,0,1,.5-1.2,0.536,0.536,0,0,0-.021-0.56l-1.056-1.58a0.215,0.215,0,0,1,.027-0.27l0.719-.72a0.222,0.222,0,0,1,.267-0.03l1.584,1.06a0.539,0.539,0,0,0,.561.02,5.7,5.7,0,0,1,1.2-.5,0.526,0.526,0,0,0,.382-0.41l0.373-1.86a0.211,0.211,0,0,1,.207-0.17h1.019a0.211,0.211,0,0,1,.207.17l0.373,1.86a0.526,0.526,0,0,0,.382.41,5.7,5.7,0,0,1,1.2.5,0.539,0.539,0,0,0,.561-0.02l1.584-1.06a0.222,0.222,0,0,1,.267.03l0.719,0.72a0.217,0.217,0,0,1,.027.27L435,1365a0.536,0.536,0,0,0-.021.56,5.427,5.427,0,0,1,.5,1.2,0.541,0.541,0,0,0,.411.38l1.866,0.37a0.215,0.215,0,0,1,.17.21v1.02a0.215,0.215,0,0,1-.17.21l-1.866.37a0.544,0.544,0,0,0-.412.38,5.423,5.423,0,0,1-.5,1.2,0.535,0.535,0,0,0,.021.56l1.056,1.59a0.2,0.2,0,0,1-.027.26l-0.72.72a0.221,0.221,0,0,1-.266.03l-1.584-1.06a0.539,0.539,0,0,0-.561-0.02,5.746,5.746,0,0,1-1.2.5,0.526,0.526,0,0,0-.382.41l-0.373,1.87a0.222,0.222,0,0,1-.208.17h-1.018a0.221,0.221,0,0,1-.207-0.17l-0.373-1.87a0.526,0.526,0,0,0-.382-0.41,5.7,5.7,0,0,1-1.2-.5,0.539,0.539,0,0,0-.561.02l-1.584,1.06a0.222,0.222,0,0,1-.267-0.03l-0.72-.72a0.2,0.2,0,0,1-.026-0.26l1.056-1.59a0.535,0.535,0,0,0,.021-0.56,5.427,5.427,0,0,1-.5-1.2,0.541,0.541,0,0,0-.411-0.38l-1.866-.37a0.215,0.215,0,0,1-.17-0.21v-1.02a0.215,0.215,0,0,1,.17-0.21l0.114-.02a0.535,0.535,0,1,0-.211-1.05l-0.114.02a1.29,1.29,0,0,0-1.033,1.26v1.02A1.29,1.29,0,0,0,422.5,1370l1.553,0.31a6.15,6.15,0,0,0,.34.82l-0.878,1.32a1.286,1.286,0,0,0,.16,1.62l0.72,0.72a1.29,1.29,0,0,0,1.622.16l1.317-.88a5.051,5.051,0,0,0,.822.34l0.31,1.56a1.285,1.285,0,0,0,1.261,1.03h1.018a1.285,1.285,0,0,0,1.26-1.03l0.31-1.56a5.051,5.051,0,0,0,.822-0.34l1.317,0.88a1.29,1.29,0,0,0,1.622-.16l0.72-.72a1.286,1.286,0,0,0,.16-1.62l-0.878-1.32a6.15,6.15,0,0,0,.34-0.82l1.553-.31a1.29,1.29,0,0,0,1.033-1.26v-1.02A1.29,1.29,0,0,0,437.967,1366.46Zm-7.736-.16a1.936,1.936,0,0,1,1.933,1.93,0.537,0.537,0,1,0,1.074,0,3.007,3.007,0,1,0-3.007,3.01,2.979,2.979,0,0,0,1.837-.63,0.537,0.537,0,0,0-.656-0.85A1.932,1.932,0,1,1,430.231,1366.3Zm-8.9-10.24a3.271,3.271,0,1,0-3.271,3.27A3.276,3.276,0,0,0,421.334,1356.06Zm-5.468,0a2.2,2.2,0,1,1,2.2,2.2A2.195,2.195,0,0,1,415.866,1356.06Z" transform="translate(-405 -1343)"/>
</svg>
