<svg xmlns="http://www.w3.org/2000/svg" width="34" height="33" viewBox="0 0 34 33">
  <defs>
    <style>
      .cls-1 {
        fill: #0088d2;
        fill-rule: evenodd;
      }
    </style>
  </defs>
  <path id="_2" data-name="2" class="cls-1" d="M413.589,1433.89a0.536,0.536,0,0,0,.537.53h5.011a0.535,0.535,0,1,0,0-1.07h-5.011A0.538,0.538,0,0,0,413.589,1433.89Zm-2.326-1.6h2.147a0.535,0.535,0,1,0,0-1.07h-2.147A0.535,0.535,0,1,0,411.263,1432.29Zm9.484-6.7v7.59a1.25,1.25,0,0,0,1.253,1.24h7.158a1.249,1.249,0,0,0,1.252-1.24v-7.59l2.706-2.68a0.537,0.537,0,0,0,0-.76,0.555,0.555,0,0,0-.759,0l-2.706,2.69h-8.144l-2.706-2.69a0.556,0.556,0,0,0-.76,0,0.539,0.539,0,0,0,0,.76Zm1.074,0.31h7.516v7.28a0.177,0.177,0,0,1-.179.17H422a0.177,0.177,0,0,1-.179-0.17v-7.28Zm-4.832,6.39h2.148a0.535,0.535,0,1,0,0-1.07h-2.148A0.535,0.535,0,1,0,416.989,1432.29Zm19.864,7.63a2.327,2.327,0,1,0-2.327,2.3A2.324,2.324,0,0,0,436.853,1439.92Zm-3.579,0a1.253,1.253,0,1,1,1.252,1.24A1.244,1.244,0,0,1,433.274,1439.92Zm-24.337-.07v0.14a0.537,0.537,0,0,0,1.073,0v-0.14A0.537,0.537,0,1,0,408.937,1439.85Zm10.737,0.07a2.326,2.326,0,1,0,2.326-2.31A2.314,2.314,0,0,0,419.674,1439.92Zm3.579,0a1.253,1.253,0,1,1-1.253-1.24A1.25,1.25,0,0,1,423.253,1439.92Zm15.21,14.02h-1.61v-0.89a1.959,1.959,0,0,0-1.969-1.95h-0.9v-3.73h0v-3.02h0.537a4.435,4.435,0,1,0,0-8.87h-2.5a0.535,0.535,0,1,0,0,1.07h2.5a3.37,3.37,0,1,1,0,6.74H409.474a3.37,3.37,0,1,1,0-6.74h20.4a0.535,0.535,0,1,0,0-1.07h-20.4a4.435,4.435,0,1,0,0,8.87h0.536v3.02h0v3.73h-0.894a1.959,1.959,0,0,0-1.969,1.95v0.89h-1.61a0.529,0.529,0,0,0-.537.53,0.535,0.535,0,0,0,.537.53h3.579a0.536,0.536,0,0,0,.537-0.53,0.529,0.529,0,0,0-.537-0.53h-0.895v-0.89a0.894,0.894,0,0,1,.895-0.89h2.863a0.894,0.894,0,0,1,.9.89v0.89h-1.611a0.529,0.529,0,0,0-.537.53,0.536,0.536,0,0,0,.537.53h27.2a0.535,0.535,0,0,0,.537-0.53A0.529,0.529,0,0,0,438.463,1453.94Zm-5.547-9.59v1.88l-2.275-1.88h2.275Zm-10.379,0h2.275l-2.275,1.88v-1.88Zm-1.074,0v1.88l-2.275-1.88h2.275Zm-10.379,0h2.275l-2.275,1.88v-1.88Zm7.516,8.7v0.89h-4.653v-0.89a1.958,1.958,0,0,0-1.968-1.95h-0.895v-3.48l3.952-3.27h2.475l3.952,3.27v3.48h-0.9A1.958,1.958,0,0,0,418.6,1453.05Zm5.726,0.89h-4.652v-0.89a0.893,0.893,0,0,1,.894-0.89h2.864a0.893,0.893,0,0,1,.894.89v0.89h0Zm5.727-.89v0.89H425.4v-0.89a1.958,1.958,0,0,0-1.968-1.95h-0.9v-3.48l3.952-3.27h2.474l3.953,3.27v3.48h-0.895A1.958,1.958,0,0,0,430.053,1453.05Zm5.726,0.89h-4.653v-0.89a0.894,0.894,0,0,1,.9-0.89h2.863a0.894,0.894,0,0,1,.895.89v0.89h0Zm-0.716-13.95v-0.14a0.537,0.537,0,1,0-1.074,0v0.14A0.537,0.537,0,0,0,435.063,1439.99Zm-27.916-.07a2.327,2.327,0,1,0,2.327-2.31A2.315,2.315,0,0,0,407.147,1439.92Zm3.579,0a1.253,1.253,0,1,1-1.252-1.24A1.25,1.25,0,0,1,410.726,1439.92Zm10.737-.07v0.14a0.537,0.537,0,0,0,1.074,0v-0.14A0.537,0.537,0,1,0,421.463,1439.85Z" transform="translate(-405 -1422)"/>
</svg>
