<svg xmlns="http://www.w3.org/2000/svg" width="20" height="14" viewBox="0 0 20 14">
  <defs>
    <style>
      .cls-1 {
        fill: #0088d2;
        fill-rule: evenodd;
      }
    </style>
  </defs>
  <path id="Forma_1_копия_5" data-name="Forma 1 копия 5" class="cls-1" d="M1032.05,4708.36a2.441,2.441,0,0,1-3.29,0l-5.09-4.78a2.09,2.09,0,0,1,0-3.09,2.441,2.441,0,0,1,3.29,0l3.03,2.85a0.6,0.6,0,0,0,.83,0l8.21-7.71a2.441,2.441,0,0,1,3.29,0,2.093,2.093,0,0,1,.68,1.54,2.115,2.115,0,0,1-.68,1.55Z" transform="translate(-1023 -4695)"/>
</svg>
