<svg xmlns="http://www.w3.org/2000/svg" width="40" height="40" viewBox="0 0 40 40">
  <defs>
    <style>
      .cls-1 {
        fill: #0088d2;
        fill-rule: evenodd;
      }
    </style>
  </defs>
  <path id="дом" class="cls-1" d="M1444.68,4903.64h-7.98a0.625,0.625,0,0,0-.62.63v6.69a0.625,0.625,0,0,0,.62.63h7.98a0.625,0.625,0,0,0,.62-0.63v-6.69A0.625,0.625,0,0,0,1444.68,4903.64Zm-4.61,6.7h-2.75v-5.45h2.75v5.45Zm3.98,0h-2.74v-5.45h2.74v5.45Zm15.25-6.7h-7.98a0.625,0.625,0,0,0-.62.63v6.69a0.625,0.625,0,0,0,.62.63h7.98a0.625,0.625,0,0,0,.62-0.63v-6.69A0.625,0.625,0,0,0,1459.3,4903.64Zm-4.61,6.7h-2.74v-5.45h2.74v5.45Zm3.98,0h-2.74v-5.45h2.74v5.45Zm-8.01-15.41h-5.32a0.625,0.625,0,0,0-.62.63v5.36a0.623,0.623,0,0,0,.62.62h5.32a0.623,0.623,0,0,0,.62-0.62v-5.36A0.625,0.625,0,0,0,1450.66,4894.93Zm-3.28,5.36h-1.42v-1.42h1.42v1.42Zm0-2.68h-1.42v-1.42h1.42v1.42Zm2.66,2.68h-1.42v-1.42h1.42v1.42Zm0-2.68h-1.42v-1.42h1.42v1.42Zm-3.37,21.44a0.623,0.623,0,0,0-.62.62v0.67a0.62,0.62,0,1,0,1.24,0v-0.67A0.623,0.623,0,0,0,1446.67,4919.05Zm20.6,6.69h-0.75a3.247,3.247,0,0,0,.71-2.05,3.3,3.3,0,0,0-3.28-3.31,3.163,3.163,0,0,0-1.37.31V4902.8l2.87,2.28a0.633,0.633,0,0,0,.88-0.11l1.54-1.97a0.633,0.633,0,0,0-.11-0.88l-6.36-5.05a0.627,0.627,0,0,0-.77.99l5.87,4.65-0.77.99-17.35-13.74a0.6,0.6,0,0,0-.76,0l-17.35,13.74-0.77-.99,18.11-14.34a0.616,0.616,0,0,1,.77,0l9.87,7.81a0.627,0.627,0,0,0,.77-0.99l-9.87-7.81a1.835,1.835,0,0,0-2.3,0l-18.61,14.74a0.633,0.633,0,0,0-.11.88l1.54,1.97a0.633,0.633,0,0,0,.88.11l2.87-2.28v12.85a0.625,0.625,0,1,0,1.25,0v-13.84l13.33-10.55,13.33,10.55v19.84a0.09,0.09,0,0,0,.01.05,3.3,3.3,0,0,0,.04,4.04h-2.17a3.291,3.291,0,1,0-5.85-2.05,3.247,3.247,0,0,0,.71,2.05h-2.12v-11.43a0.625,0.625,0,0,0-.63-0.62h-6.64a0.625,0.625,0,0,0-.63.62v11.43h-2.12a3.247,3.247,0,0,0,.71-2.05,3.28,3.28,0,1,0-5.85,2.05h-2.17a3.317,3.317,0,0,0,.04-4.05c0-.03.01-0.06,0.01-0.09V4919a0.625,0.625,0,0,0-1.25,0v1.69a3.163,3.163,0,0,0-1.37-.31,3.3,3.3,0,0,0-3.28,3.31,3.247,3.247,0,0,0,.71,2.05h-0.75a0.63,0.63,0,1,0,0,1.26h38.54A0.63,0.63,0,1,0,1467.27,4925.74Zm-35.22,0a2.05,2.05,0,1,1,2.04-2.05A2.051,2.051,0,0,1,1432.05,4925.74Zm7.31,0a2.05,2.05,0,1,1,2.04-2.05A2.051,2.051,0,0,1,1439.36,4925.74Zm11.34,0h-5.4v-10.8h5.4v10.8Zm5.94,0a2.05,2.05,0,1,1,2.03-2.05A2.051,2.051,0,0,1,1456.64,4925.74Zm7.31,0a2.05,2.05,0,1,1,2.04-2.05A2.051,2.051,0,0,1,1463.95,4925.74Z" transform="translate(-1428 -4887)"/>
</svg>
