<svg xmlns="http://www.w3.org/2000/svg" width="40" height="28" viewBox="0 0 40 28">
  <defs>
    <style>
      .cls-1 {
        fill: #0088d2;
        fill-rule: evenodd;
      }
    </style>
  </defs>
  <path id="ЖЭУ" class="cls-1" d="M457.466,4899.86h4.66a0.59,0.59,0,0,0,.583-0.59,0.584,0.584,0,0,0-.583-0.59h-4.66a0.583,0.583,0,0,0-.582.59A0.589,0.589,0,0,0,457.466,4899.86Zm0,3.15h4.66a0.584,0.584,0,0,0,.583-0.59,0.59,0.59,0,0,0-.583-0.59h-4.66a0.589,0.589,0,0,0-.582.59A0.583,0.583,0,0,0,457.466,4903.01Zm0,3.16h4.66a0.59,0.59,0,0,0,.583-0.59,0.584,0.584,0,0,0-.583-0.59h-4.66a0.583,0.583,0,0,0-.582.59A0.589,0.589,0,0,0,457.466,4906.17Zm0,3.15h4.66a0.584,0.584,0,0,0,.583-0.59,0.59,0.59,0,0,0-.583-0.59h-4.66a0.589,0.589,0,0,0-.582.59A0.583,0.583,0,0,0,457.466,4909.32Zm0,3.16h4.66a0.59,0.59,0,0,0,.583-0.59,0.584,0.584,0,0,0-.583-0.59h-4.66a0.583,0.583,0,0,0-.582.59A0.589,0.589,0,0,0,457.466,4912.48Zm26.408-12.62h4.66a0.589,0.589,0,0,0,.582-0.59,0.583,0.583,0,0,0-.582-0.59h-4.66a0.584,0.584,0,0,0-.583.59A0.59,0.59,0,0,0,483.874,4899.86Zm0,3.15h4.66a0.583,0.583,0,0,0,.582-0.59,0.589,0.589,0,0,0-.582-0.59h-4.66a0.59,0.59,0,0,0-.583.59A0.584,0.584,0,0,0,483.874,4903.01Zm0,3.16h4.66a0.589,0.589,0,0,0,.582-0.59,0.583,0.583,0,0,0-.582-0.59h-4.66a0.584,0.584,0,0,0-.583.59A0.59,0.59,0,0,0,483.874,4906.17Zm0,3.15h4.66a0.583,0.583,0,0,0,.582-0.59,0.589,0.589,0,0,0-.582-0.59h-4.66a0.59,0.59,0,0,0-.583.59A0.584,0.584,0,0,0,483.874,4909.32Zm5.242,2.57a0.583,0.583,0,0,0-.582-0.59h-4.66a0.584,0.584,0,0,0-.583.59,0.59,0.59,0,0,0,.583.59h4.66A0.589,0.589,0,0,0,489.116,4911.89Zm3.3,4.93h-0.294a1.828,1.828,0,0,0,.1-0.59,1.8,1.8,0,0,0-.435-1.18,1.778,1.778,0,0,0-.345-1.52,0.632,0.632,0,0,0,0-.07v-17.35a0.59,0.59,0,0,0-.583-0.59h-0.971v-1.77a0.592,0.592,0,0,0-.582-0.6h-2.525v-2.56a0.583,0.583,0,1,0-1.165,0v2.56H483.1a0.592,0.592,0,0,0-.582.6v1.77h-0.971a0.59,0.59,0,0,0-.583.59v7.3h-7.378v-2.76h3.3a0.59,0.59,0,0,0,.582-0.59v-2.37a0.584,0.584,0,0,0-.582-0.59H473a0.584,0.584,0,0,0-.583.59v5.72h-7.378v-7.3a0.59,0.59,0,0,0-.583-0.59h-0.971v-1.77a0.592,0.592,0,0,0-.582-0.6h-2.524v-2.56a0.583,0.583,0,1,0-1.165,0v2.56h-2.525a0.592,0.592,0,0,0-.582.6v1.77h-0.971a0.59,0.59,0,0,0-.583.59v17.35a0.632,0.632,0,0,0,0,.07,1.778,1.778,0,0,0-.345,1.52,1.794,1.794,0,0,0-.435,1.17,1.842,1.842,0,0,0,.1.6h-0.3a0.59,0.59,0,0,0,0,1.18h38.835A0.59,0.59,0,0,0,492.417,4916.82Zm-18.835-18.54H476.3v1.18h-2.719v-1.18Zm-16.31-3.94h5.048v1.18h-5.048v-1.18Zm2.136,22.48h-3.884a0.593,0.593,0,0,1-.312-1.09,0.6,0.6,0,0,0,.193-0.79,0.6,0.6,0,0,1-.075-0.29,0.584,0.584,0,0,1,.582-0.59,0.565,0.565,0,0,1,.388.15,0.579,0.579,0,0,0,.778,0,0.577,0.577,0,0,1,.776,0,0.579,0.579,0,0,0,.778,0,0.565,0.565,0,0,1,.387-0.15,0.584,0.584,0,0,1,.583.59,0.6,0.6,0,0,1-.075.29,0.6,0.6,0,0,0,.193.79A0.593,0.593,0,0,1,459.408,4916.82Zm4.466-12.82v12.82h-2.819a1.812,1.812,0,0,0,0-1.19h1.072a0.584,0.584,0,0,0,.583-0.59,0.59,0.59,0,0,0-.583-0.59h-1.37a1.759,1.759,0,0,0-1.737-1.58,1.682,1.682,0,0,1-1.553,0,1.684,1.684,0,0,1-1.554,0c-0.065,0-.13.01-0.194,0.01V4896.7h8.156v7.3Zm10.1,12.82h-0.389v-0.99a0.583,0.583,0,1,0-1.165,0v0.99h-0.388v-1.97h1.942v1.97Zm3.883,0h-2.718v-2.57a0.59,0.59,0,0,0-.583-0.59h-3.106a0.59,0.59,0,0,0-.583.59v2.57h-2.718v-6.71h9.708v6.71h0Zm-9.036-7.89,4.182-2.66,4.182,2.66h-8.364Zm12.143,7.89h-1.942v-6.71h0.195a0.577,0.577,0,0,0,.559-0.43,0.59,0.59,0,0,0-.251-0.66l-6.213-3.94a0.575,0.575,0,0,0-.618,0l-6.213,3.94a0.592,0.592,0,0,0-.252.66,0.579,0.579,0,0,0,.56.43h0.195v6.71h-1.942v-12.23h15.922v12.23h0Zm2.719-22.48h5.048v1.18H483.68v-1.18Zm1.564,20.11h-1.37a0.59,0.59,0,0,0-.583.59,0.584,0.584,0,0,0,.583.59h1.071a1.82,1.82,0,0,0,0,1.19h-2.819V4896.7h8.156v16.18c-0.064,0-.129-0.01-0.195-0.01a1.682,1.682,0,0,1-1.553,0,1.682,1.682,0,0,1-1.553,0A1.759,1.759,0,0,0,485.244,4914.45Zm5.232,2.37h-3.884a0.593,0.593,0,0,1-.312-1.09,0.6,0.6,0,0,0,.193-0.79,0.6,0.6,0,0,1-.075-0.29,0.584,0.584,0,0,1,.582-0.59,0.565,0.565,0,0,1,.388.15,0.579,0.579,0,0,0,.778,0,0.577,0.577,0,0,1,.776,0,0.579,0.579,0,0,0,.778,0,0.565,0.565,0,0,1,.387-0.15,0.584,0.584,0,0,1,.583.59,0.6,0.6,0,0,1-.075.29,0.6,0.6,0,0,0,.193.79A0.593,0.593,0,0,1,490.476,4916.82Zm-19.806-3.55a0.589,0.589,0,0,0,.582-0.59v-0.79a0.583,0.583,0,1,0-1.165,0v0.79A0.59,0.59,0,0,0,470.67,4913.27Zm2.33,0a0.589,0.589,0,0,0,.582-0.59v-0.79a0.583,0.583,0,1,0-1.165,0v0.79A0.59,0.59,0,0,0,473,4913.27Zm2.33,0a0.59,0.59,0,0,0,.583-0.59v-0.79a0.583,0.583,0,1,0-1.165,0v0.79A0.589,0.589,0,0,0,475.33,4913.27Z" transform="translate(-453 -4890)"/>
</svg>
