<svg xmlns="http://www.w3.org/2000/svg" width="40" height="39" viewBox="0 0 40 39">
  <defs>
    <style>
      .cls-1 {
        fill: #0088d2;
        fill-rule: evenodd;
      }
    </style>
  </defs>
  <path class="cls-1" d="M855.8,4915.43h-5.47a0.73,0.73,0,0,0-.725.73,0.721,0.721,0,0,0,.725.72h5.47a0.721,0.721,0,0,0,.725-0.72A0.73,0.73,0,0,0,855.8,4915.43Zm0,3.37h-5.47a0.73,0.73,0,0,0,0,1.46h5.47A0.73,0.73,0,0,0,855.8,4918.8Zm0,3.38h-5.47a0.721,0.721,0,0,0-.725.72,0.73,0.73,0,0,0,.725.73h5.47a0.73,0.73,0,0,0,.725-0.73A0.721,0.721,0,0,0,855.8,4922.18Zm9.933-6.75h-5.47a0.73,0.73,0,0,0-.725.73,0.721,0.721,0,0,0,.725.72h5.47a0.721,0.721,0,0,0,.725-0.72A0.73,0.73,0,0,0,865.735,4915.43Zm0,3.37h-5.47a0.73,0.73,0,0,0,0,1.46h5.47A0.73,0.73,0,0,0,865.735,4918.8Zm0,3.38h-5.47a0.721,0.721,0,0,0-.725.72,0.73,0.73,0,0,0,.725.73h5.47a0.73,0.73,0,0,0,.725-0.73A0.721,0.721,0,0,0,865.735,4922.18Zm9.933-6.75H870.2a0.73,0.73,0,0,0-.725.73,0.721,0.721,0,0,0,.725.72h5.47a0.721,0.721,0,0,0,.725-0.72A0.73,0.73,0,0,0,875.668,4915.43Zm0,3.37H870.2a0.73,0.73,0,0,0,0,1.46h5.47A0.73,0.73,0,0,0,875.668,4918.8Zm0,3.38H870.2a0.721,0.721,0,0,0-.725.72,0.73,0.73,0,0,0,.725.73h5.47a0.73,0.73,0,0,0,.725-0.73A0.722,0.722,0,0,0,875.668,4922.18Zm1.694-34.18H847.278a2.335,2.335,0,0,0,0,4.67h1.532a0.888,0.888,0,0,1,.882.89v0.94a0.725,0.725,0,1,0,1.45,0v-0.94a2.339,2.339,0,0,0-2.332-2.34h-1.532a0.885,0.885,0,0,1,0-1.77h30.084A0.725,0.725,0,0,0,877.362,4888Zm-19.724,3.22h-3.317a2.339,2.339,0,0,0-2.332,2.34v0.94a0.725,0.725,0,1,0,1.449,0v-0.94a0.888,0.888,0,0,1,.883-0.89h3.317a0.888,0.888,0,0,1,.883.89v0.94a0.725,0.725,0,1,0,1.449,0v-0.94A2.339,2.339,0,0,0,857.638,4891.22Zm23.347,0H863.251a2.339,2.339,0,0,0-2.332,2.34v0.94a0.725,0.725,0,1,0,1.45,0v-0.94a0.888,0.888,0,0,1,.882-0.89h17.734A0.725,0.725,0,1,0,880.985,4891.22Zm-1.837,2.91H865.369a0.729,0.729,0,0,0-.724.73,0.72,0.72,0,0,0,.724.72h13.779a0.72,0.72,0,0,0,.724-0.72A0.729,0.729,0,0,0,879.148,4894.13Zm-3.368,3.84h-8.421a0.72,0.72,0,0,0-.724.72,0.729,0.729,0,0,0,.724.73h8.421a0.729,0.729,0,0,0,.724-0.73A0.72,0.72,0,0,0,875.78,4897.97Zm-6.124,3.44h-4.44a0.725,0.725,0,1,0,0,1.45h4.44A0.725,0.725,0,1,0,869.656,4901.41Zm12.619,24.14H880v-12.76a0.729,0.729,0,0,0-.724-0.73h-2.779v-6.48a0.733,0.733,0,0,0-.325-0.61,0.724,0.724,0,0,0-.684-0.06l-7.2,3.07a0.737,0.737,0,0,0-.441.67v3.41h-4l-1.571-15.45a0.724,0.724,0,0,0-.721-0.65h-2.73a0.724,0.724,0,0,0-.721.65l-1.571,15.45h-1.5l-1.571-15.45a0.724,0.724,0,0,0-.721-0.65h-2.73a0.724,0.724,0,0,0-.721.65l-1.571,15.45h-0.99a0.73,0.73,0,0,0-.725.73v12.76h-2.277a0.721,0.721,0,0,0-.725.72,0.729,0.729,0,0,0,.725.73h38.55a0.73,0.73,0,0,0,.725-0.73A0.721,0.721,0,0,0,882.275,4925.55ZM869.3,4909.13l5.749-2.45v5.38H869.3v-2.93h0Zm-9.813-11.72h1.42l0.221,2.17h-1.862Zm-0.368,3.62h2.157l1.121,11.03h-4.4Zm-8.451-3.62h1.42l0.221,2.17h-1.862Zm-0.369,3.62h2.157l1.122,11.03h-4.4Zm28.253,24.52h-31.1v-12.04h31.1v12.04Z" transform="translate(-843 -4888)"/>
</svg>
