<svg xmlns="http://www.w3.org/2000/svg" width="40" height="35" viewBox="0 0 40 35">
  <defs>
    <style>
      .cls-1 {
        fill: #0088d2;
        fill-rule: evenodd;
      }
    </style>
  </defs>
  <path class="cls-1" d="M1233.7,4896.54v2.53a0.644,0.644,0,0,0,.64.64h0.21v3.59a0.643,0.643,0,0,0,.64.63h33.62a0.643,0.643,0,0,0,.64-0.63v-3.59h0.21a0.644,0.644,0,0,0,.64-0.64v-5.06a0.64,0.64,0,0,0-1.28,0v1.76l-16.38-3.13v-2.01a0.64,0.64,0,0,0-1.28,0v2.01l-16.38,3.13v-1.76a0.64,0.64,0,0,0-1.28,0v2.53Zm34.47,6.12h-32.34v-2.95h32.34v2.95Zm-16.17-8.85,17.02,3.25v1.38h-34.04v-1.38Zm19.36,27.39h-1.06v-1.9a0.636,0.636,0,0,0-.64-0.63h-1.92v-12.21h0.22a0.636,0.636,0,0,0,.64-0.63,0.644,0.644,0,0,0-.64-0.64h-4.26a0.644,0.644,0,0,0-.64.64,0.636,0.636,0,0,0,.64.63h0.21v12.21h-3.08v-12.21h0.21a0.63,0.63,0,0,0,.64-0.63,0.638,0.638,0,0,0-.64-0.64h-4.25a0.638,0.638,0,0,0-.64.64,0.63,0.63,0,0,0,.64.63H1257v12.21h-3.09v-12.21h0.22a0.636,0.636,0,0,0,.64-0.63,0.644,0.644,0,0,0-.64-0.64h-4.26a0.644,0.644,0,0,0-.64.64,0.636,0.636,0,0,0,.64.63h0.22v12.21H1247v-12.21h0.21a0.63,0.63,0,0,0,.64-0.63,0.638,0.638,0,0,0-.64-0.64h-4.25a0.638,0.638,0,0,0-.64.64,0.63,0.63,0,0,0,.64.63h0.21v12.21h-3.09v-12.21h0.22a0.636,0.636,0,0,0,.64-0.63,0.644,0.644,0,0,0-.64-0.64h-4.26a0.644,0.644,0,0,0-.64.64,0.636,0.636,0,0,0,.64.63h0.22v12.21h-1.92a0.636,0.636,0,0,0-.64.63v1.9h-1.06a0.636,0.636,0,0,0-.64.63v2.54a0.636,0.636,0,0,0,.64.63h38.72a0.636,0.636,0,0,0,.64-0.63v-2.54A0.636,0.636,0,0,0,1271.36,4921.2Zm-6.17-14.74h1.28v12.21h-1.28v-12.21Zm-6.91,0h1.27v12.21h-1.27v-12.21Zm-6.92,0h1.28v12.21h-1.28v-12.21Zm-6.91,0h1.27v12.21h-1.27v-12.21Zm-6.92,0h1.28v12.21h-1.28v-12.21Zm33.19,17.27h-37.44v-1.26h6.17a0.636,0.636,0,0,0,.63-0.64,0.627,0.627,0,0,0-.63-0.63h-4.47v-1.27h34.04v1.27H1242a0.636,0.636,0,0,0-.64.63,0.644,0.644,0,0,0,.64.64h28.72v1.26Z" transform="translate(-1232 -4890)"/>
</svg>
