<svg xmlns="http://www.w3.org/2000/svg" width="40" height="40" viewBox="0 0 40 40">
  <defs>
    <style>
      .cls-1 {
        fill: #0088d2;
        fill-rule: evenodd;
      }
    </style>
  </defs>
  <path class="cls-1" d="M1076.58,4905h-3.91v-1.24a1.43,1.43,0,0,0-1.43-1.43h-2.48a1.43,1.43,0,0,0-1.43,1.43V4905h-3.53l-1.28-3.4a8,8,0,1,0-9.04,0l-1.28,3.4h-3.53v-1.24a1.43,1.43,0,0,0-1.43-1.43h-2.48a1.43,1.43,0,0,0-1.43,1.43V4905h-3.91a1.425,1.425,0,0,0-1.42,1.42v5.16a1.425,1.425,0,0,0,1.42,1.42h3.91v1.24a1.43,1.43,0,0,0,1.43,1.43h2.48a1.43,1.43,0,0,0,1.43-1.43V4913h3.66l13.19,13.79a0.659,0.659,0,0,0,.92.04l5.33-4.71a0.658,0.658,0,0,0,.03-0.97l-8.14-8.15h3.67v1.24a1.43,1.43,0,0,0,1.43,1.43h2.48a1.43,1.43,0,0,0,1.43-1.43V4913h3.91a1.425,1.425,0,0,0,1.42-1.42v-5.16A1.425,1.425,0,0,0,1076.58,4905Zm-37.16,6.67a0.09,0.09,0,0,1-.09-0.09v-5.16a0.09,0.09,0,0,1,.09-0.09h3.91v5.34h-3.91Zm7.91,2.57a0.09,0.09,0,0,1-.09.09h-2.48a0.09,0.09,0,0,1-.09-0.09v-10.48a0.09,0.09,0,0,1,.09-0.09h2.48a0.09,0.09,0,0,1,.09.09v10.48Zm4.04-18.57h1.3a0.67,0.67,0,0,0,0-1.34h-1.3a6.663,6.663,0,0,1,13.26,0h-1.3a0.67,0.67,0,0,0,0,1.34h1.3a6.649,6.649,0,0,1-5.96,5.96v-1.3a0.67,0.67,0,0,0-1.34,0v1.3A6.649,6.649,0,0,1,1051.37,4895.67Zm3.25,6.69a9.245,9.245,0,0,0,6.76,0l0.99,2.64h-8.74Zm7.43,9.31a0.659,0.659,0,0,0-.47,1.13l8.78,8.79-4.32,3.82-12.94-13.54a0.657,0.657,0,0,0-.48-0.2h-3.95v-5.34h18.66v5.34h-5.28Zm9.28,2.57a0.09,0.09,0,0,1-.09.09h-2.48a0.09,0.09,0,0,1-.09-0.09v-10.48a0.09,0.09,0,0,1,.09-0.09h2.48a0.09,0.09,0,0,1,.09.09v10.48Zm5.34-2.66a0.09,0.09,0,0,1-.09.09h-3.91v-5.34h3.91a0.09,0.09,0,0,1,.09.09v5.16ZM1058,4897a2,2,0,0,0,.67-3.89V4891a0.67,0.67,0,0,0-1.34,0v2.11A2,2,0,0,0,1058,4897Zm0-2.67a0.67,0.67,0,1,1-.67.67A0.67,0.67,0,0,1,1058,4894.33Z" transform="translate(-1038 -4887)"/>
</svg>
