<svg xmlns="http://www.w3.org/2000/svg" width="33" height="40" viewBox="0 0 33 40">
  <defs>
    <style>
      .cls-1 {
        fill: #0088d2;
        fill-rule: evenodd;
      }
    </style>
  </defs>
  <path id="кран" class="cls-1" d="M682.328,4923.37H682.08l-1.156-2.05a0.62,0.62,0,0,0-.544-0.32h-1.742v-23.03h0.7v2.82a0.627,0.627,0,0,0,.626.63h2.364a0.627,0.627,0,0,0,.626-0.63v-2.95a1.681,1.681,0,0,0,1.046-1.56v-0.26a1.684,1.684,0,0,0-1.672-1.69H681.4l-4.669-4.64a0.535,0.535,0,0,0-.145-0.11v-0.89a1.684,1.684,0,0,0-1.671-1.69h-0.257a1.676,1.676,0,0,0-1.665,1.53l-18.74,5.8h-1.465a1.684,1.684,0,0,0-1.672,1.69v0.26a1.685,1.685,0,0,0,1.431,1.67v1.79a1.682,1.682,0,0,0,1.3,1.64v7.35a1.606,1.606,0,0,0-.96,1.47,1.583,1.583,0,0,0,.209.79l-1.429,1.91h-0.047a0.627,0.627,0,0,0-.626.63v5.33a0.627,0.627,0,0,0,.626.63h5.705a0.627,0.627,0,0,0,.626-0.63v-5.33a0.627,0.627,0,0,0-.626-0.63h-0.047l-1.429-1.91a1.573,1.573,0,0,0,.209-0.79,1.606,1.606,0,0,0-.96-1.47v-7.43a1.684,1.684,0,0,0,1.032-1.35h9.1v0.84a0.626,0.626,0,0,0,.625.63h5.08V4921H669.2a0.62,0.62,0,0,0-.544.32l-1.155,2.05H667.25a1.675,1.675,0,0,0-1.671,1.68v0.26a1.683,1.683,0,0,0,1.671,1.69h15.078a1.684,1.684,0,0,0,1.672-1.69v-0.26A1.676,1.676,0,0,0,682.328,4923.37Zm-0.626-23.21H680.59v-2.19H681.7v2.19Zm-5.113-8.84,3.031,3.01h-3.031v-3.01Zm-2.348-2.63h0a0.423,0.423,0,0,1,.42-0.43h0.257a0.424,0.424,0,0,1,.42.43v5.64h-1.1v-5.64h0Zm-20.44,11.05v-1.77h1.1v1.77a0.421,0.421,0,0,1-.42.42h-0.257A0.422,0.422,0,0,1,653.8,4899.74Zm1.011,10.46a0.356,0.356,0,0,1-.163.29c-0.006,0-.012.01-0.018,0.01s-0.02.01-.031,0.02h-0.03a0.03,0.03,0,0,1-.027.01,0.143,0.143,0,0,1-.065.01,0.148,0.148,0,0,1-.065-0.01,0.028,0.028,0,0,1-.026-0.01h-0.03c-0.012-.01-0.021-0.01-0.031-0.02s-0.012-.01-0.018-0.01a0.356,0.356,0,0,1-.163-0.29A0.334,0.334,0,0,1,654.812,4910.2Zm-2.56,8.03v-0.61h4.453v0.61h-4.453Zm4.453-4.07v2.2h-4.453v-2.2h4.453Zm-0.99-1.26h-2.473l0.857-1.14a0.082,0.082,0,0,1,.047.01h0.023a0.62,0.62,0,0,0,.135.02h0.034a0.528,0.528,0,0,0,.125.01h0.031a0.528,0.528,0,0,0,.125-0.01h0.034a0.629,0.629,0,0,0,.135-0.02h0.023a0.082,0.082,0,0,1,.047-0.01Zm9.519-14.21H656.15v-0.72h9.084v0.72Zm5.706,1.47h-4.454v-2.19h4.454v2.19Zm-5.08-3.46H652.791a0.422,0.422,0,0,1-.42-0.42v-0.26a0.422,0.422,0,0,1,.42-0.42h16.155a0.627,0.627,0,0,0,.626-0.63,0.635,0.635,0,0,0-.626-0.64H658.524l14.465-4.47v4.47h-1.845a0.635,0.635,0,0,0-.626.64,0.627,0.627,0,0,0,.626.63h11.184a0.421,0.421,0,0,1,.42.42v0.26a0.421,0.421,0,0,1-.42.42H665.86Zm7.011,16.2,1.918-2.41,1.918,2.41h-3.836Zm3.836,1.26-1.918,2.41-1.917-2.41h3.835Zm-4.515-2.42v-4.51l1.794,2.25Zm0.68-5.67h3.835l-1.918,2.4Zm0-1.27,1.917-2.41,1.918,2.41h-3.835Zm0-6.83h3.835l-1.918,2.41Zm1.114,3.42-1.794,2.25v-4.51Zm-1.794,13.94,1.794,2.25-1.794,2.25v-4.5Zm2.6,3.26,1.918,2.41h-3.835Zm0.8-1.01,1.795-2.25v4.5Zm0-8.1,1.795-2.25v4.51Zm0-8.09,1.795-2.26v4.51Zm7.156,23.92a0.423,0.423,0,0,1-.42.43H667.25a0.424,0.424,0,0,1-.42-0.43v-0.26a0.422,0.422,0,0,1,.42-0.42h9.93a0.63,0.63,0,0,0,0-1.26h-8.242l0.624-1.11h10.454l0.624,1.11h-1.207a0.63,0.63,0,0,0,0,1.26h2.895a0.421,0.421,0,0,1,.42.42v0.26h0Z" transform="translate(-651 -4887)"/>
</svg>
