<svg xmlns="http://www.w3.org/2000/svg" width="36" height="40" viewBox="0 0 36 40">
  <defs>
    <style>
      .cls-1 {
        fill: #0088d2;
        fill-rule: evenodd;
      }
    </style>
  </defs>
  <path id="Forma_1" data-name="Forma 1" class="cls-1" d="M408.679,551.779a2.373,2.373,0,1,0-2.377-2.373A2.378,2.378,0,0,0,408.679,551.779Zm0-3.389a1.017,1.017,0,1,1-1.019,1.016A1.019,1.019,0,0,1,408.679,548.39Zm-14.264,3.389a2.373,2.373,0,1,0-2.377-2.373A2.377,2.377,0,0,0,394.415,551.779Zm0-3.389a1.017,1.017,0,1,1-1.019,1.016A1.019,1.019,0,0,1,394.415,548.39Zm0,29.152a2.373,2.373,0,1,0,2.377,2.373A2.378,2.378,0,0,0,394.415,577.542Zm0,3.39a1.017,1.017,0,1,1,1.019-1.017A1.019,1.019,0,0,1,394.415,580.932Zm24.792-24.4V545H390v39.322h16.328a10.077,10.077,0,0,0,3.71.678,9.65,9.65,0,0,0,4.43-1.006,9.666,9.666,0,0,0,4.4,1.006c4,0,7.132-2.085,7.132-4.746V561.271C426,558.686,423.042,556.651,419.207,556.536Zm5.434,4.735c0,1.837-2.644,3.39-5.773,3.39s-5.774-1.553-5.774-3.39a1.872,1.872,0,0,1,.03-0.335c0.006-.033.017-0.064,0.025-0.1a1.991,1.991,0,0,1,.063-0.235c0.012-.035.03-0.069,0.045-0.1a2.321,2.321,0,0,1,.1-0.217c0.021-.039.049-0.077,0.072-0.115,0.039-.065.077-0.129,0.123-0.192s0.08-.1.121-0.148,0.076-.1.12-0.143c0.066-.072.141-0.142,0.217-0.211,0.024-.022.045-0.045,0.069-0.066a4.932,4.932,0,0,1,.725-0.518,6.356,6.356,0,0,1,.852-0.417c0.018-.007.037-0.013,0.055-0.021a7.606,7.606,0,0,1,.944-0.3l0.036-.009a8.506,8.506,0,0,1,.869-0.166l0.036,0q0.469-.063.959-0.08l0.319-.012C422,557.882,424.641,559.433,424.641,561.271ZM424.6,577.934c-0.011.057-.028,0.113-0.045,0.17s-0.031.106-.05,0.157-0.049.111-.075,0.166-0.048.1-.076,0.152-0.066.106-.1,0.159-0.064.1-.1,0.145-0.084.1-.128,0.153-0.078.092-.121,0.137-0.1.1-.154,0.147-0.091.086-.14,0.128-0.117.093-.177,0.138-0.1.081-.16,0.12-0.131.085-.2,0.127-0.115.075-.177,0.111-0.144.078-.217,0.117-0.127.068-.194,0.1-0.157.071-.237,0.105-0.135.06-.2,0.088-0.174.063-.261,0.094c-0.071.026-.139,0.052-0.212,0.075-0.09.029-.186,0.055-0.279,0.08-0.074.021-.146,0.044-0.221,0.063-0.1.024-.2,0.044-0.3,0.064-0.075.017-.149,0.035-0.225,0.049-0.108.019-.219,0.034-0.329,0.05-0.071.011-.142,0.024-0.215,0.033-0.123.015-.248,0.025-0.373,0.035-0.063,0-.124.013-0.187,0.017-0.189.012-.381,0.018-0.574,0.018-0.266,0-.527-0.015-0.787-0.037l-0.21-.02q-0.327-.034-0.648-0.092c-0.031,0-.063-0.009-0.1-0.016a3.238,3.238,0,0,0,.042-0.513V579.44c0.047,0.008.1,0.011,0.143,0.018q0.274,0.041.554,0.066c0.076,0.007.152,0.015,0.229,0.021,0.256,0.019.513,0.031,0.772,0.031,0.278,0,.55-0.012.819-0.032,0.087-.006.171-0.017,0.257-0.025,0.181-.018.36-0.038,0.536-0.064,0.1-.014.191-0.031,0.286-0.047,0.163-.029.323-0.061,0.481-0.1,0.092-.022.183-0.043,0.273-0.067,0.163-.042.321-0.089,0.478-0.139,0.076-.024.153-0.046,0.227-0.072,0.218-.076.43-0.158,0.632-0.247l0.025-.009c0.209-.094.409-0.2,0.6-0.3,0.062-.035.119-0.072,0.179-0.108,0.128-.077.254-0.156,0.373-0.238,0.064-.045.125-0.092,0.187-0.138,0.109-.081.213-0.166,0.314-0.253,0.03-.026.065-0.049,0.094-0.076,0,0.037,0,.075-0.01.113S424.608,577.88,424.6,577.934Zm-8.83,0c-0.011.057-.028,0.113-0.045,0.17s-0.031.106-.051,0.157-0.048.111-.074,0.166-0.048.1-.076,0.152-0.066.106-.1,0.159-0.063.1-.1,0.145-0.084.1-.128,0.153-0.078.092-.121,0.137-0.1.1-.154,0.147-0.091.086-.141,0.128-0.116.093-.176,0.138-0.1.081-.16,0.12-0.131.085-.2,0.127-0.116.075-.177,0.111-0.144.078-.217,0.117-0.127.068-.194,0.1-0.157.071-.237,0.105-0.135.06-.206,0.088-0.173.063-.26,0.094c-0.071.026-.14,0.052-0.212,0.075-0.091.029-.186,0.055-0.279,0.08-0.074.021-.146,0.044-0.221,0.063-0.1.024-.2,0.044-0.3,0.064-0.075.017-.149,0.035-0.226,0.049-0.108.019-.218,0.034-0.328,0.05-0.072.011-.142,0.024-0.215,0.033-0.123.015-.249,0.025-0.374,0.035-0.062,0-.123.013-0.186,0.017-0.189.012-.381,0.018-0.574,0.018s-0.385-.006-0.575-0.018c-0.063,0-.124-0.011-0.187-0.017-0.125-.01-0.251-0.019-0.373-0.034-0.073-.009-0.143-0.022-0.215-0.033-0.11-.016-0.221-0.031-0.329-0.051-0.076-.014-0.149-0.032-0.225-0.048-0.1-.021-0.2-0.041-0.3-0.065-0.075-.019-0.147-0.042-0.22-0.062-0.094-.026-0.189-0.052-0.28-0.081-0.072-.023-0.141-0.049-0.212-0.075-0.087-.031-0.176-0.06-0.26-0.094s-0.137-.059-0.206-0.088-0.161-.068-0.237-0.105-0.129-.067-0.194-0.1-0.147-.076-0.217-0.117-0.118-.073-0.177-0.111-0.135-.083-0.2-0.127-0.107-.079-0.16-0.12-0.121-.09-0.176-0.138-0.095-.085-0.141-0.128-0.105-.1-0.154-0.147-0.081-.091-0.12-0.137-0.089-.1-0.128-0.153-0.067-.1-0.1-0.145-0.071-.106-0.1-0.159-0.051-.1-0.076-0.152-0.053-.11-0.075-0.166-0.034-.1-0.05-0.157a1.634,1.634,0,0,1-.045-0.17c-0.011-.054-0.017-0.108-0.024-0.163,0-.037-0.008-0.074-0.01-0.112,0.029,0.026.064,0.05,0.093,0.076,0.1,0.087.2,0.172,0.315,0.254,0.061,0.046.122,0.092,0.186,0.136,0.12,0.083.245,0.162,0.374,0.24,0.06,0.035.117,0.073,0.179,0.107,0.193,0.108.392,0.21,0.6,0.3l0.023,0.009q0.306,0.135.634,0.247c0.074,0.026.151,0.047,0.227,0.072q0.234,0.075.477,0.14c0.091,0.023.182,0.044,0.274,0.065,0.158,0.036.318,0.068,0.481,0.1,0.095,0.018.189,0.034,0.285,0.048,0.176,0.027.356,0.046,0.537,0.064,0.086,0.008.17,0.019,0.256,0.025,0.27,0.021.543,0.033,0.821,0.033s0.55-.012.819-0.032c0.087-.006.17-0.017,0.257-0.025,0.181-.018.36-0.038,0.536-0.064,0.1-.014.191-0.031,0.285-0.047,0.164-.029.324-0.061,0.481-0.1,0.093-.022.184-0.043,0.274-0.067,0.163-.042.321-0.089,0.478-0.139,0.076-.024.153-0.046,0.227-0.072q0.327-.114.632-0.247l0.024-.009c0.21-.094.41-0.2,0.6-0.3,0.062-.035.119-0.072,0.178-0.108q0.194-.115.374-0.238c0.064-.045.125-0.092,0.187-0.138,0.109-.081.213-0.166,0.314-0.253,0.03-.026.065-0.049,0.094-0.076,0,0.037,0,.075-0.01.113S415.778,577.88,415.767,577.934Zm-21.012-19.908V553.8a4.417,4.417,0,0,0,4.062-4.055h5.459a4.419,4.419,0,0,0,4.063,4.055v4.226c-0.01-.011-0.021-0.019-0.031-0.03-0.115-.115-0.237-0.222-0.357-0.331s-0.229-.216-0.349-0.317c-0.044-.036-0.092-0.068-0.137-0.1a9.424,9.424,0,0,0-4.883-2.017l-0.066-.01a9.7,9.7,0,0,0-.969-0.049c-0.327,0-.65.017-0.97,0.049-0.022,0-.043.007-0.066,0.01a9.424,9.424,0,0,0-4.883,2.017c-0.045.035-.092,0.067-0.136,0.1-0.121.1-.234,0.211-0.349,0.317s-0.243.216-.357,0.331C394.776,558.007,394.765,558.015,394.755,558.026Zm16.384,8.057,0.03,0a8.828,8.828,0,0,1,1.057.195,7.623,7.623,0,0,1,.851.265c0.133,0.05.262,0.1,0.388,0.158,0.069,0.031.141,0.06,0.207,0.093a5.643,5.643,0,0,1,.533.295c0.038,0.023.074,0.048,0.111,0.071a4.175,4.175,0,0,1,.923.808L415.26,568a2.727,2.727,0,0,1,.218.309l0.022,0.035a2.415,2.415,0,0,1,.148.3c0.008,0.02.018,0.038,0.025,0.058a1.978,1.978,0,0,1,.083.283c0.006,0.024.015,0.048,0.02,0.073a1.868,1.868,0,0,1,.035.356c0,1.838-2.644,3.39-5.773,3.39s-5.774-1.552-5.774-3.39a2.039,2.039,0,0,1,.2-0.856,3.2,3.2,0,0,1,.929-1.124c0.027-.022.055-0.043,0.084-0.065,0.118-.091.246-0.178,0.381-0.262a8.057,8.057,0,0,1,4.178-1.082A9.351,9.351,0,0,1,411.139,566.083Zm2.374-1.654c0.061,0.046.123,0.093,0.186,0.137,0.12,0.083.246,0.162,0.375,0.239,0.06,0.036.117,0.073,0.178,0.108,0.193,0.108.393,0.21,0.6,0.3l0.022,0.008c0.2,0.091.416,0.173,0.634,0.248,0.074,0.026.151,0.048,0.228,0.072,0.156,0.049.314,0.1,0.477,0.139,0.09,0.023.181,0.045,0.274,0.065,0.157,0.037.318,0.069,0.481,0.1q0.141,0.026.285,0.048c0.176,0.026.355,0.046,0.537,0.064,0.085,0.008.169,0.019,0.256,0.024,0.269,0.022.541,0.034,0.819,0.034s0.55-.012.819-0.032c0.087-.006.171-0.017,0.257-0.025,0.181-.018.36-0.038,0.536-0.064,0.1-.014.191-0.031,0.286-0.047,0.163-.03.323-0.062,0.481-0.1,0.092-.021.183-0.042,0.273-0.066,0.163-.042.321-0.09,0.478-0.14,0.076-.024.153-0.046,0.227-0.071,0.218-.076.43-0.158,0.632-0.247l0.025-.01c0.209-.093.409-0.2,0.6-0.3,0.062-.035.119-0.072,0.179-0.108,0.128-.077.254-0.156,0.373-0.239,0.064-.044.125-0.09,0.187-0.137,0.109-.082.213-0.167,0.314-0.253,0.03-.027.065-0.05,0.094-0.076,0,0.037,0,.075-0.01.112-0.007.054-.012,0.11-0.024,0.163s-0.028.113-.045,0.17-0.031.106-.05,0.158-0.049.11-.075,0.165-0.048.1-.076,0.152-0.066.106-.1,0.158-0.064.1-.1,0.146-0.084.1-.128,0.153-0.078.093-.121,0.137-0.1.1-.154,0.147-0.091.087-.14,0.129-0.117.092-.177,0.137-0.1.081-.16,0.12-0.131.086-.2,0.128-0.115.074-.177,0.11-0.144.078-.217,0.117-0.127.068-.194,0.1-0.157.07-.237,0.105-0.135.061-.2,0.088-0.174.064-.261,0.095c-0.071.025-.139,0.051-0.212,0.074-0.09.029-.186,0.054-0.279,0.08-0.074.021-.146,0.043-0.221,0.062-0.1.025-.2,0.045-0.3,0.066-0.075.016-.149,0.034-0.225,0.047-0.108.021-.219,0.036-0.329,0.052-0.071.011-.142,0.023-0.215,0.032-0.123.015-.248,0.025-0.373,0.035l-0.187.017c-0.189.01-.381,0.017-0.574,0.017-0.244,0-.486-0.011-0.727-0.029-0.077-.006-0.151-0.018-0.227-0.025-0.163-.016-0.326-0.033-0.485-0.058-0.089-.013-0.176-0.033-0.264-0.049-0.143-.027-0.287-0.053-0.427-0.087-0.09-.022-0.177-0.048-0.264-0.072s-0.2-.057-0.3-0.088a6.487,6.487,0,0,0-2.636-1.709,2.21,2.21,0,0,1-.441-1.162c0.031,0.029.068,0.053,0.1,0.082C413.3,564.263,413.4,564.347,413.513,564.429Zm10.523,2.85c0.064-.045.125-0.091,0.187-0.138,0.109-.081.213-0.166,0.314-0.253,0.03-.027.065-0.05,0.094-0.076,0,0.037,0,.075-0.01.113-0.007.054-.012,0.109-0.024,0.162s-0.028.113-.045,0.17-0.031.106-.05,0.158-0.049.11-.075,0.165-0.048.1-.076,0.152-0.066.106-.1,0.159-0.064.1-.1,0.145-0.084.1-.128,0.153-0.078.093-.121,0.138-0.1.1-.154,0.146-0.091.087-.14,0.129-0.117.092-.177,0.137-0.1.081-.16,0.12-0.131.086-.2,0.128-0.115.075-.177,0.11-0.144.078-.217,0.117-0.127.068-.194,0.1-0.157.071-.237,0.106-0.135.06-.2,0.088-0.174.063-.261,0.094c-0.071.025-.139,0.052-0.212,0.075-0.09.028-.186,0.054-0.279,0.079-0.074.021-.146,0.043-0.221,0.062-0.1.025-.2,0.045-0.3,0.066-0.075.016-.149,0.034-0.225,0.048-0.108.02-.219,0.035-0.329,0.051-0.071.011-.142,0.023-0.215,0.033-0.123.015-.248,0.024-0.373,0.034-0.063,0-.124.013-0.187,0.017-0.189.011-.381,0.018-0.574,0.018a9.487,9.487,0,0,1-1.015-.061c-0.1-.011-0.2-0.027-0.3-0.042-0.13-.018-0.257-0.047-0.385-0.071v-0.5a3.148,3.148,0,0,0-.033-0.444c-0.012-.093-0.034-0.183-0.054-0.275-0.008-.037-0.012-0.074-0.022-0.111l0.047,0.006c0.192,0.032.388,0.053,0.584,0.075,0.1,0.01.191,0.026,0.288,0.034q0.441,0.037.888,0.037c0.278,0,.55-0.012.819-0.031,0.087-.007.171-0.017,0.257-0.026,0.181-.017.36-0.037,0.536-0.063,0.1-.014.191-0.031,0.286-0.047,0.163-.03.323-0.061,0.481-0.1,0.092-.021.183-0.042,0.273-0.066,0.163-.042.321-0.089,0.478-0.14,0.076-.024.153-0.046,0.227-0.072,0.218-.076.43-0.157,0.632-0.246l0.025-.01c0.209-.093.409-0.2,0.6-0.3,0.062-.035.119-0.072,0.179-0.108C423.791,567.441,423.917,567.361,424.036,567.279Zm0,2.711c0.064-.045.125-0.091,0.187-0.136,0.109-.083.213-0.168,0.314-0.254,0.03-.027.065-0.05,0.094-0.076,0,0.037,0,.075-0.01.112-0.007.054-.012,0.109-0.024,0.163s-0.028.113-.045,0.17-0.031.106-.05,0.157-0.049.111-.075,0.166-0.048.1-.076,0.152-0.066.106-.1,0.158-0.064.1-.1,0.146-0.084.1-.128,0.153-0.078.093-.121,0.137-0.1.1-.154,0.147-0.091.087-.14,0.129-0.117.092-.177,0.137-0.1.081-.16,0.12-0.131.086-.2,0.128-0.115.074-.177,0.11-0.144.078-.217,0.117-0.127.068-.194,0.1-0.157.071-.237,0.105-0.135.061-.2,0.088-0.174.064-.261,0.095c-0.071.025-.139,0.051-0.212,0.074-0.09.03-.186,0.054-0.279,0.08-0.074.021-.146,0.044-0.221,0.063-0.1.024-.2,0.043-0.3,0.065-0.075.016-.149,0.034-0.225,0.048-0.108.02-.219,0.034-0.329,0.051-0.071.01-.142,0.023-0.215,0.032-0.123.015-.248,0.024-0.373,0.035-0.063.005-.124,0.012-0.187,0.016-0.189.012-.381,0.018-0.574,0.018a9.234,9.234,0,0,1-1.015-.061c-0.1-.011-0.2-0.027-0.3-0.041-0.13-.018-0.257-0.047-0.385-0.071V571.3c0.047,0.007.1,0.01,0.143,0.017q0.274,0.041.554,0.066c0.076,0.008.152,0.016,0.229,0.021,0.256,0.019.513,0.031,0.772,0.031,0.278,0,.55-0.012.819-0.031,0.087-.007.171-0.017,0.257-0.026,0.181-.017.36-0.038,0.536-0.064,0.1-.013.191-0.031,0.286-0.047,0.163-.029.323-0.061,0.481-0.1,0.092-.022.183-0.042,0.273-0.066,0.163-.042.321-0.09,0.478-0.14,0.076-.024.153-0.046,0.227-0.072,0.218-.076.43-0.157,0.632-0.246l0.025-.01c0.209-.093.409-0.2,0.6-0.3,0.062-.034.119-0.071,0.179-0.108C423.791,570.152,423.917,570.073,424.036,569.99Zm0,2.712c0.064-.045.125-0.091,0.187-0.137,0.109-.082.213-0.166,0.314-0.253,0.03-.027.065-0.05,0.094-0.077,0,0.038,0,.076-0.01.113-0.007.055-.012,0.109-0.024,0.163s-0.028.113-.045,0.17-0.031.106-.05,0.157-0.049.111-.075,0.166-0.048.1-.076,0.151-0.066.107-.1,0.159-0.064.1-.1,0.146-0.084.1-.128,0.153-0.078.092-.121,0.137-0.1.1-.154,0.147-0.091.087-.14,0.128-0.117.092-.177,0.138-0.1.081-.16,0.12-0.131.086-.2,0.127-0.115.075-.177,0.111-0.144.078-.217,0.116-0.127.069-.194,0.1-0.157.071-.237,0.1-0.135.061-.2,0.088-0.174.063-.261,0.094c-0.071.026-.139,0.052-0.212,0.075-0.09.029-.186,0.054-0.279,0.08-0.074.021-.146,0.044-0.221,0.063-0.1.024-.2,0.043-0.3,0.065-0.075.016-.149,0.034-0.225,0.048-0.108.019-.219,0.034-0.329,0.05-0.071.011-.142,0.024-0.215,0.033-0.123.015-.248,0.024-0.373,0.035l-0.187.017c-0.189.011-.381,0.017-0.574,0.017a9.234,9.234,0,0,1-1.015-.061c-0.1-.011-0.2-0.027-0.3-0.041-0.13-.019-0.257-0.047-0.385-0.071v-1.318c0.047,0.007.1,0.01,0.143,0.017q0.274,0.041.554,0.066c0.076,0.008.152,0.016,0.229,0.021,0.256,0.019.513,0.031,0.772,0.031,0.278,0,.55-0.012.819-0.032,0.087,0,.171-0.016.257-0.024,0.181-.018.36-0.039,0.536-0.064,0.1-.015.191-0.032,0.286-0.048,0.163-.029.323-0.061,0.481-0.1,0.092-.02.183-0.042,0.273-0.065,0.163-.042.321-0.09,0.478-0.14,0.076-.024.153-0.046,0.227-0.072,0.218-.076.43-0.157,0.632-0.247l0.025-.009c0.209-.094.409-0.2,0.6-0.3,0.062-.034.119-0.072,0.179-0.107C423.791,572.864,423.917,572.785,424.036,572.7Zm0,2.712c0.064-.045.125-0.091,0.187-0.137,0.109-.082.213-0.167,0.314-0.253,0.03-.027.065-0.05,0.094-0.076,0,0.037,0,.074-0.01.112-0.007.054-.012,0.109-0.024,0.163s-0.028.113-.045,0.17-0.031.106-.05,0.157-0.049.111-.075,0.166-0.048.1-.076,0.152-0.066.106-.1,0.158-0.064.1-.1,0.146-0.084.1-.128,0.153-0.078.092-.121,0.137-0.1.1-.154,0.147-0.091.086-.14,0.128-0.117.093-.177,0.138-0.1.081-.16,0.12-0.131.085-.2,0.127-0.115.075-.177,0.111-0.144.078-.217,0.117-0.127.068-.194,0.1-0.157.07-.237,0.1-0.135.06-.2,0.088-0.174.063-.261,0.094c-0.071.025-.139,0.052-0.212,0.075-0.09.029-.186,0.054-0.279,0.08-0.074.021-.146,0.043-0.221,0.062-0.1.024-.2,0.045-0.3,0.065-0.075.016-.149,0.035-0.225,0.049-0.108.019-.219,0.034-0.329,0.05-0.071.011-.142,0.024-0.215,0.033-0.123.015-.248,0.025-0.373,0.034-0.063.006-.124,0.014-0.187,0.018-0.189.011-.381,0.017-0.574,0.017a9.234,9.234,0,0,1-1.015-.061c-0.1-.011-0.2-0.027-0.3-0.041-0.13-.019-0.257-0.047-0.385-0.072v-1.317c0.047,0.007.1,0.01,0.143,0.016q0.274,0.042.554,0.067c0.076,0.007.152,0.015,0.229,0.021,0.256,0.019.513,0.031,0.772,0.031,0.278,0,.55-0.012.819-0.032,0.087-.006.171-0.017,0.257-0.025,0.181-.017.36-0.038,0.536-0.063,0.1-.015.191-0.031,0.286-0.048,0.163-.029.323-0.061,0.481-0.1,0.092-.021.183-0.042,0.273-0.065,0.163-.042.321-0.09,0.478-0.14,0.076-.025.153-0.046,0.227-0.072,0.218-.076.43-0.157,0.632-0.247l0.025-.009c0.209-.094.409-0.2,0.6-0.3,0.062-.035.119-0.072,0.179-0.108C423.791,575.576,423.917,575.5,424.036,575.414Zm-8.269-.192c-0.011.057-.028,0.113-0.045,0.17s-0.031.106-.051,0.157-0.048.111-.074,0.166-0.048.1-.076,0.152-0.066.107-.1,0.158-0.063.1-.1,0.146-0.084.1-.128,0.153-0.078.093-.121,0.137-0.1.1-.154,0.147-0.091.087-.141,0.129-0.116.092-.176,0.138-0.1.08-.16,0.119-0.131.086-.2,0.128-0.116.074-.177,0.11-0.144.078-.217,0.117-0.127.069-.194,0.1-0.157.071-.237,0.105-0.135.061-.206,0.088-0.173.064-.26,0.095c-0.071.025-.14,0.051-0.212,0.074-0.091.03-.186,0.054-0.279,0.08-0.074.021-.146,0.044-0.221,0.063-0.1.024-.2,0.043-0.3,0.065-0.075.016-.149,0.034-0.226,0.048-0.108.02-.218,0.034-0.328,0.051-0.072.01-.142,0.024-0.215,0.032-0.123.015-.249,0.024-0.374,0.035l-0.186.017c-0.189.012-.381,0.018-0.574,0.018s-0.385-.006-0.575-0.017c-0.063,0-.124-0.012-0.187-0.018-0.125-.009-0.251-0.019-0.373-0.034-0.073-.009-0.143-0.022-0.215-0.033-0.11-.016-0.221-0.031-0.329-0.05-0.076-.015-0.149-0.033-0.225-0.049-0.1-.02-0.2-0.041-0.3-0.065-0.075-.019-0.147-0.042-0.22-0.062-0.094-.027-0.189-0.051-0.28-0.081-0.072-.023-0.141-0.049-0.212-0.074-0.087-.031-0.176-0.061-0.26-0.095s-0.137-.058-0.206-0.088-0.161-.068-0.237-0.105-0.129-.067-0.194-0.1-0.147-.076-0.217-0.117-0.118-.073-0.177-0.11-0.135-.084-0.2-0.128-0.107-.079-0.16-0.119-0.121-.091-0.176-0.138-0.095-.086-0.141-0.129-0.105-.1-0.154-0.147-0.081-.091-0.12-0.136-0.089-.1-0.128-0.154-0.067-.1-0.1-0.145-0.071-.1-0.1-0.159-0.051-.1-0.076-0.152-0.053-.11-0.075-0.166-0.034-.1-0.05-0.157a1.634,1.634,0,0,1-.045-0.17c-0.011-.054-0.017-0.108-0.024-0.163,0-.037-0.008-0.074-0.01-0.112,0.029,0.026.064,0.05,0.093,0.075,0.1,0.088.2,0.173,0.315,0.255,0.061,0.046.122,0.092,0.186,0.136,0.12,0.084.245,0.162,0.374,0.24,0.06,0.035.117,0.073,0.179,0.107,0.193,0.108.392,0.211,0.6,0.3l0.023,0.009c0.2,0.09.415,0.172,0.634,0.248,0.074,0.025.151,0.047,0.227,0.071q0.234,0.075.477,0.14c0.091,0.023.182,0.044,0.274,0.065,0.158,0.036.318,0.068,0.481,0.1,0.095,0.016.189,0.033,0.285,0.047,0.176,0.026.356,0.046,0.537,0.064,0.086,0.008.17,0.019,0.256,0.025,0.27,0.021.543,0.033,0.821,0.033s0.55-.012.819-0.032c0.087-.006.17-0.017,0.257-0.025,0.181-.017.36-0.038,0.536-0.063,0.1-.015.191-0.031,0.285-0.048,0.164-.029.324-0.061,0.481-0.1,0.093-.021.184-0.042,0.274-0.065,0.163-.042.321-0.09,0.478-0.14,0.076-.025.153-0.046,0.227-0.072,0.218-.076.429-0.157,0.632-0.247l0.024-.009c0.21-.094.41-0.2,0.6-0.3,0.062-.035.119-0.072,0.178-0.108,0.129-.077.254-0.156,0.374-0.239,0.064-.044.125-0.09,0.187-0.136,0.109-.083.213-0.167,0.314-0.254,0.03-.026.065-0.049,0.094-0.076,0,0.038,0,.076-0.01.113C415.784,575.114,415.778,575.168,415.767,575.222Zm-13.409-2.474a7.91,7.91,0,0,1-.811.048,8.09,8.09,0,0,1-.95-0.06c-0.1-.012-0.2-0.031-0.3-0.045-0.212-.033-0.421-0.072-0.628-0.121-0.113-.027-0.225-0.055-0.337-0.087-0.2-.056-0.39-0.121-0.582-0.191-0.1-.036-0.2-0.07-0.306-0.111a8.209,8.209,0,0,1-.793-0.376c-0.079-.043-0.152-0.094-0.23-0.14-0.188-.111-0.374-0.227-0.553-0.353-0.091-.063-0.178-0.13-0.265-0.2-0.175-.134-0.345-0.274-0.509-0.423-0.063-.056-0.127-0.111-0.187-0.169-0.138-.133-0.265-0.279-0.394-0.422l2.1-2.3a1.148,1.148,0,0,1,1-.408c0.031,0,.062.012,0.094,0.02,0.1,0.08.323,0.282,0.474,0.421a7.859,7.859,0,0,0,.807.689,2.149,2.149,0,0,0,1.311,1.144,2.582,2.582,0,0,0,1.6-.116v3.119c-0.073.012-.146,0.029-0.219,0.039C402.577,572.721,402.467,572.737,402.358,572.748Zm-8.924-8.833c0.006-.063.013-0.124,0.02-0.186,0.024-.214.056-0.425,0.1-0.635,0.006-.031.01-0.063,0.017-0.094,0.05-.241.112-0.477,0.183-0.709,0.015-.049.032-0.1,0.048-0.145,0.059-.181.124-0.358,0.2-0.533,0.026-.065.052-0.13,0.08-0.194,0.081-.184.168-0.365,0.261-0.541,0.049-.092.1-0.182,0.154-0.272s0.116-.194.177-0.29a0.015,0.015,0,0,1,.005-0.006l1.959,2.146a2.515,2.515,0,0,0,1.834.848,2.314,2.314,0,0,0,.718-0.125,1.625,1.625,0,0,0,.671-0.556,1.405,1.405,0,0,1,1.014-.674,2.712,2.712,0,0,1,1.826.708l0.727,0.747,0.341-.963a3.016,3.016,0,0,1,1.4-.522,5.193,5.193,0,0,1-.1,4.063c-0.047.03-.095,0.06-0.14,0.091-0.084.057-.161,0.117-0.241,0.176s-0.139.1-.2,0.158-0.145.127-.216,0.192-0.124.111-.181,0.169-0.127.139-.189,0.209-0.107.118-.155,0.179-0.109.15-.161,0.225-0.089.122-.128,0.185c-0.05.081-.09,0.165-0.133,0.246l-0.008.016a2.3,2.3,0,0,1-1.623.531,0.869,0.869,0,0,1-.546-0.6l-0.156-.364-0.273-.031c-0.143-.107-0.424-0.365-0.6-0.528a2.975,2.975,0,0,0-.9-0.69,2.241,2.241,0,0,0-.354-0.09,2.473,2.473,0,0,0-2.242.832l-1.937,2.126L394.667,569c-0.056-.088-0.111-0.179-0.165-0.27s-0.118-.2-0.173-0.307q-0.137-.257-0.253-0.523c-0.029-.066-0.055-0.133-0.082-0.2q-0.105-.26-0.194-0.527c-0.016-.049-0.034-0.1-0.049-0.149-0.071-.232-0.133-0.467-0.183-0.707-0.007-.032-0.011-0.065-0.017-0.1q-0.061-.313-0.1-0.635c-0.007-.061-0.014-0.123-0.02-0.185-0.022-.246-0.038-0.494-0.038-0.745S393.412,564.161,393.434,563.915Zm11.249,8.65c0.061,0.046.122,0.092,0.186,0.136,0.12,0.084.246,0.163,0.375,0.24,0.059,0.036.116,0.073,0.178,0.108,0.193,0.108.393,0.21,0.6,0.3l0.022,0.009c0.2,0.09.416,0.172,0.634,0.247,0.074,0.026.151,0.048,0.227,0.073,0.157,0.049.315,0.1,0.478,0.139,0.09,0.023.181,0.044,0.274,0.065,0.157,0.036.318,0.069,0.481,0.1,0.094,0.017.188,0.033,0.285,0.047,0.176,0.026.355,0.047,0.536,0.064,0.086,0.008.17,0.019,0.257,0.025,0.268,0.021.541,0.033,0.819,0.033s0.55-.012.819-0.032c0.087,0,.17-0.016.257-0.024,0.181-.018.36-0.039,0.536-0.064,0.1-.015.191-0.032,0.285-0.048,0.164-.029.324-0.061,0.481-0.1,0.093-.02.184-0.042,0.274-0.065,0.163-.042.321-0.09,0.478-0.14,0.076-.024.153-0.046,0.227-0.072,0.218-.076.429-0.157,0.632-0.247l0.024-.009c0.21-.094.41-0.2,0.6-0.3,0.062-.034.119-0.072,0.178-0.107,0.129-.078.254-0.157,0.374-0.239,0.064-.045.125-0.091,0.187-0.137,0.109-.082.213-0.167,0.314-0.254,0.03-.026.065-0.049,0.094-0.075,0,0.036,0,.075-0.01.112-0.007.054-.012,0.109-0.024,0.163s-0.028.113-.045,0.17-0.031.106-.051,0.157-0.048.111-.074,0.165-0.048.1-.076,0.153-0.066.106-.1,0.158-0.063.1-.1,0.146-0.084.1-.128,0.152-0.078.093-.121,0.138-0.1.1-.154,0.146-0.091.087-.141,0.129-0.116.093-.176,0.138-0.1.08-.16,0.12-0.131.085-.2,0.127-0.116.075-.177,0.111-0.144.078-.217,0.117-0.127.068-.194,0.1-0.157.07-.237,0.105-0.135.06-.206,0.088-0.173.063-.26,0.094c-0.071.025-.14,0.052-0.212,0.075-0.091.029-.186,0.054-0.279,0.08-0.074.021-.146,0.043-0.221,0.062-0.1.024-.2,0.044-0.3,0.065-0.075.017-.149,0.035-0.226,0.048-0.108.02-.218,0.035-0.328,0.051-0.072.011-.142,0.024-0.215,0.033-0.123.015-.249,0.024-0.374,0.034-0.062.006-.123,0.013-0.186,0.017-0.189.011-.381,0.017-0.574,0.017s-0.385-.006-0.575-0.017l-0.187-.017c-0.125-.011-0.251-0.02-0.373-0.035-0.073-.009-0.143-0.022-0.215-0.033-0.11-.016-0.221-0.031-0.329-0.05-0.076-.015-0.149-0.033-0.225-0.048-0.1-.022-0.2-0.042-0.3-0.066-0.075-.019-0.147-0.041-0.22-0.062-0.094-.027-0.189-0.051-0.28-0.081-0.072-.023-0.141-0.049-0.212-0.074-0.087-.031-0.176-0.061-0.26-0.094s-0.137-.06-0.206-0.088-0.161-.069-0.237-0.106-0.129-.067-0.194-0.1-0.147-.076-0.217-0.117-0.118-.073-0.177-0.11-0.135-.083-0.2-0.128-0.107-.079-0.16-0.12-0.121-.09-0.176-0.137-0.095-.086-0.141-0.129-0.105-.1-0.154-0.146-0.081-.092-0.12-0.137-0.089-.1-0.128-0.154-0.067-.1-0.1-0.145-0.071-.106-0.1-0.159-0.051-.1-0.076-0.152-0.053-.11-0.075-0.165-0.034-.105-0.05-0.158a1.634,1.634,0,0,1-.045-0.17c-0.011-.053-0.017-0.108-0.024-0.163,0-.037-0.008-0.074-0.01-0.112,0.029,0.026.064,0.05,0.093,0.076C404.469,572.4,404.574,572.483,404.683,572.565Zm4.466-7.866c-0.125.01-.249,0.023-0.372,0.037s-0.22.026-.329,0.041-0.24.039-.358,0.06-0.212.039-.316,0.062-0.229.053-.342,0.081-0.2.052-.3,0.081-0.219.067-.326,0.1l-0.036.011a6.933,6.933,0,0,0-.543-4.214l-0.133-.259-0.28-.082a4.064,4.064,0,0,0-2.725.633,4.055,4.055,0,0,0-2.22-.66,2.691,2.691,0,0,0-2.05,1.155c-0.056.065-.1,0.125-0.148,0.171a0.927,0.927,0,0,1-.226.029,1.138,1.138,0,0,1-.808-0.4l-2.121-2.323c0.129-.143.256-0.289,0.394-0.421,0.06-.058.124-0.114,0.186-0.17,0.164-.148.335-0.288,0.509-0.423,0.088-.067.175-0.134,0.265-0.2,0.179-.126.365-0.242,0.554-0.353,0.077-.045.151-0.1,0.23-0.14a8.445,8.445,0,0,1,.793-0.375c0.1-.042.2-0.075,0.306-0.112,0.192-.07.385-0.135,0.582-0.191,0.111-.031.224-0.059,0.336-0.086,0.208-.049.417-0.088,0.629-0.121,0.1-.016.2-0.034,0.3-0.046a7.543,7.543,0,0,1,1.9,0c0.1,0.012.2,0.031,0.3,0.046,0.212,0.033.421,0.072,0.628,0.121,0.113,0.026.225,0.055,0.337,0.086,0.2,0.056.39,0.121,0.582,0.191,0.1,0.037.206,0.07,0.306,0.112a7.971,7.971,0,0,1,.793.375c0.079,0.043.153,0.1,0.23,0.14,0.188,0.111.374,0.227,0.554,0.353,0.09,0.064.177,0.131,0.265,0.2,0.174,0.135.344,0.275,0.508,0.423,0.063,0.056.127,0.112,0.187,0.17a8.254,8.254,0,0,1,1.242,1.517,8.078,8.078,0,0,1,1.27,4.344v0.005c-0.071,0-.139.009-0.209,0.012C409.375,564.684,409.262,564.69,409.149,564.7Zm-14.394,6.6a0.345,0.345,0,0,0,.028.026,9.674,9.674,0,0,0,.749.682c0.092,0.076.191,0.142,0.286,0.214,0.173,0.131.347,0.261,0.529,0.379,0.126,0.083.256,0.158,0.386,0.235,0.163,0.1.328,0.19,0.5,0.276,0.137,0.069.275,0.137,0.416,0.2,0.175,0.079.354,0.15,0.534,0.219,0.14,0.053.278,0.107,0.42,0.153,0.2,0.066.406,0.118,0.613,0.171,0.128,0.032.253,0.071,0.382,0.1a9.547,9.547,0,0,0,.993.155c0.112,0.011.225,0.009,0.337,0.016,0.206,0.014.411,0.032,0.621,0.032,0.033,0,.067,0,0.1-0.006,0.188,0,.378-0.021.567-0.034s0.353-.022.531-0.046c0.054-.007.108-0.006,0.161-0.014v5.524h-4.088a4.42,4.42,0,0,0-4.063-4.055V571.3h0Zm23.094-24.94v10.221c-0.23.021-.457,0.049-0.679,0.084v-10.3h0.679Zm-2.038,0v10.617q-0.351.11-.679,0.241V546.356h0.679Zm-2.038,0v11.565a5.935,5.935,0,0,0-.679.539v-12.1h0.679Zm-22.415,36.61v-36.61h20.378V564.8h0c-0.223-.036-0.449-0.063-0.68-0.085,0-.017,0-0.034,0-0.051A9.4,9.4,0,0,0,409.7,559.8v-7.421l-0.742.067c-0.091.008-.183,0.014-0.277,0.014a3.057,3.057,0,0,1-3.056-3.051c0-.094.006-0.186,0.014-0.279l0.066-.737h-8.311l0.065,0.737c0.008,0.093.015,0.185,0.015,0.279a3.058,3.058,0,0,1-3.057,3.051c-0.094,0-.185-0.006-0.277-0.014l-0.742-.067V559.8c-0.009.015-.018,0.031-0.028,0.046-0.09.151-.178,0.3-0.26,0.461-0.106.2-.206,0.4-0.3,0.61-0.034.076-.061,0.155-0.092,0.232-0.079.2-.154,0.4-0.219,0.6-0.027.085-.051,0.17-0.076,0.255-0.059.2-.111,0.4-0.156,0.6-0.02.09-.04,0.18-0.057,0.271-0.04.21-.071,0.422-0.1,0.636-0.01.085-.024,0.168-0.032,0.254-0.029.3-.046,0.6-0.046,0.9s0.017,0.6.045,0.9c0.008,0.086.022,0.17,0.032,0.255,0.026,0.214.057,0.425,0.1,0.635,0.018,0.091.038,0.181,0.057,0.272q0.067,0.3.156,0.6c0.025,0.085.049,0.171,0.077,0.256,0.065,0.2.14,0.4,0.218,0.6,0.032,0.077.059,0.155,0.092,0.231,0.09,0.207.19,0.41,0.3,0.61,0.081,0.158.17,0.31,0.261,0.462,0.01,0.015.019,0.03,0.028,0.045v7.422l0.742-.067c0.092-.009.183-0.015,0.277-0.015a3.058,3.058,0,0,1,3.057,3.051c0,0.094-.007.187-0.015,0.279l-0.065.738h5.587c0.012,0.057.027,0.113,0.042,0.17s0.036,0.136.058,0.2,0.041,0.108.062,0.163a4.178,4.178,0,0,0,1.012,1.5h-12.8Zm15.2-.033c-0.068-.03-0.135-0.062-0.2-0.094-0.093-.046-0.186-0.093-0.274-0.142-0.059-.033-0.114-0.068-0.17-0.1a4.994,4.994,0,0,1-.447-0.3c-0.046-.036-0.1-0.071-0.142-0.108-0.062-.052-0.118-0.106-0.176-0.16s-0.108-.1-0.158-0.155-0.093-.1-0.137-0.156-0.1-.124-0.145-0.187c-0.033-.047-0.067-0.094-0.1-0.142a2.588,2.588,0,0,1-.136-0.253c-0.015-.032-0.034-0.061-0.047-0.093a2.172,2.172,0,0,1-.115-0.362c-0.007-.031-0.008-0.064-0.014-0.1a2.044,2.044,0,0,1-.021-0.207c0.028,0.026.062,0.049,0.091,0.075,0.1,0.087.206,0.172,0.315,0.254,0.061,0.046.122,0.092,0.186,0.136,0.119,0.084.245,0.162,0.374,0.239,0.06,0.036.117,0.073,0.179,0.108,0.193,0.108.393,0.21,0.6,0.3l0.023,0.008c0.2,0.091.415,0.173,0.633,0.248,0.075,0.026.152,0.048,0.228,0.072,0.156,0.049.315,0.1,0.478,0.14,0.09,0.023.181,0.044,0.273,0.065,0.158,0.036.318,0.068,0.481,0.1,0.095,0.017.189,0.034,0.285,0.048,0.176,0.026.356,0.046,0.537,0.064,0.086,0.008.17,0.019,0.256,0.024,0.268,0.022.541,0.034,0.819,0.034s0.55-.012.819-0.032c0.087-.006.17-0.017,0.257-0.025,0.181-.018.36-0.038,0.536-0.064,0.1-.014.191-0.031,0.285-0.047,0.164-.029.324-0.062,0.481-0.1,0.093-.021.184-0.042,0.274-0.066,0.163-.042.321-0.089,0.478-0.139,0.076-.025.153-0.046,0.227-0.072q0.327-.114.632-0.247l0.024-.01c0.21-.093.41-0.2,0.6-0.3,0.062-.035.119-0.072,0.178-0.108,0.129-.077.254-0.156,0.374-0.239,0.064-.044.125-0.09,0.187-0.137,0.109-.081.213-0.166,0.314-0.253,0.029-.026.063-0.049,0.091-0.075a1.713,1.713,0,0,1-.022.212c0,0.017,0,.035-0.008.052a2.172,2.172,0,0,1-.116.372v0a3.125,3.125,0,0,1-1,1.249l-0.04.03a4.99,4.99,0,0,1-.466.316c-0.033.02-.064,0.042-0.1,0.061l-0.014.008a8.222,8.222,0,0,1-3.992.967A8.523,8.523,0,0,1,406.557,582.933Zm12.311,0.711a8.715,8.715,0,0,1-3.095-.545,4.574,4.574,0,0,0,.878-1.043l0.037,0.006c0.314,0.067.634,0.116,0.957,0.153,0.072,0.008.143,0.014,0.214,0.02,0.333,0.032.669,0.053,1.009,0.053,0.278,0,.55-0.012.819-0.032,0.087-.006.171-0.017,0.257-0.025,0.181-.018.36-0.038,0.536-0.064,0.1-.014.191-0.031,0.286-0.047,0.163-.029.323-0.062,0.481-0.1,0.092-.021.183-0.042,0.273-0.066,0.163-.042.321-0.089,0.478-0.139,0.076-.025.153-0.046,0.227-0.072,0.218-.076.43-0.158,0.632-0.247l0.025-.01c0.209-.093.409-0.2,0.6-0.3,0.062-.035.119-0.072,0.179-0.108,0.128-.077.254-0.156,0.373-0.239,0.064-.044.125-0.09,0.187-0.137,0.109-.081.213-0.166,0.314-0.253,0.032-.028.07-0.054,0.1-0.082C424.535,582.154,421.935,583.644,418.868,583.644Z" transform="translate(-390 -545)"/>
</svg>
