<svg xmlns="http://www.w3.org/2000/svg" width="40" height="39" viewBox="0 0 40 39">
  <defs>
    <style>
      .cls-1 {
        fill: #0088d2;
        fill-rule: evenodd;
      }
    </style>
  </defs>
  <path class="cls-1" d="M427.369,746.977a0.63,0.63,0,0,0-.626.632v4.127h-7.524a3.154,3.154,0,0,1,.8-3.411,1.987,1.987,0,0,1,1.336-2.7,1.973,1.973,0,0,0-1.963-1.979h-0.175a1.98,1.98,0,0,0-1.829-2.7h-6.354l1.746-1.376a1.994,1.994,0,0,0,.338-2.779,1.953,1.953,0,0,0-2.754-.341l-5.7,4.5H402.61v-1.39a0.63,0.63,0,0,0-.627-0.631H390.626a0.629,0.629,0,0,0-.626.631v12.8a0.629,0.629,0,0,0,.626.632h11.357a0.619,0.619,0,0,1,.71,0h24.676a0.63,0.63,0,0,0,.627-0.632v-4.759A0.63,0.63,0,0,0,427.369,746.977Zm-26.012,4.759h-10.1V740.2h10.1v11.539Zm16.7-2.695h-6.012a0.632,0.632,0,0,0,0,1.263h5.344a0.716,0.716,0,0,1,0,1.432h-14.7a0.754,0.754,0,0,0-.083.006v-9.524h2.254a0.625,0.625,0,0,0,.365-0.119,0.6,0.6,0,0,0,.088-0.057l5.82-4.588a0.706,0.706,0,0,1,1,.123,0.721,0.721,0,0,1-.122,1l-3.126,2.464a0.635,0.635,0,0,0-.173.783,0.626,0.626,0,0,0,.578.389h8.1a0.716,0.716,0,0,1,0,1.432h-5.344a0.632,0.632,0,0,0,0,1.263h7.348a0.716,0.716,0,0,1,0,1.432h-7.348a0.632,0.632,0,0,0,0,1.264h6.012A0.716,0.716,0,0,1,418.058,749.041ZM429.374,714H390.71a0.631,0.631,0,0,0-.627.633V720.7a0.63,0.63,0,0,0,.627.632h1.378V737.5a0.626,0.626,0,1,0,1.252,0V721.328h3.341a0.632,0.632,0,0,0,0-1.264h-5.345v-4.8h37.411v4.8H399.353a0.632,0.632,0,0,0,0,1.264h27.39v23.585a0.627,0.627,0,1,0,1.253,0V721.328h1.378A0.63,0.63,0,0,0,430,720.7v-6.064A0.63,0.63,0,0,0,429.374,714Zm-5.929,8.761H396.722a0.629,0.629,0,0,0-.626.632v8.086a0.629,0.629,0,0,0,.626.632h26.723a0.63,0.63,0,0,0,.626-0.632v-8.086A0.63,0.63,0,0,0,423.445,722.76Zm-0.627,8.086H397.349v-6.822h25.469v6.822h0Zm-22.087-5.433a0.63,0.63,0,0,0-.627.632v2.7a0.627,0.627,0,1,0,1.253,0v-2.7A0.629,0.629,0,0,0,400.731,725.413Zm1.92,0a0.629,0.629,0,0,0-.626.632v2.7a0.627,0.627,0,1,0,1.253,0v-2.7A0.63,0.63,0,0,0,402.651,725.413Zm4.76,0a0.629,0.629,0,0,0-.626.632v2.7a0.626,0.626,0,1,0,1.252,0v-2.7A0.629,0.629,0,0,0,407.411,725.413Zm2.672,0a0.63,0.63,0,0,0-.626.632v2.7a0.627,0.627,0,1,0,1.253,0v-2.7A0.63,0.63,0,0,0,410.083,725.413Zm2.673,0a0.63,0.63,0,0,0-.627.632v2.7a0.627,0.627,0,1,0,1.253,0v-2.7A0.629,0.629,0,0,0,412.756,725.413Zm6.68,0a0.629,0.629,0,0,0-.626.632v2.7a0.626,0.626,0,1,0,1.252,0v-2.7A0.629,0.629,0,0,0,419.436,725.413Zm-2.087,0a0.63,0.63,0,0,0-.627.632v2.7a0.627,0.627,0,1,0,1.253,0v-2.7A0.63,0.63,0,0,0,417.349,725.413Zm-18.664,21.564a1.98,1.98,0,1,0,1.962,1.979A1.974,1.974,0,0,0,398.685,746.977Zm0,2.7a0.716,0.716,0,1,1,.71-0.716A0.713,0.713,0,0,1,398.685,749.672Zm-4.677-2.7a1.98,1.98,0,1,0,1.963,1.979A1.973,1.973,0,0,0,394.008,746.977Zm0,2.7a0.716,0.716,0,1,1,.71-0.716A0.714,0.714,0,0,1,394.008,749.672Z" transform="translate(-390 -714)"/>
</svg>
