<svg xmlns="http://www.w3.org/2000/svg" width="20" height="20" viewBox="0 0 20 20">
  <defs>
    <style>
      .cls-1 {
        fill: #0088d2;
        fill-rule: evenodd;
      }
    </style>
  </defs>
  <path id="Forma_1" data-name="Forma 1" class="cls-1" d="M483.99,9347.78a0.968,0.968,0,0,1-.3.85l-2.816,2.8a1.622,1.622,0,0,1-.5.36,2.08,2.08,0,0,1-.6.19,0.864,0.864,0,0,0-.127.01,2.182,2.182,0,0,1-.276.01,10.2,10.2,0,0,1-1.3-.14,9.812,9.812,0,0,1-2.2-.68,18.485,18.485,0,0,1-2.953-1.62,22.315,22.315,0,0,1-3.515-2.96,23.7,23.7,0,0,1-2.456-2.8,19.756,19.756,0,0,1-1.567-2.47,13.27,13.27,0,0,1-.889-2.05,11.4,11.4,0,0,1-.4-1.59,5.291,5.291,0,0,1-.085-1.05c0.014-.25.021-0.4,0.021-0.42a2.144,2.144,0,0,1,.191-0.61,1.7,1.7,0,0,1,.36-0.5l2.816-2.81a0.925,0.925,0,0,1,.677-0.3,0.765,0.765,0,0,1,.487.16,1.462,1.462,0,0,1,.36.39l2.266,4.3a1.032,1.032,0,0,1,.106.74,1.314,1.314,0,0,1-.36.68l-1.038,1.04a0.333,0.333,0,0,0-.074.14,0.478,0.478,0,0,0-.032.16,3.9,3.9,0,0,0,.381,1.01,9.515,9.515,0,0,0,.784,1.24,19.564,19.564,0,0,0,3.2,3.2,10.046,10.046,0,0,0,1.238.8,3.392,3.392,0,0,0,.763.3l0.264,0.06a0.352,0.352,0,0,0,.138-0.04,0.328,0.328,0,0,0,.138-0.07l1.206-1.23a1.282,1.282,0,0,1,.89-0.34,1.053,1.053,0,0,1,.571.13h0.021l4.087,2.41A1.087,1.087,0,0,1,483.99,9347.78Z" transform="translate(-464 -9332)"/>
</svg>
