<svg xmlns="http://www.w3.org/2000/svg" width="15" height="20" viewBox="0 0 15 20">
  <defs>
    <style>
      .cls-1 {
        fill: #0088d2;
        fill-rule: evenodd;
      }
    </style>
  </defs>
  <path id="Forma_1" data-name="Forma 1" class="cls-1" d="M473.5,9241a7.438,7.438,0,0,0-7.5,7.36,7.105,7.105,0,0,0,.656,3.01,46.418,46.418,0,0,0,6.528,9.49,0.427,0.427,0,0,0,.632,0,46.5,46.5,0,0,0,6.528-9.49,7.105,7.105,0,0,0,.656-3.01A7.439,7.439,0,0,0,473.5,9241Zm0,11.19a3.826,3.826,0,1,1,3.895-3.83A3.869,3.869,0,0,1,473.5,9252.19Z" transform="translate(-466 -9241)"/>
</svg>
