<svg xmlns="http://www.w3.org/2000/svg" width="25" height="32" viewBox="0 0 25 32">
  <defs>
    <style>
      .cls-1 {
        fill: #c46325;
        fill-rule: evenodd;
      }
    </style>
  </defs>
  <path id="прайс" class="cls-1" d="M547.241,2632H530v32h25v-24.22Zm0.312,1.82,5.631,5.65h-5.631v-5.65Zm-16.489,29.11v-29.86h15.425v7.46h7.447v22.4H531.064Zm4.255-21.86h4.787a0.535,0.535,0,0,0,0-1.07h-4.787A0.535,0.535,0,0,0,535.319,2641.07Zm9.043,10.66h-9.043a0.535,0.535,0,0,0,0,1.07h9.043A0.535,0.535,0,0,0,544.362,2651.73Zm5.319-3.73h-3.724a0.535,0.535,0,0,0,0,1.07h3.724A0.535,0.535,0,0,0,549.681,2648Zm-14.362-2.67h2.66a0.533,0.533,0,0,0,.532-0.53,0.527,0.527,0,0,0-.532-0.53h-2.66a0.526,0.526,0,0,0-.532.53A0.533,0.533,0,0,0,535.319,2645.33Zm7.979,0h3.723a0.533,0.533,0,0,0,.532-0.53,0.526,0.526,0,0,0-.532-0.53H543.3a0.526,0.526,0,0,0-.532.53A0.533,0.533,0,0,0,543.3,2645.33Zm-3.192-.53a0.559,0.559,0,0,0,.155.38,0.55,0.55,0,0,0,.755,0,0.546,0.546,0,0,0,0-.76,0.55,0.55,0,0,0-.755,0A0.559,0.559,0,0,0,540.106,2644.8Zm-2.127,3.2a0.535,0.535,0,0,0,0,1.07H543.3a0.535,0.535,0,0,0,0-1.07h-5.319Zm-2.66,1.07a0.547,0.547,0,0,0,.378-0.16,0.546,0.546,0,0,0,0-.76,0.573,0.573,0,0,0-.756,0,0.546,0.546,0,0,0,0,.76A0.549,0.549,0,0,0,535.319,2649.07Zm14.362,6.4h-3.724a0.526,0.526,0,0,0-.531.53,0.532,0.532,0,0,0,.531.53h3.724a0.533,0.533,0,0,0,.532-0.53A0.527,0.527,0,0,0,549.681,2655.47Zm-6.383,0h-5.319a0.526,0.526,0,0,0-.532.53,0.533,0.533,0,0,0,.532.53H543.3a0.533,0.533,0,0,0,.532-0.53A0.527,0.527,0,0,0,543.3,2655.47Zm-8.357.15a0.563,0.563,0,0,0-.154.38,0.536,0.536,0,0,0,.154.38,0.587,0.587,0,0,0,.378.15,0.573,0.573,0,0,0,.378-0.15,0.563,0.563,0,0,0,.154-0.38,0.521,0.521,0,0,0-.154-0.37A0.542,0.542,0,0,0,534.941,2655.62Zm14.362-11.2a0.546,0.546,0,0,0,0,.76,0.55,0.55,0,0,0,.755,0,0.543,0.543,0,0,0,0-.76A0.55,0.55,0,0,0,549.3,2644.42Zm-1.9,8.22a0.534,0.534,0,0,0,.154-0.37,0.558,0.558,0,0,0-.154-0.38,0.55,0.55,0,0,0-.755,0,0.559,0.559,0,0,0-.155.38,0.535,0.535,0,0,0,.155.37,0.5,0.5,0,0,0,.377.16A0.536,0.536,0,0,0,547.4,2652.64Zm1.9-.75a0.558,0.558,0,0,0-.154.38,0.532,0.532,0,0,0,1.064,0,0.559,0.559,0,0,0-.155-0.38A0.55,0.55,0,0,0,549.3,2651.89Z" transform="translate(-530 -2632)"/>
</svg>
