<svg xmlns="http://www.w3.org/2000/svg" width="40" height="40" viewBox="0 0 40 40">
  <defs>
    <style>
      .cls-1 {
        fill: #0088d2;
        fill-rule: evenodd;
      }
    </style>
  </defs>
  <path id="_5" data-name="5" class="cls-1" d="M588.795,6981.89l-2.138-.89a0.153,0.153,0,0,0-.088-0.03l-1.294-.33v-0.77a9.4,9.4,0,0,1,2.338.67,0.589,0.589,0,0,0,.259.05,0.627,0.627,0,0,0,.526-0.28c0.015-.02.029-0.03,0.042-0.05a9.616,9.616,0,0,0,1.933-5.87c0-4.83-3.355-8.75-7.48-8.75s-7.479,3.92-7.479,8.75a9.605,9.605,0,0,0,2.008,5.97,0.012,0.012,0,0,1,.013.01c0.005,0.01.011,0.01,0.016,0.02s0.03,0.03.046,0.04a0.243,0.243,0,0,0,.014.02,0.886,0.886,0,0,0,.223.12h0.012a0.18,0.18,0,0,0,.072.01,0.011,0.011,0,0,0,.012.01H578a0.037,0.037,0,0,1,.03-0.01,0.23,0.23,0,0,0,.08-0.02c0.009,0,.019-0.01.028-0.01s0.023-.01.034-0.01a9.807,9.807,0,0,1,2.331-.67v0.76l-1.38.33a0.362,0.362,0,0,0-.1.04l-2.138.89a4.626,4.626,0,0,0-2.891,4.45v3.03a0.629,0.629,0,0,0,.631.63h16.425a0.637,0.637,0,0,0,.631-0.64v-3.02A4.625,4.625,0,0,0,588.795,6981.89Zm-10.666-2.7a8.4,8.4,0,0,1-1.454-4.8c0-4.13,2.79-7.49,6.219-7.49s6.218,3.36,6.218,7.49a8.4,8.4,0,0,1-1.453,4.8,12.3,12.3,0,0,0-1.241-.38,4.166,4.166,0,0,0,.966-1.99,2.047,2.047,0,0,0,.026-4.02,0.623,0.623,0,0,0-.46-0.38,5.889,5.889,0,0,1-3.543-1.97,0.631,0.631,0,0,0-.965-0.07,8.857,8.857,0,0,1-3.637,2.04,0.656,0.656,0,0,0-.426.38,2.047,2.047,0,0,0,.024,4.02,4.166,4.166,0,0,0,.966,1.99A12.274,12.274,0,0,0,578.129,6979.19Zm9.325-3.74v-1.29a0.783,0.783,0,0,1,.342.65A0.765,0.765,0,0,1,587.454,6975.45Zm-9.121-1.29v1.29a0.768,0.768,0,0,1-.342-0.64A0.786,0.786,0,0,1,578.333,6974.16Zm1.261,1.9v-2.56a10.29,10.29,0,0,0,3.261-1.78,7.624,7.624,0,0,0,3.338,1.82v2.52a2.921,2.921,0,0,1-2.915,2.92h-0.769A2.921,2.921,0,0,1,579.594,6976.06Zm1.689,5.69a0.641,0.641,0,0,0,.484-0.62v-0.96a3.647,3.647,0,0,0,.742.07h0.769a3.588,3.588,0,0,0,.736-0.07v0.96a0.627,0.627,0,0,0,.477.61l1.211,0.31-0.107.38a5.333,5.333,0,0,1-5.4.01l-0.115-.41Zm-1.046,6.99h-2.075v-2.54a0.631,0.631,0,0,0-1.261,0v2.54h-1.64v-2.4a3.342,3.342,0,0,1,2.055-3.26c0.014-.01.028-0.01,0.041-0.02l1.523-.63,0.164,0.58v0.01l1.6,5.72h-0.408Zm3.6,0h-1.877l-1.316-4.71a6.632,6.632,0,0,0,2.268.41,6.55,6.55,0,0,0,2.242-.41Zm6.594,0h-1.64v-2.54a0.631,0.631,0,0,0-1.262,0v2.54h-2.382l1.755-6.28,1.432,0.6c0.012,0.01.027,0.01,0.038,0.02a3.337,3.337,0,0,1,2.059,3.26v2.4h0Zm-6.23-29.03h2.843v2.93a0.643,0.643,0,0,0,.41.6,0.836,0.836,0,0,0,.22.04,0.636,0.636,0,0,0,.477-0.22l1.323-1.53a0.63,0.63,0,0,0,.6.43H596.9l2.9,3.35a0.626,0.626,0,0,0,.477.21,0.563,0.563,0,0,0,.22-0.04,0.62,0.62,0,0,0,.41-0.59v-2.93h2.843a0.638,0.638,0,0,0,.631-0.64v-8.44a0.629,0.629,0,0,0-.631-0.63h-5.239v-1.62a0.629,0.629,0,0,0-.63-0.63H584.2a0.629,0.629,0,0,0-.631.63v8.45A0.635,0.635,0,0,0,584.2,6959.71Zm0.63-8.45h12.42v0.99h-1.092a0.63,0.63,0,1,0,0,1.26h6.962v7.18h-2.844a0.629,0.629,0,0,0-.63.63v1.88l-1.981-2.29a0.627,0.627,0,0,0-.476-0.22H590.7v-7.18h3.356a0.63,0.63,0,1,0,0-1.26h-3.987a0.629,0.629,0,0,0-.631.63v6.76l-1.134,1.31v-1.87a0.637,0.637,0,0,0-.631-0.64h-2.843v-7.18h0Zm26.283,30.59-2.105-.88-1.415-.94v-0.35a4.176,4.176,0,0,0,2.1-2.91,2.037,2.037,0,0,0,1.149-3.37v-1.99a5.45,5.45,0,0,0-5.443-5.45H605a5.45,5.45,0,0,0-5.443,5.45v2a2.037,2.037,0,0,0,1.157,3.36,4.176,4.176,0,0,0,2.105,2.91v0.31l-1.42.94a0.127,0.127,0,0,1-.055.02l-2.139.9a4.626,4.626,0,0,0-2.891,4.45v3.03a0.635,0.635,0,0,0,.631.63h4.141a0.629,0.629,0,0,0,.631-0.63,0.638,0.638,0,0,0-.631-0.64h-0.61v-2.53a0.631,0.631,0,0,0-1.261,0v2.53h-1.64v-2.39a3.327,3.327,0,0,1,2.055-3.26c0.014-.01.028-0.01,0.041-0.02l1.523-.64,1.77,6.33a0.633,0.633,0,0,0,.14,1.25h10.266a0.638,0.638,0,0,0,.631-0.64v-3.02A4.626,4.626,0,0,0,611.109,6981.85Zm-1.345-7.73a0.779,0.779,0,0,1,0,1.29v-1.29Zm-9.121,1.29a0.779,0.779,0,0,1,0-1.29v1.29Zm0.633-3.05h-0.067a0.019,0.019,0,0,0-.019.01h-0.043c-0.009,0-.018.01-0.027,0.01a0.042,0.042,0,0,0-.033.01,0.035,0.035,0,0,0-.03.01,0.032,0.032,0,0,0-.028.01c-0.012,0-.023.01-0.034,0.01s-0.014.01-.021,0.02-0.022.01-.033,0.01-0.013.01-.019,0.02a0.053,0.053,0,0,0-.03.02c-0.006,0-.013.01-0.019,0.01l-0.025.03c-0.007,0-.013.01-0.019,0.01a0.2,0.2,0,0,0-.011.02v-1.15a4.189,4.189,0,0,1,4.181-4.19h0.4a4.191,4.191,0,0,1,4.182,4.19v1.14c0-.01-0.011-0.01-0.016-0.02s-0.016-.01-0.025-0.02-0.014-.01-0.021-0.02a0.048,0.048,0,0,1-.027-0.02c-0.008,0-.016-0.01-0.023-0.01s-0.019-.01-0.028-0.02a0.034,0.034,0,0,0-.029-0.01c-0.008-.01-0.016-0.01-0.025-0.02s-0.024-.01-0.035-0.01-0.015-.01-0.023-0.01-0.026-.01-0.04-0.01a0.015,0.015,0,0,1-.016-0.01,2.792,2.792,0,0,1-1.723-2.01,0.63,0.63,0,0,0-1.126-.23C604.832,6972.34,601.323,6972.36,601.276,6972.36Zm0.628,3.65v-2.42a8.445,8.445,0,0,0,4.814-1.9,3.672,3.672,0,0,0,1.785,1.76v2.56a2.921,2.921,0,0,1-2.915,2.92h-0.769A2.921,2.921,0,0,1,601.9,6976.01Zm2.771,8.18,0.5-.37,0.516,0.38-0.164.44h-0.664Zm0.5-2.07-1.1-1.07v-0.71h0v-0.21a4.492,4.492,0,0,0,.739.07h0.769a4.492,4.492,0,0,0,.739-0.07v0.8Zm-1.556,4.27-0.339-1.21a0.806,0.806,0,0,0,.151-0.08l0.193-.14,0.163,0.39Zm-0.325-2.76-0.9-1.85,0.443-.29a0.651,0.651,0,0,0,.165.28l1.213,1.18Zm1.231,5.06,0.451-2.79h0.445l0.451,2.79H604.53Zm2.882-7.07a0.534,0.534,0,0,0,.1-0.13l0.442,0.29-0.9,1.85-0.215-.16h0l-0.7-.52Zm-0.626,4.79-0.173-1.08,0.134-.35,0.167,0.12a0.576,0.576,0,0,0,.209.1Zm5.953,2.28H611.1v-2.53a0.631,0.631,0,0,0-1.261,0v2.53h-2.383l1.755-6.27,1.432,0.6c0.012,0,.027.01,0.038,0.01a3.357,3.357,0,0,1,2.059,3.27v2.39h0Z" transform="translate(-574 -6950)"/>
</svg>
