<svg xmlns="http://www.w3.org/2000/svg" width="29" height="40" viewBox="0 0 29 40">
  <defs>
    <style>
      .cls-1 {
        fill: #94c63b;
        fill-rule: evenodd;
      }
    </style>
  </defs>
  <path id="_4" data-name="4" class="cls-1" d="M1231,6903.11V6891.9a3.291,3.291,0,0,0-3.27-3.3,3.254,3.254,0,0,0-1.61.43v-1.36a3.291,3.291,0,0,0-3.27-3.3,3.184,3.184,0,0,0-1.89.61,3.255,3.255,0,0,0-6.22.84,3.216,3.216,0,0,0-1.65-.45,3.291,3.291,0,0,0-3.27,3.3v14.35c-0.51-.64-1.15-1.44-1.93-2.41a3.9,3.9,0,0,0-3.01-1.62,2.823,2.823,0,0,0-2.48,1.42,3.865,3.865,0,0,0,.28,3.87c0.43,0.77.99,1.82,1.58,2.94,2.54,4.79,4.64,8.6,6.32,9.8v5.15a0.826,0.826,0,0,0,.82.83h17.15a0.826,0.826,0,0,0,.82-0.83v-5.36c0.01-.01.02-0.03,0.03-0.04C1230.91,6914.35,1231.02,6908.7,1231,6903.11Zm-3,12.77a0.879,0.879,0,0,1-.06.1,1.114,1.114,0,0,0-.22.76v4.59h-1.78v-2.32a0.82,0.82,0,1,0-1.64,0l-0.01,2.32h-1.78v-4.8a0.82,0.82,0,1,0-1.64,0v4.8h-1.78v-2.32a0.825,0.825,0,1,0-1.65,0v2.32h-1.78v-2.42a0.825,0.825,0,1,0-1.65,0v2.42h-1.78v-4.8a0.846,0.846,0,0,0-.53-0.78c-0.24-.09-0.98-0.59-2.63-3.28-1.13-1.84-2.31-4.07-3.35-6.03-0.63-1.18-1.17-2.2-1.62-2.99a2.272,2.272,0,0,1-.27-2.2,1.161,1.161,0,0,1,1.05-.59,2.3,2.3,0,0,1,1.73,1c2.23,2.8,3.39,4.2,3.41,4.21a0.809,0.809,0,0,0,.91.25,0.849,0.849,0,0,0,.54-0.79v-16.66a1.615,1.615,0,1,1,3.23,0v10.36a0.825,0.825,0,1,0,1.65,0V6886.3a1.62,1.62,0,1,1,3.24,0v12.73a0.82,0.82,0,1,0,1.64,0v-11.36a1.62,1.62,0,1,1,3.24,0v11.36a0.825,0.825,0,1,0,1.65,0v-7.13a1.615,1.615,0,1,1,3.23,0v11.22C1229.36,6906.81,1229.38,6913.67,1228,6915.88Zm-9.74-.18a0.826,0.826,0,0,0-.82.83v0.06a0.825,0.825,0,1,0,1.65,0v-0.06A0.828,0.828,0,0,0,1218.26,6915.7Zm6.86,0a0.82,0.82,0,0,0-.82.83v0.06a0.82,0.82,0,1,0,1.64,0v-0.06A0.826,0.826,0,0,0,1225.12,6915.7Zm-9.46-11.36a51.941,51.941,0,0,1,7.27.02h0.05a0.831,0.831,0,0,0,.05-1.66,52.773,52.773,0,0,0-7.54-.02,0.832,0.832,0,0,0-.73.92A0.821,0.821,0,0,0,1215.66,6904.34Zm9.59,0.24h0.05a0.487,0.487,0,0,0,.12.01,0.836,0.836,0,0,0,.12-1.66h-0.05a0.832,0.832,0,0,0-.94.7A0.843,0.843,0,0,0,1225.25,6904.58Zm0.29,1.69a56.151,56.151,0,0,0-10.05-.26,0.832,0.832,0,0,0-.73.92,0.814,0.814,0,0,0,.9.74,54.544,54.544,0,0,1,9.64.25c0.04,0,.08.01,0.12,0.01A0.836,0.836,0,0,0,1225.54,6906.27Zm0,3.33a56.246,56.246,0,0,0-10.05-.25,0.829,0.829,0,0,0,.17,1.65,55.521,55.521,0,0,1,9.64.25,0.487,0.487,0,0,0,.12.01A0.836,0.836,0,0,0,1225.54,6909.6Z" transform="translate(-1202 -6883)"/>
</svg>
