<svg xmlns="http://www.w3.org/2000/svg" width="40" height="37" viewBox="0 0 40 37">
  <defs>
    <style>
      .cls-1 {
        fill: #0088d2;
        fill-rule: evenodd;
      }
    </style>
  </defs>
  <path id="_3" data-name="3" class="cls-1" d="M524.71,6846.89h0V6827.1a2.575,2.575,0,0,0-2.581-2.56h-3.148c-0.016-.05-0.029-0.11-0.047-0.17l-0.555.17h-2.7v-1.03l-8.35-4.13-11,4.08v1.08h-2.974l-0.308-.09c-0.009.03-.015,0.06-0.024,0.09h-3.145a2.575,2.575,0,0,0-2.581,2.56v19.79H486v2.56a2.572,2.572,0,0,0,2.581,2.55h34.838a2.572,2.572,0,0,0,2.581-2.55v-2.56h-1.29Zm-16.775-25.78,5.485,2.71-5.485,2.04v-4.75Zm0,6.11,6.452-2.39v6.98l-6.452-3.19v-1.4Zm5.486,5.54-8.066,2.99v-5.34l1.9-.7Zm-8.066-3.71v-0.87l1.29-.48v0.87Zm1.29-8.05v5.34l-1.9.7-6.167-3.05Zm-9.032,3.94,6.451,3.19v1.4l-6.451,2.39v-6.98Zm6.451,5.95v4.75l-5.484-2.71Zm0.609,6.48,11-4.08v-4.92h2.581a12.052,12.052,0,0,1-.135,1.81l1.276,0.19a13.566,13.566,0,0,0,.149-2h1.291v15.97H491.161v-15.97h5.161v4.87Zm-16.092-10.27a1.283,1.283,0,0,1,1.29-1.28h2.835c-0.038.2-.08,0.39-0.109,0.58l1.276,0.19c0.039-.26.09-0.51,0.146-0.77h2.3v1.28h-6.451v18.51h32.258V6827.1h-6.452v-1.28h2.3c0.05,0.23.1,0.46,0.135,0.7l1.276-.2c-0.026-.16-0.065-0.33-0.1-0.5h2.835a1.283,1.283,0,0,1,1.29,1.28v19.79H507.935v1.28h-3.87v-1.28H488.581V6827.1Zm36.129,22.35h0a1.282,1.282,0,0,1-1.291,1.27H488.581a1.282,1.282,0,0,1-1.291-1.27v-1.28h15.484a1.291,1.291,0,0,0,1.291,1.28h3.87a1.291,1.291,0,0,0,1.291-1.28H524.71v1.28Zm-26.377-30.54-0.807-1a13.915,13.915,0,0,0-1.48,1.37l0.948,0.86A12.911,12.911,0,0,1,498.333,6818.91Zm3.155-1.82-0.475-1.19a13.857,13.857,0,0,0-1.82.88l0.649,1.1A12.624,12.624,0,0,1,501.488,6817.09Zm-5.634,4.47-1.067-.71a13.236,13.236,0,0,0-1.01,1.73l1.164,0.55A12.334,12.334,0,0,1,495.854,6821.56Zm22.333,0.95a13.3,13.3,0,0,0-1.02-1.73l-1.062.72a12.4,12.4,0,0,1,.922,1.57Zm-24.445,5.89h-1.29a13.367,13.367,0,0,0,.153,2l1.276-.19A12.155,12.155,0,0,1,493.742,6828.4Zm21.215-8.31,0.942-.87a13.705,13.705,0,0,0-1.487-1.36l-0.8,1A12.8,12.8,0,0,1,514.957,6820.09Zm-2.221-3.35a15.194,15.194,0,0,0-1.826-.87l-0.469,1.19a12.711,12.711,0,0,1,1.653.79Zm-3.764-1.45a13.465,13.465,0,0,0-2-.29l-0.092,1.27a12.221,12.221,0,0,1,1.812.27Zm-3.926.99-0.1-1.27a13.384,13.384,0,0,0-2,.3l0.289,1.24A13.631,13.631,0,0,1,505.046,6816.28Zm9.407,22.57-0.8-.99a12.911,12.911,0,0,1-1.512,1.02l0.647,1.1A12.883,12.883,0,0,0,514.453,6838.85Zm-3.492,2.01-0.472-1.19a11.793,11.793,0,0,1-1.749.53l0.287,1.25A14.257,14.257,0,0,0,510.961,6840.86Zm6.237-4.93-1.066-.72a12.691,12.691,0,0,1-1.143,1.41l0.946,0.87A13.457,13.457,0,0,0,517.2,6835.93Zm1.752-3.61-1.233-.37a12.488,12.488,0,0,1-.668,1.69l1.162,0.55A12.865,12.865,0,0,0,518.95,6832.32Zm-15.664,7.89a11.854,11.854,0,0,1-1.751-.53l-0.47,1.19a13.073,13.073,0,0,0,1.937.58Zm3.74,1.54-0.1-1.28a11.218,11.218,0,0,1-1.833,0L505,6841.75q0.5,0.03,1,.03Q506.518,6841.78,507.026,6841.75Zm-7.142-2.86a11.87,11.87,0,0,1-1.514-1.02l-0.8,1a12.983,12.983,0,0,0,1.673,1.13Zm-5.067-2.94a13.678,13.678,0,0,0,1.264,1.56l0.945-.87a11.853,11.853,0,0,1-1.145-1.42Zm-0.527-3.98-1.233.38a13.117,13.117,0,0,0,.744,1.86l1.161-.55A11.661,11.661,0,0,1,494.29,6831.97Z" transform="translate(-486 -6815)"/>
</svg>
