<svg xmlns="http://www.w3.org/2000/svg" width="40" height="34" viewBox="0 0 40 34">
  <defs>
    <style>
      .cls-1 {
        fill: #94c63b;
        fill-rule: evenodd;
      }
    </style>
  </defs>
  <path id="_3" data-name="3" class="cls-1" d="M1170.17,6839.9v-0.07a0.835,0.835,0,1,0-1.67,0v0.07A0.835,0.835,0,1,0,1170.17,6839.9Zm16.69-9.74a0.835,0.835,0,0,0-.38,1.13,12.364,12.364,0,0,1,1.19,5.25v2.88a0.83,0.83,0,1,0,1.66,0v-2.88a13.969,13.969,0,0,0-1.36-6A0.815,0.815,0,0,0,1186.86,6830.16Zm-0.25-1.87-0.05-.07a0.833,0.833,0,0,0-1.17-.16,0.868,0.868,0,0,0-.16,1.2l0.05,0.06a0.825,0.825,0,0,0,.67.34,0.808,0.808,0,0,0,.5-0.18A0.854,0.854,0,0,0,1186.61,6828.29Zm9.39,11.39a3.972,3.972,0,0,0-3.35-3.95,17.223,17.223,0,0,0-2.67-8.46,16.781,16.781,0,0,0-6.48-5.93v-1.33a0.837,0.837,0,0,0-.52-0.78,17.776,17.776,0,0,0-4.36-1.22,0.83,0.83,0,0,0-.67.2,0.847,0.847,0,0,0-.28.64v0.75a16.944,16.944,0,0,0-3.34,0v-0.75a0.847,0.847,0,0,0-.28-0.64,0.83,0.83,0,0,0-.67-0.2,17.776,17.776,0,0,0-4.36,1.22,0.837,0.837,0,0,0-.52.78v1.33a16.781,16.781,0,0,0-6.48,5.93,17.223,17.223,0,0,0-2.67,8.46,3.972,3.972,0,0,0-3.35,3.95v3.2c0,0.02.01,0.03,0.01,0.05v0.04c0.01,0.02.01,0.04,0.02,0.06v0.02c1.03,3.92,2.93,6.23,6.17,7.49,3.14,1.22,7.61,1.46,13.8,1.46s10.66-.24,13.8-1.46c3.24-1.26,5.14-3.57,6.17-7.49v-0.02c0.01-.02.01-0.04,0.02-0.06v-0.04c0-.02.01-0.03,0.01-0.05v-3.2h0Zm-12.5-16.41a15.447,15.447,0,0,1,7.5,13.27v5.43h-7.5v-18.7Zm-9.17-1.95a14.351,14.351,0,0,1,3.34,0v6.87a1.67,1.67,0,1,1-3.34,0v-6.87ZM1161,6836.54a15.447,15.447,0,0,1,7.5-13.27v14.09a0.835,0.835,0,1,0,1.67,0v-16.77a16.65,16.65,0,0,1,2.5-.73v8.33a3.331,3.331,0,1,0,6.66,0v-8.33a16.65,16.65,0,0,1,2.5.73v21.38H1161v-5.43Zm-3.33,3.14a2.274,2.274,0,0,1,1.66-2.21v4.5h-1.66v-2.29Zm31.54,9.27c-2.91,1.12-7.21,1.35-13.21,1.35s-10.3-.23-13.21-1.35a7.679,7.679,0,0,1-4.83-5.27h36.08A7.679,7.679,0,0,1,1189.21,6848.95Zm5.12-6.98h-1.66v-4.5a2.286,2.286,0,0,1,1.66,2.21v2.29Z" transform="translate(-1156 -6818)"/>
</svg>
