<svg xmlns="http://www.w3.org/2000/svg" width="39" height="40" viewBox="0 0 39 40">
  <defs>
    <style>
      .cls-1 {
        fill: #0088d2;
        fill-rule: evenodd;
      }
    </style>
  </defs>
  <path id="_1" data-name="1" class="cls-1" d="M441.329,6723.7h-4.554v-1.34c0-3.06-.839-5.42-2.492-7.02a7.477,7.477,0,0,0-4.861-2.04h-3.357v-1.98a0.676,0.676,0,0,0-.009-0.1,9.376,9.376,0,0,0,4.335-3.56c0.142-.21.271-0.42,0.39-0.63a4.034,4.034,0,0,0,3.871-3.98,3.884,3.884,0,0,0-.643-2.14,5.957,5.957,0,0,0,.012-1.36,1.676,1.676,0,0,0-.661-1.2,2.416,2.416,0,0,0-.9-0.39v-6.45a4.334,4.334,0,0,0-2.786-4.38,0.91,0.91,0,0,1-.483-1.24,0.65,0.65,0,0,0-.26-0.79,0.7,0.7,0,0,0-.841.09c-1.062,1.05-2.186,1.02-4.224.97a32.5,32.5,0,0,0-5.518.25,6.243,6.243,0,0,0-5.242,3.9,8.107,8.107,0,0,0-.581,3.17v4.28a0.6,0.6,0,0,0,.032.19,2.439,2.439,0,0,0-.935.4,1.676,1.676,0,0,0-.661,1.2,4.362,4.362,0,0,0,.826,3.28,2.392,2.392,0,0,0,1.221.7v0.14a0.546,0.546,0,0,0,.007.09,10.585,10.585,0,0,0,1.592,3.9,9.376,9.376,0,0,0,4.335,3.56,0.676,0.676,0,0,0-.009.1v1.98h-3.352a7.47,7.47,0,0,0-4.866,2.04c-1.653,1.6-2.492,3.96-2.492,7.02v1.34H403.67a0.65,0.65,0,1,0,0,1.3h37.659A0.65,0.65,0,1,0,441.329,6723.7Zm-11.9-9.1h0a6.163,6.163,0,0,1,3.911,1.66c1.391,1.35,2.1,3.4,2.1,6.1v1.34H424.812a0.7,0.7,0,0,0-.021-0.15l-1.286-4.74,0.921,0.29a0.747,0.747,0,0,0,.208.03,0.7,0.7,0,0,0,.507-0.22l0.7-.79,1.215-.72a0.65,0.65,0,0,0,.31-0.67l-0.381-2.13h2.444Zm-10.142.96a3.525,3.525,0,0,0,2.293,1.87l-0.918.29-0.476-.53a0.574,0.574,0,0,0-.157-0.13l-0.914-.54Zm6.487-.12,0.194,1.08-0.914.54a0.876,0.876,0,0,0-.158.13l-0.475.53-0.955-.3A3.538,3.538,0,0,0,425.772,6715.44Zm-2.329,8.26h-1.8l0.9-3.33Zm0.889-27.76a0.661,0.661,0,0,0-.449.43,5.424,5.424,0,0,0-.23,1.21,5.728,5.728,0,0,0-2.342-.01,5.358,5.358,0,0,0-.229-1.2,0.661,0.661,0,0,0-.449-0.43,12.524,12.524,0,0,0-3.433-.48,11.4,11.4,0,0,0-1.369.08,0.661,0.661,0,0,0,.155-0.42v-1.42c0.62-.29,2.451-0.94,6.524-0.94s5.906,0.65,6.525.94v1.42a0.612,0.612,0,0,0,.16.42,12.349,12.349,0,0,0-1.43-.08A12.524,12.524,0,0,0,424.332,6695.94Zm-7.132.83a11.175,11.175,0,0,1,2.694.33,2.759,2.759,0,0,1-.2,2.01,1.766,1.766,0,0,1-1.441.62c-0.529.02-.91,0.04-1.236,0.04-1.716,0-2.331-.13-2.487-2.66A10.286,10.286,0,0,1,417.2,6696.77Zm7.871,0.33a11.175,11.175,0,0,1,2.694-.33,10.374,10.374,0,0,1,2.673.34c-0.156,2.53-.771,2.66-2.487,2.66-0.326,0-.707-0.02-1.236-0.04a1.766,1.766,0,0,1-1.441-.62A2.759,2.759,0,0,1,425.071,6697.1Zm8.241,5.95a2.685,2.685,0,0,1-1.848,2.53,9.4,9.4,0,0,0,.519-1.82,0.546,0.546,0,0,0,.007-0.09v-0.14a2.429,2.429,0,0,0,1.2-.7c0.033-.04.064-0.07,0.094-0.11A2.614,2.614,0,0,1,433.312,6703.05Zm-0.624-3.37a3.1,3.1,0,0,1-.487,2.27,1.151,1.151,0,0,1-.211.18v-2.92a1.123,1.123,0,0,1,.548.17A0.381,0.381,0,0,1,432.688,6699.68ZM418.54,6687.7a29.518,29.518,0,0,1,5.293-.23,8.428,8.428,0,0,0,4.038-.5,2.111,2.111,0,0,0,1.264,1.35,3.048,3.048,0,0,1,1.987,3.19v4.01l-0.747-.68v-1.52a0.638,0.638,0,0,0-.246-0.5c-0.175-.14-1.875-1.36-7.619-1.36s-7.443,1.22-7.618,1.36a0.638,0.638,0,0,0-.246.5v1.52l-0.779.71v-2.08c0-.01,0-0.02,0-0.04C413.855,6693.23,413.654,6688.38,418.54,6687.7Zm-5.757,14.25a3.1,3.1,0,0,1-.487-2.27,0.381,0.381,0,0,1,.15-0.3,1.308,1.308,0,0,1,.564-0.18v2.94A0.937,0.937,0,0,1,412.783,6701.95Zm2.979,5.05a9.606,9.606,0,0,1-1.412-3.39v-3.21a4.129,4.129,0,0,0,2.664.67c0.35,0,.753-0.01,1.307-0.04a3.043,3.043,0,0,0,2.478-1.19,2.788,2.788,0,0,0,.406-0.89,3.926,3.926,0,0,1,1.736-.16v2.47a0.269,0.269,0,0,1-.268.27h-0.346a0.268,0.268,0,0,1-.268-0.27,0.67,0.67,0,0,0-1.34,0,1.588,1.588,0,0,0,1.608,1.57h0.346a1.592,1.592,0,0,0,1.6-1.5,0.455,0.455,0,0,0,0-.07v-1.27a3.108,3.108,0,0,0,2.363,1.04c0.554,0.03.955,0.04,1.307,0.04a4.074,4.074,0,0,0,2.7-.7v3.24a9.314,9.314,0,0,1-.7,2.12H425.4a0.634,0.634,0,0,0-.24.04,0.994,0.994,0,0,0-.724-0.31h-0.74a0.96,0.96,0,1,0,0,1.92h0.74a1.013,1.013,0,0,0,.78-0.37,1.08,1.08,0,0,0,.184.02h3.819a8.244,8.244,0,0,1-6.652,3.63h-0.124A8.242,8.242,0,0,1,415.762,6707Zm6.61,4.97h0.256a11.862,11.862,0,0,0,2.1-.32v2.31a0.639,0.639,0,0,0-.014.13,2.212,2.212,0,0,1-4.422,0,0.639,0.639,0,0,0-.014-0.13v-2.31A11.862,11.862,0,0,0,422.372,6711.97Zm-12.807,10.39c0-7.67,5.765-7.76,6.013-7.76H418.1l-0.381,2.13a0.65,0.65,0,0,0,.31.67l1.215,0.72,0.7,0.79a0.7,0.7,0,0,0,.507.22,0.747,0.747,0,0,0,.208-0.03l0.928-.3-1.287,4.75a0.7,0.7,0,0,0-.021.15H409.565v-1.34Zm8.178-24.89a0.775,0.775,0,1,1-.8.77A0.782,0.782,0,0,1,417.743,6697.47Zm9.513,0a0.775,0.775,0,1,1-.8.77A0.782,0.782,0,0,1,427.256,6697.47Zm-6.729,8.56a3.861,3.861,0,0,1-1.212-.62,0.7,0.7,0,0,0-.943.05,0.639,0.639,0,0,0,.044.92,4.967,4.967,0,0,0,1.676.88,0.557,0.557,0,0,0,.218.04,0.669,0.669,0,0,0,.633-0.44A0.65,0.65,0,0,0,420.527,6706.03Z" transform="translate(-403 -6685)"/>
</svg>
