<svg xmlns="http://www.w3.org/2000/svg" width="40" height="39" viewBox="0 0 40 39">
  <defs>
    <style>
      .cls-1 {
        fill: #94c63b;
        fill-rule: evenodd;
      }
    </style>
  </defs>
  <path id="_1" data-name="1" class="cls-1" d="M1111.58,6711.55h-3.91v-1.25a1.432,1.432,0,0,0-1.43-1.44h-2.48a1.432,1.432,0,0,0-1.43,1.44v1.25h-4.66v-7.39h1.91a1.436,1.436,0,0,0,1.42-1.44v-2.51a1.428,1.428,0,0,0-1.42-1.43h-3.24l-2.09-3.7a0.668,0.668,0,0,0-.58-0.34v-1.34h2.66a0.687,0.687,0,0,0,.24-0.05l5.22-1.97H1107a2.015,2.015,0,0,0,0-4.03h-5.33a0.672,0.672,0,0,0-.24.04l-5.22,1.97h-2.54v-2.69a0.67,0.67,0,0,0-1.34,0v2.69h-2.54l-5.22-1.97a0.672,0.672,0,0,0-.24-0.04H1079a2.015,2.015,0,0,0,0,4.03h5.21l5.22,1.97a0.687,0.687,0,0,0,.24.05h2.66v1.34h0a0.668,0.668,0,0,0-.58.34l-2.09,3.7h-3.24a1.428,1.428,0,0,0-1.42,1.43v2.51a1.436,1.436,0,0,0,1.42,1.44h1.91v7.39h-4.66v-1.25a1.432,1.432,0,0,0-1.43-1.44h-2.48a1.432,1.432,0,0,0-1.43,1.44v1.25h-3.91a1.43,1.43,0,0,0-1.42,1.44v7.89a1.428,1.428,0,0,0,1.42,1.43h3.91v1.26a1.43,1.43,0,0,0,1.43,1.43h2.48a1.43,1.43,0,0,0,1.43-1.43v-1.26h18.66v1.26a1.43,1.43,0,0,0,1.43,1.43h2.48a1.43,1.43,0,0,0,1.43-1.43v-1.26h3.91a1.428,1.428,0,0,0,1.42-1.43v-7.89A1.43,1.43,0,0,0,1111.58,6711.55Zm-27.01-21.47a0.687,0.687,0,0,0-.24-0.05H1079a0.67,0.67,0,0,1,0-1.34h5.21l5.22,1.97a0.687,0.687,0,0,0,.24.05h6.66a0.687,0.687,0,0,0,.24-0.05l5.22-1.97H1107a0.67,0.67,0,0,1,0,1.34h-5.33a0.687,0.687,0,0,0-.24.05l-5.22,1.97h-6.42Zm8.15,6.01h0.56l1.52,2.69h-3.6Zm-6.3,6.72a0.09,0.09,0,0,1-.09-0.09v-2.51a0.09,0.09,0,0,1,.09-0.09h13.16a0.09,0.09,0,0,1,.09.09v2.51a0.09,0.09,0,0,1-.09.09h-13.16Zm3.25,1.35h6.66v7.39h-6.66v-7.39h0Zm-15.25,16.81a0.09,0.09,0,0,1-.09-0.09v-7.89a0.09,0.09,0,0,1,.09-0.09h3.91v8.07h-3.91Zm7.82,2.68h-2.48a0.082,0.082,0,0,1-.09-0.08V6710.3a0.09,0.09,0,0,1,.09-0.09h2.48a0.09,0.09,0,0,1,.09.09v1.92h0v9.42h0v1.93A0.082,0.082,0,0,1,1082.24,6723.65Zm20.09-2.68h-18.66v-8.07h18.66v8.07Zm4,2.6a0.082,0.082,0,0,1-.09.08h-2.48a0.088,0.088,0,0,1-.09-0.08V6710.3a0.09,0.09,0,0,1,.09-0.09h2.48a0.09,0.09,0,0,1,.09.09v13.27Zm5.34-2.69a0.09,0.09,0,0,1-.09.09h-3.91v-8.07h3.91a0.09,0.09,0,0,1,.09.09v7.89Z" transform="translate(-1073 -6686)"/>
</svg>
