<svg xmlns="http://www.w3.org/2000/svg" width="40" height="40.03" viewBox="0 0 40 40.03">
  <defs>
    <style>
      .cls-1 {
        fill: #94c63b;
        fill-rule: evenodd;
      }
    </style>
  </defs>
  <path id="_2" data-name="2" class="cls-1" d="M1153.08,6773.1h-5.82v-4.49a0.926,0.926,0,0,0-.92-0.93h-3.76l2.16-3.75,5.01,2.89a0.884,0.884,0,0,0,.69.1,0.937,0.937,0,0,0,.56-0.43l1.61-2.8a0.906,0.906,0,0,0-.11-1.07c-3.66-4.14-7.66-8.37-12.61-10.54a0.9,0.9,0,0,0-1.16.38l-2.99,5.19a0.927,0.927,0,0,0,.34,1.26l3.09,1.79-5.42,9.41-6.17-9.16-0.17-1.31a0.924,0.924,0,0,0-.15-0.4l-2.33-3.46a0.909,0.909,0,0,0-1.28-.25l-4.19,2.83a0.959,0.959,0,0,0-.39.59,0.979,0.979,0,0,0,.14.69l2.34,3.47a0.932,0.932,0,0,0,.31.28l1.15,0.66,6.09,9.05h-3.56l-3.63-7.48a0.924,0.924,0,0,0-1.66.81l3.24,6.67h-2.33l-1.44-3.31a0.924,0.924,0,1,0-1.69.75l1.13,2.56h-4.24a0.918,0.918,0,0,0-.92.92v5.07a0.918,0.918,0,0,0,.92.92h1.61v11.07a0.918,0.918,0,0,0,.92.92h33.1a0.918,0.918,0,0,0,.92-0.92v-11.07h1.61a0.918,0.918,0,0,0,.92-0.92v-5.07A0.918,0.918,0,0,0,1153.08,6773.1Zm-7.66-3.57v3.57h-5.96l2.06-3.57h3.9Zm-7.63-11.76,2.11-3.66c4.09,2.03,7.57,5.63,10.79,9.24l-0.82,1.42Zm-3.19,14.54h0.01l6.15-10.69,2.39,1.39-5.81,10.09h-3.19Zm-10.19-9.47a0.863,0.863,0,0,0-.31-0.29l-1.15-.66-1.7-2.51,2.67-1.81,1.7,2.52,0.17,1.32a0.884,0.884,0,0,0,.15.39l6.78,10.09-0.69,1.21h-0.71Zm25.22,23.49h-3.81a0.92,0.92,0,1,0,0,1.84h3.81v1.99h-31.26v-1.99h3.81a0.92,0.92,0,0,0,0-1.84h-3.81v-6.32h10.57v3.23a0.918,0.918,0,0,0,.92.92h8.28a0.918,0.918,0,0,0,.92-0.92v-3.23h10.57v6.32h0Zm-18.85-4.01v-2.31h6.44v2.31h-6.44Zm21.38-4.15h-36.32v-3.23h36.32v3.23h0Zm-26.47,8.16h-0.09a0.92,0.92,0,1,0,0,1.84h0.09A0.92,0.92,0,0,0,1125.69,6786.33Zm16.62,1.84h0.09a0.92,0.92,0,0,0,0-1.84h-0.09A0.92,0.92,0,1,0,1142.31,6788.17Z" transform="translate(-1114 -6751.97)"/>
</svg>
