<svg xmlns="http://www.w3.org/2000/svg" width="40" height="36" viewBox="0 0 40 36">
  <defs>
    <style>
      .cls-1 {
        fill: #0088d2;
        fill-rule: evenodd;
      }
    </style>
  </defs>
  <path id="_2" data-name="2" class="cls-1" d="M483.322,6784.79h-1.293v-12.01a0.678,0.678,0,1,0-1.355,0v12.01H477.7v-6.75h0v-8.72h0v-6.97h0v-4.29h0a0.016,0.016,0,0,1,0-.01v-1.61a0.094,0.094,0,0,1,.1-0.09h2.776a0.094,0.094,0,0,1,.1.09v14.09a0.678,0.678,0,1,0,1.355,0v-14.09a1.45,1.45,0,0,0-1.452-1.44H477.8a1.451,1.451,0,0,0-1.453,1.44v0.95h-24.7v-0.95A1.451,1.451,0,0,0,450.2,6755h-2.776a1.45,1.45,0,0,0-1.452,1.44v28.35h-1.294a0.673,0.673,0,0,0-.677.67v4.87a0.673,0.673,0,0,0,.677.67h38.645a0.674,0.674,0,0,0,.678-0.67v-4.87A0.674,0.674,0,0,0,483.322,6784.79Zm-31.67-21.76h2.09a0.675,0.675,0,1,0,0-1.35h-2.09v-2.95h24.7v2.95H456a0.675,0.675,0,1,0,0,1.35h20.348v5.62h-8.063v-1.16a1.5,1.5,0,0,0-1.5-1.49h-1.226a1.5,1.5,0,0,0-1.5,1.49v1.16h-3.5v-1.16a1.5,1.5,0,0,0-1.5-1.49h-1.226a1.467,1.467,0,0,1-1.638,0h-1.226a1.5,1.5,0,0,0-1.5,1.49v1.16h-1.833v-5.62Zm15.278,4.46v3.67a0.14,0.14,0,0,1-.142.14h-1.226a0.139,0.139,0,0,1-.141-0.14v-3.67a0.139,0.139,0,0,1,.141-0.14h1.226A0.14,0.14,0,0,1,466.93,6767.49Zm-7.717,0v3.67a0.139,0.139,0,0,1-.141.14h-1.226a0.14,0.14,0,0,1-.142-0.14v-3.67a0.14,0.14,0,0,1,.142-0.14h1.226A0.139,0.139,0,0,1,459.213,6767.49Zm-2.864,0v3.67a0.139,0.139,0,0,1-.142.14h-1.225a0.14,0.14,0,0,1-.142-0.14v-3.67a0.14,0.14,0,0,1,.142-0.14h1.225A0.139,0.139,0,0,1,456.349,6767.49Zm-4.7,2.51h1.833v1.16a1.5,1.5,0,0,0,1.5,1.49h1.225a1.468,1.468,0,0,1,1.639,0h1.226a1.5,1.5,0,0,0,1.5-1.49V6770h3.5v1.16a1.5,1.5,0,0,0,1.5,1.49h1.226a1.5,1.5,0,0,0,1.5-1.49V6770h8.063v7.37h-1.833v-1.16a1.5,1.5,0,0,0-1.5-1.49h-1.226a1.467,1.467,0,0,1-1.638,0h-1.226a1.5,1.5,0,0,0-1.5,1.49v1.16h-8.088v-1.16a1.5,1.5,0,0,0-1.5-1.49h-1.226a1.5,1.5,0,0,0-1.5,1.49v1.16h-3.473V6770Zm21.508,6.21v3.67a0.14,0.14,0,0,1-.142.14h-1.226a0.139,0.139,0,0,1-.141-0.14v-3.67a0.139,0.139,0,0,1,.141-0.14h1.226A0.14,0.14,0,0,1,473.16,6776.21Zm-2.864,0v3.67a0.14,0.14,0,0,1-.142.14h-1.226a0.139,0.139,0,0,1-.141-0.14v-3.67a0.139,0.139,0,0,1,.141-0.14h1.226A0.14,0.14,0,0,1,470.3,6776.21Zm-12.307,0v3.67a0.14,0.14,0,0,1-.142.14h-1.225a0.14,0.14,0,0,1-.142-0.14v-3.67a0.14,0.14,0,0,1,.142-0.14h1.225A0.14,0.14,0,0,1,457.989,6776.21Zm-6.337,8.58v-6.07h3.473v1.16a1.5,1.5,0,0,0,1.5,1.49h1.225a1.5,1.5,0,0,0,1.5-1.49v-1.16h8.087v1.16a1.5,1.5,0,0,0,1.5,1.49h1.226a1.467,1.467,0,0,1,1.638,0h1.226a1.5,1.5,0,0,0,1.5-1.49v-1.16h1.833v6.07h-24.7Zm-4.326-28.35a0.093,0.093,0,0,1,.1-0.09H450.2a0.094,0.094,0,0,1,.1.09v5.91h0a0.016,0.016,0,0,0,0,.01v6.96h0a0.016,0.016,0,0,0,0,.01v8.71h0a0.016,0.016,0,0,0,0,.01v6.74h-2.971v-28.35Zm35.319,33.21h-37.29v-3.52h37.29v3.52h0Z" transform="translate(-444 -6755)"/>
</svg>
