<svg xmlns="http://www.w3.org/2000/svg" width="39" height="40" viewBox="0 0 39 40">
  <defs>
    <style>
      .cls-1 {
        fill: #0088d2;
        fill-rule: evenodd;
      }
    </style>
  </defs>
  <path id="_4" data-name="4" class="cls-1" d="M564.547,6908.71a8.353,8.353,0,0,0-8.1-2.16l-1.664-1.66s0-.01-0.007-0.01l-10.535-10.53a8.209,8.209,0,0,0,.521-2.89,0.572,0.572,0,0,0-.013-0.13,8.384,8.384,0,0,0-.728-3.39,0.629,0.629,0,0,0-1.146.52,7.122,7.122,0,0,1,.023,5.76,0.669,0.669,0,0,0-.05.21,7.109,7.109,0,0,1-4.1,3.69,0.455,0.455,0,0,0-.2.02,7.11,7.11,0,0,1-9.284-6.58l2.842,2.84a0.617,0.617,0,0,0,.548.17l4.723-.79a0.617,0.617,0,0,0,.516-0.52l0.728-4.65a0.622,0.622,0,0,0-.177-0.54l-3.639-3.64a7.145,7.145,0,0,1,6.609,1.91,6.735,6.735,0,0,1,.528.58,0.626,0.626,0,1,0,.98-0.78,8.776,8.776,0,0,0-.62-0.69,8.37,8.37,0,0,0-8.9-1.9,0.605,0.605,0,0,0-.39.45,0.635,0.635,0,0,0,.169.58l4.154,4.15-0.608,3.89-3.958.66-3.591-3.58a0.624,0.624,0,0,0-1.064.34,8.37,8.37,0,0,0,8.241,9.7,0.463,0.463,0,0,0,.118.01,8.68,8.68,0,0,0,2.118-.27l1.64,1.64h0l10.538,10.53a8.416,8.416,0,0,0-.279.89,0.642,0.642,0,0,0-.018.19,8.349,8.349,0,0,0,.714,5.75,0.63,0.63,0,0,0,.558.33,0.6,0.6,0,0,0,.288-0.07,0.618,0.618,0,0,0,.27-0.84,7.179,7.179,0,0,1-.2-6.12,0.635,0.635,0,0,0,.049-0.19,7.073,7.073,0,0,1,4.148-3.71,0.823,0.823,0,0,0,.156-0.02,7.11,7.11,0,0,1,9.285,6.58l-2.842-2.84a0.653,0.653,0,0,0-.548-0.18l-4.723.8a0.617,0.617,0,0,0-.516.52l-0.728,4.65a0.622,0.622,0,0,0,.177.54l3.639,3.64a7.145,7.145,0,0,1-6.609-1.91,1.855,1.855,0,0,1-.2-0.21,0.627,0.627,0,0,0-.887-0.03,0.62,0.62,0,0,0-.035.88c0.077,0.09.157,0.17,0.237,0.25a8.375,8.375,0,0,0,8.9,1.9A0.605,0.605,0,0,0,562,6922a0.633,0.633,0,0,0-.17-0.58l-4.153-4.15,0.608-3.89,3.958-.67,3.591,3.59a0.629,0.629,0,0,0,.637.16,0.643,0.643,0,0,0,.426-0.5A8.4,8.4,0,0,0,564.547,6908.71Zm-13.214,1.74-10.22-10.22h0l-1.221-1.22a8.38,8.38,0,0,0,3.783-3.45l10.21,10.2c0,0.01,0,.01.006,0.01l1.232,1.23A8.327,8.327,0,0,0,551.333,6910.45Zm-8.027-11.08a0.627,0.627,0,0,0-.887,0,0.619,0.619,0,0,0-.006.88l7.763,7.85a0.608,0.608,0,0,0,.447.19,0.627,0.627,0,0,0,.446-1.07Zm1.485-1.48a0.626,0.626,0,1,0-.891.88l7.819,7.88a0.636,0.636,0,0,0,.887,0,0.619,0.619,0,0,0,0-.88Zm-3.126,9.38a0.634,0.634,0,0,0-.544-0.31h-6.763a0.633,0.633,0,0,0-.544.31l-3.382,5.86a0.633,0.633,0,0,0,0,.63l3.382,5.85a0.633,0.633,0,0,0,.544.31h6.763a0.634,0.634,0,0,0,.544-0.31l3.382-5.85a0.633,0.633,0,0,0,0-.63Zm-0.906,11.4H534.72l-3.02-5.23,3.02-5.22h6.039l3.019,5.22Zm-3.02-8.78a3.55,3.55,0,0,0-3.131,5.24,0.626,0.626,0,1,0,1.1-.59,2.306,2.306,0,1,1,3.188.89l-0.031.02c-0.05.03-.091,0.05-0.13,0.07h0a1.3,1.3,0,0,1-.132.06l-0.036.01c-0.056.02-.1,0.04-0.141,0.05H538.42a0.512,0.512,0,0,1-.141.04l-0.037.01a3.077,3.077,0,0,1-.3.05H537.9a1.668,1.668,0,0,1-.316,0h-0.04a3.077,3.077,0,0,1-.305-0.05l-0.036-.01a0.51,0.51,0,0,1-.142-0.04h-0.006c-0.04-.01-0.084-0.03-0.139-0.05l-0.037-.01a0.626,0.626,0,1,0-.469,1.16l0.055,0.02c0.08,0.03.147,0.06,0.212,0.08h0.008c0.067,0.02.138,0.04,0.225,0.06a0.115,0.115,0,0,0,.057.01,3.721,3.721,0,0,0,.472.08H537.5a2.982,2.982,0,0,0,.488,0h0.059a3.736,3.736,0,0,0,.471-0.08,0.121,0.121,0,0,0,.058-0.01c0.086-.02.157-0.04,0.224-0.06H538.8c0.065-.02.133-0.05,0.214-0.08l0.054-.02c0.078-.03.146-0.06,0.209-0.09h0.006c0.062-.03.127-0.07,0.2-0.11l0.048-.03A3.552,3.552,0,0,0,537.739,6909.89Zm15.6-11.19a0.624,0.624,0,0,0,.544.32h6.764a0.621,0.621,0,0,0,.543-0.32l3.382-5.85a0.633,0.633,0,0,0,0-.63l-3.382-5.85a0.621,0.621,0,0,0-.543-0.32h-6.764a0.624,0.624,0,0,0-.544.32l-3.382,5.85a0.633,0.633,0,0,0,0,.63Zm0.906-11.39h6.039l3.02,5.22-3.02,5.23h-6.039l-3.019-5.23Zm0.739,7.17a0.629,0.629,0,0,0,.253-0.85,2.306,2.306,0,1,1,3.188.89l-0.03.02c-0.051.03-.092,0.05-0.131,0.07h0a1.3,1.3,0,0,1-.132.06l-0.036.01a0.549,0.549,0,0,1-.141.05s0,0.01-.006.01c-0.04.01-.085,0.02-0.141,0.03l-0.037.01a3.077,3.077,0,0,1-.305.05h-0.039a1.668,1.668,0,0,1-.316,0h-0.039a3.1,3.1,0,0,1-.306-0.05l-0.036-.01c-0.057-.01-0.1-0.02-0.141-0.03,0-.01,0-0.01-0.007-0.01a0.526,0.526,0,0,1-.139-0.05l-0.037-.01a0.63,0.63,0,0,0-.817.35,0.622,0.622,0,0,0,.348.81l0.055,0.03c0.08,0.03.148,0.05,0.212,0.07h0.008c0.067,0.02.138,0.04,0.225,0.06,0.019,0.01.038,0.01,0.057,0.02a3.7,3.7,0,0,0,.472.07h0.06a2.109,2.109,0,0,0,.243.01,2.134,2.134,0,0,0,.244-0.01h0.059a3.646,3.646,0,0,0,.47-0.07c0.02-.01.039-0.01,0.059-0.02,0.086-.02.158-0.04,0.225-0.06h0.007a1.321,1.321,0,0,0,.214-0.08l0.054-.02c0.078-.03.147-0.06,0.209-0.09h0.007c0.061-.03.127-0.07,0.2-0.11a0.112,0.112,0,0,1,.048-0.02,3.559,3.559,0,1,0-4.928-1.38A0.636,0.636,0,0,0,554.985,6894.48Z" transform="translate(-528 -6883)"/>
</svg>
