<?xml version="1.0" encoding="utf-8"?>
<!-- Generator: Adobe Illustrator 19.0.0, SVG Export Plug-In . SVG Version: 6.00 Build 0)  -->
<svg version="1.1" id="Шар_1" xmlns="http://www.w3.org/2000/svg" xmlns:xlink="http://www.w3.org/1999/xlink" x="0px" y="0px"
	 viewBox="-290.9 392.5 11.9 9.1" style="enable-background:new -290.9 392.5 11.9 9.1;" xml:space="preserve">
<style type="text/css">
	.st0{fill:#FFFFFF;}
</style>
<path class="st0" d="M-279.2,397.3l-4.1,4.1c-0.1,0.1-0.2,0.1-0.3,0.1c-0.1,0-0.2-0.1-0.3-0.1l-0.6-0.6c-0.2-0.2-0.2-0.4,0-0.6
	c0,0,0,0,0,0l1.8-1.8c0.1-0.1,0.1-0.3,0-0.3c0,0-0.1-0.1-0.2-0.1h-7.5c-0.2,0-0.4-0.2-0.5-0.4c0,0,0,0,0-0.1v-0.9
	c0-0.2,0.2-0.4,0.4-0.5c0,0,0,0,0.1,0h7.5c0.1,0,0.2-0.1,0.2-0.3c0-0.1,0-0.1-0.1-0.1l-1.8-1.8c-0.2-0.2-0.2-0.4,0-0.6c0,0,0,0,0,0
	l0.6-0.6c0.2-0.2,0.4-0.2,0.6,0c0,0,0,0,0,0l4.1,4.1c0.1,0.1,0.1,0.2,0.1,0.3C-279.1,397.1-279.1,397.2-279.2,397.3z"/>
</svg>
