<?xml version="1.0" encoding="utf-8"?>
<!-- Generator: Adobe Illustrator 19.0.0, SVG Export Plug-In . SVG Version: 6.00 Build 0)  -->
<svg version="1.1" id="Шар_1" xmlns="http://www.w3.org/2000/svg" xmlns:xlink="http://www.w3.org/1999/xlink" x="0px" y="0px"
	 viewBox="-290.9 392.5 11.9 9.1" style="enable-background:new -290.9 392.5 11.9 9.1;" xml:space="preserve">
<style type="text/css">
	.st0{fill:#FFFFFF;}
</style>
<path class="st0" d="M-290.7,396.7l4.1-4.1c0.1-0.1,0.2-0.1,0.3-0.1c0.1,0,0.2,0.1,0.3,0.1l0.6,0.6c0.2,0.2,0.2,0.4,0,0.6
	c0,0,0,0,0,0l-1.8,1.8c-0.1,0.1-0.1,0.3,0,0.3c0,0,0.1,0.1,0.2,0.1h7.5c0.2,0,0.4,0.2,0.5,0.4c0,0,0,0,0,0.1v0.9
	c0,0.2-0.2,0.4-0.4,0.5c0,0,0,0-0.1,0h-7.5c-0.1,0-0.2,0.1-0.2,0.3c0,0.1,0,0.1,0.1,0.1l1.8,1.8c0.2,0.2,0.2,0.4,0,0.6c0,0,0,0,0,0
	l-0.6,0.6c-0.2,0.2-0.4,0.2-0.6,0c0,0,0,0,0,0l-4.1-4.1c-0.1-0.1-0.1-0.2-0.1-0.3C-290.9,396.9-290.8,396.8-290.7,396.7z"/>
</svg>
