<svg xmlns="http://www.w3.org/2000/svg" width="21" height="30" viewBox="0 0 21 30">
  <defs>
    <style>
      .cls-1 {
        fill: #0088d2;
        fill-rule: evenodd;
      }
    </style>
  </defs>
  <path id="температура" class="cls-1" d="M1092.14,2081.41v-0.99h-0.96v1.54l0.24,0.14a5.358,5.358,0,0,1,1.02,8.44,5.149,5.149,0,0,1-3.85,1.49,5.335,5.335,0,0,1-2.42-9.92l0.24-.15v-7.35h-0.96v6.8a6.307,6.307,0,0,0,3.1,11.58,2.09,2.09,0,0,0,.25.01,6.119,6.119,0,0,0,4.3-1.76A6.345,6.345,0,0,0,1092.14,2081.41Zm-3.34-17.44a2.4,2.4,0,0,1,2.38,2.42v3.38h0.96v-3.38a3.345,3.345,0,1,0-6.69,0h0.96A2.4,2.4,0,0,1,1088.8,2063.97Zm-1.44,4.84v13.8a4.3,4.3,0,1,0,2.87,0v-13.8h-2.87Zm4.78,17.9a3.345,3.345,0,1,1-4.18-3.28l0.36-.09v-13.57h0.95v13.57l0.36,0.09A3.385,3.385,0,0,1,1092.14,2086.71Zm-0.96-8.23h2.87v0.97h-2.87v-0.97Zm0-1.93h2.87v0.97h-2.87v-0.97Zm0-1.94h2.87v0.97h-2.87v-0.97Zm0-1.93h2.87v0.96h-2.87v-0.96Zm0-1.94h2.87v0.97h-2.87v-0.97Zm-4.77-.48a6.206,6.206,0,1,0-6.21,6.29A6.253,6.253,0,0,0,1086.41,2070.26Zm-6.21,5.32a5.32,5.32,0,1,1,5.25-5.32A5.3,5.3,0,0,1,1080.2,2075.58Zm-1.9-9.19a1.45,1.45,0,1,0,1.43,1.45A1.449,1.449,0,0,0,1078.3,2066.39Zm0,1.93a0.485,0.485,0,1,1,.47-0.48A0.48,0.48,0,0,1,1078.3,2068.32Zm1.9,0v5.81h0.96v-2.42h1.91v-0.97h-1.91v-1.45h2.86v-0.97h-3.82Z" transform="translate(-1074 -2063)"/>
</svg>
