<svg xmlns="http://www.w3.org/2000/svg" width="29" height="30" viewBox="0 0 29 30">
  <defs>
    <style>
      .cls-1 {
        fill: #0088d2;
        fill-rule: evenodd;
      }
    </style>
  </defs>
  <path class="cls-1" d="M965.925,2544.94a19.516,19.516,0,0,1-6.423,3.03,17.858,17.858,0,0,1-9.33-5.8,18.326,18.326,0,0,1-3.683-8.2,29.146,29.146,0,0,1-.052-10.13,17.546,17.546,0,0,0,4.014.17,0.507,0.507,0,0,0-.08-1.01,16.508,16.508,0,0,1-4.244-.23,0.5,0.5,0,0,0-.584.38,29.345,29.345,0,0,0-.052,10.98,19.364,19.364,0,0,0,3.885,8.66,18.853,18.853,0,0,0,9.993,6.19,0.594,0.594,0,0,0,.133.02,0.612,0.612,0,0,0,.133-0.02,20.7,20.7,0,0,0,6.891-3.23,0.509,0.509,0,0,0,.105-0.71A0.5,0.5,0,0,0,965.925,2544.94Zm7.535-21.79a0.5,0.5,0,0,0-.584-0.38,15.3,15.3,0,0,1-9.592-1.23,12.392,12.392,0,0,1-3.41-2.38,0.514,0.514,0,0,0-.745,0,13.793,13.793,0,0,1-6.837,3.57,0.493,0.493,0,0,0-.389.59,0.506,0.506,0,0,0,.6.39,15.2,15.2,0,0,0,7-3.5,14.381,14.381,0,0,0,3.293,2.21,16.086,16.086,0,0,0,9.771,1.42,29.7,29.7,0,0,1,.361,6.92,23.193,23.193,0,0,1-1.376,6.63,16.616,16.616,0,0,1-4.126,6.29,0.5,0.5,0,0,0,.348.87,0.507,0.507,0,0,0,.347-0.13,17.754,17.754,0,0,0,4.383-6.69,24.122,24.122,0,0,0,1.434-6.93A29.157,29.157,0,0,0,973.46,2523.15Zm-14.862-.24a0.494,0.494,0,0,0-.511.01,17.18,17.18,0,0,1-8.932,2.48c-0.364,0-.735-0.01-1.1-0.03a0.5,0.5,0,0,0-.533.45,27.064,27.064,0,0,0,.288,7.86c0.017,0.09.036,0.18,0.055,0.27l0.016,0.08a0.509,0.509,0,0,0,.5.4h9.979a0.509,0.509,0,0,0,.5-0.51v-10.57A0.5,0.5,0,0,0,958.6,2522.91Zm-0.752,10.51h-9.062a25.911,25.911,0,0,1-.308-7.02c0.228,0,.455.01,0.68,0.01a18.226,18.226,0,0,0,8.69-2.19v9.2h0Zm13.636-7.6a0.5,0.5,0,0,0-.533-0.45c-0.368.02-.738,0.03-1.1,0.03-0.569,0-1.144-.03-1.71-0.08a0.5,0.5,0,0,0-.551.45,0.5,0.5,0,0,0,.454.55c0.6,0.06,1.2.09,1.807,0.09,0.223,0,.448-0.01.674-0.01a25.956,25.956,0,0,1-.3,7.02h-9.062v-9.2a18.121,18.121,0,0,0,4.9,1.8,0.506,0.506,0,1,0,.208-0.99,16.9,16.9,0,0,1-5.353-2.11,0.5,0.5,0,0,0-.769.43v10.57a0.509,0.509,0,0,0,.5.51h9.98a0.507,0.507,0,0,0,.494-0.4l0.017-.08c0.009-.04.019-0.09,0.028-0.13A27.171,27.171,0,0,0,971.482,2525.82Zm-13.131,9.89H949a0.513,0.513,0,0,0-.478.67,15.84,15.84,0,0,0,2.687,4.93c0.05,0.07.1,0.13,0.155,0.19l0.046,0.05a0.5,0.5,0,1,0,.771-0.65l-0.048-.05c-0.047-.06-0.094-0.11-0.139-0.17a14.672,14.672,0,0,1-2.272-3.96h8.125v8.2a15.422,15.422,0,0,1-4.31-2.64,0.509,0.509,0,0,0-.713.05,0.5,0.5,0,0,0,.045.71,16.637,16.637,0,0,0,5.307,3.09,0.371,0.371,0,0,0,.176.04,0.5,0.5,0,0,0,.288-0.09,0.516,0.516,0,0,0,.217-0.42v-9.44A0.509,0.509,0,0,0,958.351,2535.71Zm12.064,0.22a0.5,0.5,0,0,0-.411-0.22h-9.352a0.509,0.509,0,0,0-.5.51v9.44a0.516,0.516,0,0,0,.217.42,0.5,0.5,0,0,0,.288.09,0.371,0.371,0,0,0,.176-0.04,15.821,15.821,0,0,0,6.919-4.76,16.01,16.01,0,0,0,2.735-4.99A0.5,0.5,0,0,0,970.415,2535.93Zm-3.45,4.81a14.65,14.65,0,0,1-5.808,4.18v-8.2h8.125A14.753,14.753,0,0,1,966.965,2540.74Z" transform="translate(-945 -2519)"/>
</svg>
