<svg xmlns="http://www.w3.org/2000/svg" width="30" height="30" viewBox="0 0 30 30">
  <defs>
    <style>
      .cls-1 {
        fill: #0088d2;
        fill-rule: evenodd;
      }
    </style>
  </defs>
  <path id="размеры" class="cls-1" d="M973.4,2063H944.6a0.6,0.6,0,0,0-.6.6v28.8a0.6,0.6,0,0,0,.6.6h28.8a0.6,0.6,0,0,0,.6-0.6v-28.8A0.6,0.6,0,0,0,973.4,2063Zm-0.6,28.8H945.2v-27.6h27.61v27.6h0Zm-2.353-25.85H960.3a0.6,0.6,0,0,0-.552.37,0.6,0.6,0,0,0,.129.65l2.632,2.63-4.173,4.17a0.627,0.627,0,0,0-.175.43,0.586,0.586,0,0,0,.175.42l4.041,4.04a0.587,0.587,0,0,0,.846,0l4.173-4.17,2.632,2.63a0.6,0.6,0,0,0,.651.13,0.594,0.594,0,0,0,.369-0.55v-10.15A0.6,0.6,0,0,0,970.452,2065.95Zm-0.6,9.31-2.035-2.04a0.61,0.61,0,0,0-.845,0l-4.173,4.17-3.2-3.19,4.173-4.18a0.592,0.592,0,0,0,0-.84l-2.035-2.04h8.111v8.12Zm-9.977,5.9-4.041-4.04a0.6,0.6,0,0,0-.845,0l-4.172,4.17-2.633-2.63a0.6,0.6,0,0,0-.651-0.13,0.594,0.594,0,0,0-.369.55v10.15a0.6,0.6,0,0,0,.6.6h10.151a0.59,0.59,0,0,0,.552-0.37,0.6,0.6,0,0,0-.13-0.65l-2.632-2.63,4.172-4.17A0.6,0.6,0,0,0,959.878,2081.16Zm-5.44,4.6a0.592,0.592,0,0,0,0,.84l2.035,2.04h-8.11v-8.11l2.034,2.03a0.6,0.6,0,0,0,.845,0l4.172-4.17,3.2,3.2Zm-6.673-17.08a0.592,0.592,0,0,0-.6.59v3.17a0.6,0.6,0,1,0,1.2,0v-3.17A0.592,0.592,0,0,0,947.765,2068.68Zm0-2.35a0.6,0.6,0,0,0-.6.6v0.25a0.6,0.6,0,1,0,1.2,0v-0.25A0.6,0.6,0,0,0,947.765,2066.33Z" transform="translate(-944 -2063)"/>
</svg>
