<svg xmlns="http://www.w3.org/2000/svg" width="27" height="30" viewBox="0 0 27 30">
  <defs>
    <style>
      .cls-1 {
        fill: #0088d2;
        fill-rule: evenodd;
      }
    </style>
  </defs>
  <path id="производ" class="cls-1" d="M966.351,2493.41h2.166a0.636,0.636,0,0,0,.556-0.33,0.614,0.614,0,0,0-.04-0.64l-5.586-7.96a0.642,0.642,0,0,0-1.032,0l-1.65,2.35v-9.64h2.166a0.634,0.634,0,0,0,.555-0.33,0.611,0.611,0,0,0-.04-0.64l-5.586-7.95a0.627,0.627,0,0,0-1.031,0l-5.586,7.95a0.614,0.614,0,0,0-.04.64,0.634,0.634,0,0,0,.556.33h2.166v3.83l-1.651-2.35a0.627,0.627,0,0,0-1.031,0l-5.586,7.96a0.6,0.6,0,0,0-.04.63,0.624,0.624,0,0,0,.555.34h2.166v9.16H944.31V2498h26.069v-1.24h-4.028v-3.35Zm-12.427-6.43v9.78h-4.331v-9.78a0.625,0.625,0,0,0-.628-0.62h-1.6l4.39-6.25,4.389,6.25h-1.6A0.625,0.625,0,0,0,953.924,2486.98Zm5.587,9.78h-4.332v-9.16h2.166a0.624,0.624,0,0,0,.555-0.34,0.593,0.593,0,0,0-.04-0.63l-2.681-3.82v-6.24a0.617,0.617,0,0,0-.627-0.61h-1.6l4.389-6.26,4.389,6.26h-1.6a0.617,0.617,0,0,0-.627.61v12.05l-2.682,3.82a0.612,0.612,0,0,0-.04.64,0.636,0.636,0,0,0,.556.33h2.166v3.35Zm5.586-3.97v3.97h-4.332v-3.97a0.625,0.625,0,0,0-.627-0.62h-1.6l4.389-6.25,4.389,6.25h-1.6A0.625,0.625,0,0,0,965.1,2492.79Zm-1.856-11.62h0.925v0.91h1.254v-0.91h0.925v-1.24H965.42v-0.91h-1.254v0.91h-0.925v1.24Zm2.166-7.04h1.254v-0.92h0.925v-1.23h-0.925v-0.91h-1.254v0.91h-0.924v1.23h0.924v0.92Zm-15.207-1.84h1.255v-0.91h0.924v-1.24h-0.924v-0.91H950.2v0.91h-0.924v1.24H950.2v0.91Zm-4.965,7.96h1.254v-0.92h0.925v-1.23h-0.925v-0.91h-1.254v0.91H944.31v1.23h0.925v0.92Zm-0.31,12.85h1.254v-0.91H947.1v-1.24h-0.924v-0.91h-1.254v0.91H944v1.24h0.925v0.91Zm25.15-7.35v-0.91h-1.254v0.91H967.9v1.23h0.925v0.92h1.254v-0.92H971v-1.23h-0.925Z" transform="translate(-944 -2468)"/>
</svg>
