<svg xmlns="http://www.w3.org/2000/svg" width="30" height="29" viewBox="0 0 30 29">
  <defs>
    <style>
      .cls-1 {
        fill: #0088d2;
        fill-rule: evenodd;
      }
    </style>
  </defs>
  <path id="проектирование" class="cls-1" d="M1261.58,2076.14a0.538,0.538,0,0,1,.54.54,0.546,0.546,0,0,1-.54.55,0.555,0.555,0,0,1-.55-0.55A0.546,0.546,0,0,1,1261.58,2076.14Zm-19.66,0a0.54,0.54,0,0,1,.55.54,0.545,0.545,0,1,1-1.09,0A0.538,0.538,0,0,1,1241.92,2076.14Zm1.64,1.63a0.545,0.545,0,1,1,0,1.09A0.545,0.545,0,0,1,1243.56,2077.77Zm3.28,0a0.545,0.545,0,0,1,0,1.09A0.545,0.545,0,1,1,1246.84,2077.77Zm-1.64,1.63a0.555,0.555,0,0,1,.55.55,0.55,0.55,0,0,1-1.1,0A0.555,0.555,0,0,1,1245.2,2079.4Zm3.28,0a0.546,0.546,0,0,1,.54.55,0.545,0.545,0,0,1-1.09,0A0.548,0.548,0,0,1,1248.48,2079.4Zm1.63,1.64a0.54,0.54,0,1,1,0,1.08A0.54,0.54,0,1,1,1250.11,2081.04Zm3.28,0a0.54,0.54,0,1,1,0,1.08A0.54,0.54,0,1,1,1253.39,2081.04Zm1.64-1.64a0.546,0.546,0,0,1,.54.55,0.545,0.545,0,0,1-1.09,0A0.548,0.548,0,0,1,1255.03,2079.4Zm-3.28,3.27a0.546,0.546,0,0,1,.55.54,0.555,0.555,0,0,1-.55.55,0.546,0.546,0,0,1-.54-0.55A0.538,0.538,0,0,1,1251.75,2082.67Zm4.91-4.9a0.545,0.545,0,1,1-.54.55A0.542,0.542,0,0,1,1256.66,2077.77Zm3.28,0a0.545,0.545,0,1,1-.55.55A0.548,0.548,0,0,1,1259.94,2077.77Zm-1.64,1.63a0.555,0.555,0,0,1,.55.55,0.546,0.546,0,0,1-.55.54,0.538,0.538,0,0,1-.54-0.54A0.546,0.546,0,0,1,1258.3,2079.4Zm3.57,0.99,5.13-2.92-5.27-2.98,5.27-3-15-8.49-15,8.49,5.27,3-5.27,2.98,5.27,3.01-5.27,2.98,15,8.54,15-8.54-5.27-2.98,0.04-.03A0.207,0.207,0,0,0,1261.87,2080.39Zm-9.87-16.14,12.79,7.24-4.17,2.37h0l-8.62,4.92-12.79-7.29Zm-8.92,11.04a0.543,0.543,0,0,0,.86.15l1.24,0.7a0.545,0.545,0,1,0,.57.54,0.438,0.438,0,0,0-.08-0.25l5.64,3.21a0.545,0.545,0,0,0-.1.31,0.538,0.538,0,0,0,.54.54,0.546,0.546,0,0,0,.55-0.54,0.235,0.235,0,0,0-.02-0.08l5.49-3.13a0.541,0.541,0,0,0,.53.49,0.555,0.555,0,0,0,.55-0.55,0.535,0.535,0,0,0-.22-0.42l1.2-.69a0.425,0.425,0,0,0,.11.02,0.541,0.541,0,0,0,.51-0.37l0.18-.1,4.16,2.36-1.08.61a0.529,0.529,0,0,0-.49-0.32,0.54,0.54,0,0,0-.55.54,0.489,0.489,0,0,0,.11.31l-2.16,1.23h0l-3.48,1.99a0.594,0.594,0,0,0,.07-0.26,0.545,0.545,0,1,0-.57.54l-1.23.7a0.584,0.584,0,0,0-.38-0.15,0.546,0.546,0,0,0-.55.54,0.611,0.611,0,0,0,.03.13l-2.51,1.42-3.01-1.71a0.537,0.537,0,0,0-.51-0.38,0.5,0.5,0,0,0-.12.02l-1.2-.68a0.537,0.537,0,0,0-.32-0.97,0.532,0.532,0,0,0-.53.48l-5.49-3.13c0-.02.01-0.05,0.01-0.07a0.54,0.54,0,0,0-.54-0.55,0.513,0.513,0,0,0-.34.13l-0.74-.42Zm21.71,8.17-12.79,7.29-12.79-7.29,4.16-2.36,8.63,4.92,8.63-4.92Z" transform="translate(-1237 -2063)"/>
</svg>
