<svg xmlns="http://www.w3.org/2000/svg" width="40" height="37" viewBox="0 0 40 37">
  <defs>
    <style>
      .cls-1 {
        fill: #0088d2;
        fill-rule: evenodd;
      }
    </style>
  </defs>
  <path id="_5" data-name="5" class="cls-1" d="M543.352,5640h-2.765a0.651,0.651,0,0,0-.648.66v9.84h-2.85v-7.74a0.651,0.651,0,0,0-.648-0.66H511.559a0.651,0.651,0,0,0-.648.66v7.74H508.06v-9.84a0.651,0.651,0,0,0-.648-0.66h-2.764a0.651,0.651,0,0,0-.648.66v35.68a0.651,0.651,0,0,0,.648.66h2.764a0.651,0.651,0,0,0,.648-0.66v-2.14h31.879v2.14a0.651,0.651,0,0,0,.648.66h2.765a0.651,0.651,0,0,0,.648-0.66v-35.68A0.651,0.651,0,0,0,543.352,5640Zm-14.557,9.01h7v1.49h-7v-1.49Zm7-1.31h-7v-4.29h2.851v0.74a0.648,0.648,0,1,0,1.3,0v-0.74h2.851v4.29Zm-8.294,2.8h-7v-7.09h2.851v0.74a0.648,0.648,0,1,0,1.3,0v-0.74H527.5v7.09Zm-15.292-7.09h2.851v0.74a0.648,0.648,0,1,0,1.3,0v-0.74h2.851v7.09h-7v-7.09Zm27.732,8.4v9.88h-2.85v-7.74a0.649,0.649,0,0,0-.648-0.65H511.559a0.649,0.649,0,0,0-.648.65v7.74H508.06v-9.88h31.879Zm-19.438,9.88v-7.08h2.851v0.74a0.648,0.648,0,1,0,1.3,0v-0.74H527.5v7.08h-7Zm-8.294,0v-1.48h7v1.48h-7Zm3.5-5.68a0.657,0.657,0,0,0,.648-0.66v-0.74h2.851v4.28h-7v-4.28h2.851v0.74A0.657,0.657,0,0,0,515.706,5656.01Zm13.089-1.4h2.851v0.74a0.648,0.648,0,1,0,1.3,0v-0.74h2.851v7.08h-7v-7.08Zm-22.03,21.08H505.3v-34.38h1.469v34.38Zm8.941-8.49a0.648,0.648,0,0,0,.648-0.65v-0.75h2.851v7.09h-7v-7.09h2.851v0.75A0.648,0.648,0,0,0,515.706,5667.2Zm4.795-1.4h2.851v0.75a0.648,0.648,0,1,0,1.3,0v-0.75H527.5v4.29h-7v-4.29Zm0,5.6h7v1.49h-7v-1.49Zm8.294,1.49v-7.09h2.851v0.75a0.648,0.648,0,1,0,1.3,0v-0.75h2.851v7.09h-7Zm8.294,0v-7.74a0.658,0.658,0,0,0-.648-0.66H511.559a0.658,0.658,0,0,0-.648.66v7.74H508.06V5663h31.879v9.89h-2.85Zm5.615,2.8h-1.469v-34.38H542.7v34.38Z" transform="translate(-504 -5640)"/>
</svg>
