<svg xmlns="http://www.w3.org/2000/svg" width="31" height="40" viewBox="0 0 31 40">
  <defs>
    <style>
      .cls-1 {
        fill: #0088d2;
        fill-rule: evenodd;
      }
    </style>
  </defs>
  <path id="_7" data-name="7" class="cls-1" d="M520.17,5846.04v3.74h8.66v-3.74h-8.66Zm7.447,2.51h-6.234v-1.28h6.234v1.28Zm-12.412-23.23v11.27h18.589v-11.27H515.205Zm1.213,10.05v-8.82h6.828v0.73h-1.86v1.23H526.4v-1.23h-1.941v-0.73h8.124v8.82H516.418Zm0.635,3.76A1.87,1.87,0,1,0,518.9,5841,1.862,1.862,0,0,0,517.053,5839.13Zm0,2.52a0.645,0.645,0,1,1,.635-0.65A0.642,0.642,0,0,1,517.053,5841.65Zm14.894-2.52a1.87,1.87,0,1,0,1.847,1.87A1.862,1.862,0,0,0,531.947,5839.13Zm0,2.52a0.645,0.645,0,1,1,.635-0.65A0.642,0.642,0,0,1,531.947,5841.65Zm-12.42.02h9.944v1.23h-9.944v-1.23Zm0-1.88h9.944v1.23h-9.944v-1.23Zm0-1.88h9.944v1.23h-9.944v-1.23Zm9.317-5.69a2.48,2.48,0,0,0-2.468,2.5h1.213a1.255,1.255,0,1,1,2.51,0h1.213A2.48,2.48,0,0,0,528.844,5832.22Zm-11.824,15.75v1.8h-2.506v-1.8H513.3V5851h4.932v-3.03H517.02Zm17.383,0v1.8H531.9v-1.8h-1.213V5851h4.932v-3.03H534.4Zm5.6-12v-6.25h-3.7v3.77h-0.649v-10.05H513.344v10.05H512.7v-3.77H509v6.25h3.7v-1.25h0.649v9.49h-1.337v3.11h7.519v-1.23H513.22v-0.65H535.7v0.65h-6.226v1.23h7.438v-3.11h-1.253v-9.49H536.3v1.25H540Zm-2.482-5.03h1.269v3.8h-1.269v-3.8Zm-26.036,3.8h-1.269v-3.8h1.269v3.8Zm22.961,9.47H514.557v-19.54h19.886v19.54h0Zm-23.083-1.88v-4.42h-1.212v5.65h2.587v-1.23H511.36Zm26.2-4.42v4.42h-1.293v1.23h2.506v-5.65h-1.213Zm-27.408-25.03v16.2h1.212v-14.97h26.2v14.97h1.213v-16.2H510.148Zm0-1.88h28.621v1.23H510.148V5811Zm5.013,10.63h1.293v1.23h-1.293v-1.23Zm2.506,0h1.213v1.23h-1.213v-1.23Zm12.451,0h1.213v1.23h-1.213v-1.23Zm2.426,0h1.293v1.23h-1.293v-1.23Zm-14.877,11.86H522.6v1.23h-4.932v-1.23Zm5.579,0h1.294v1.23h-1.294v-1.23Z" transform="translate(-509 -5811)"/>
</svg>
