<svg xmlns="http://www.w3.org/2000/svg" width="32" height="40" viewBox="0 0 32 40">
  <defs>
    <style>
      .cls-1 {
        fill: #0088d2;
        fill-rule: evenodd;
      }
    </style>
  </defs>
  <path id="_8" data-name="8" class="cls-1" d="M1010.26,5289.58a13.711,13.711,0,1,0,13.04,18.32,0.6,0.6,0,0,0-.37-0.78,0.612,0.612,0,0,0-.79.37,12.469,12.469,0,0,1-.87,1.89c-0.55-.25-1.11-0.48-1.69-0.68a17.6,17.6,0,0,0,.8-4.8h2.47a10.859,10.859,0,0,1-.15,1.41,0.618,0.618,0,0,0,.52.7,0.6,0.6,0,0,0,.7-0.5A13.716,13.716,0,0,0,1010.26,5289.58Zm5.45,3.85a5.745,5.745,0,0,0-1.77-.04,10.293,10.293,0,0,0-1-2A8.427,8.427,0,0,1,1015.71,5293.43Zm-4.83-2.44a5.49,5.49,0,0,1,1.84,2.68,6.146,6.146,0,0,0-1.84,1.02v-3.7Zm3.79,3.58a4.958,4.958,0,0,1,4.89,5.02,5.052,5.052,0,0,1-3.15,4.7,1.077,1.077,0,0,0-.56.49l-1.18,2.08-1.17-2.08h0a1.138,1.138,0,0,0-.57-0.49,5.067,5.067,0,0,1-3.15-4.7A4.965,4.965,0,0,1,1014.67,5294.57Zm4.48,9.33a17.158,17.158,0,0,1-.74,4.4,24.566,24.566,0,0,0-2.75-.69l1.25-2.2a6.187,6.187,0,0,0,2.19-1.51h0.05Zm-5.66,3.37c-0.86-.1-1.73-0.15-2.61-0.17v-2.61a6.108,6.108,0,0,0,1.56.92Zm-3.85-16.28v5.04a6.218,6.218,0,0,0-.94,2.19c-0.68-.04-1.36-0.1-2.03-0.19a22.047,22.047,0,0,1,.92-3.8A6.2,6.2,0,0,1,1009.64,5290.99Zm-0.28,11.69h-3.08a34.439,34.439,0,0,1,.23-3.44c0.67,0.09,1.35.16,2.04,0.2v0.15A6.33,6.33,0,0,0,1009.36,5302.68Zm0.28,1.22v3.2a27.13,27.13,0,0,0-3.13.24,34.238,34.238,0,0,1-.23-3.44h3.36Zm-2.06-12.51a11.177,11.177,0,0,0-1.16,2.44,23.337,23.337,0,0,0-.97,4.01c-0.12-.02-0.24-0.04-0.36-0.07a0.631,0.631,0,0,0-.73.48,0.617,0.617,0,0,0,.49.72c0.14,0.03.29,0.06,0.43,0.08-0.13,1.16-.21,2.38-0.23,3.63h-3.67a16.336,16.336,0,0,1,.74-4.4c0.2,0.07.41,0.13,0.62,0.19a0.5,0.5,0,0,0,.17.02,0.612,0.612,0,0,0,.17-1.2c-0.18-.05-0.37-0.11-0.55-0.16A10.318,10.318,0,0,1,1007.58,5291.39Zm-2.3,16.14a25.121,25.121,0,0,0-3.16.77,16.336,16.336,0,0,1-.74-4.4h3.67C1005.07,5305.15,1005.15,5306.37,1005.28,5307.53Zm-1.2-15.12a14.6,14.6,0,0,0-1.05,1.26,14.349,14.349,0,0,0-1.67,3.06c-0.49-.18-0.97-0.37-1.435-0.58A12.8,12.8,0,0,1,1004.08,5292.41Zm-4.82,4.79c0.547,0.25,1.11.48,1.68,0.69a17.854,17.854,0,0,0-.8,4.79h-2.469A12.346,12.346,0,0,1,999.26,5297.2Zm-1.589,6.7h2.469a17.854,17.854,0,0,0,.8,4.79c-0.57.21-1.131,0.44-1.679,0.69A12.3,12.3,0,0,1,997.671,5303.9Zm2.253,6.53c0.466-.21.946-0.4,1.436-0.58a13.882,13.882,0,0,0,1.67,3.06,12.084,12.084,0,0,0,1.05,1.26A12.7,12.7,0,0,1,999.924,5310.43Zm2.606-.98a25.381,25.381,0,0,1,2.92-.71,23.111,23.111,0,0,0,.97,4.01,11.517,11.517,0,0,0,1.16,2.45A10.373,10.373,0,0,1,1002.53,5309.45Zm8.35,6.14v-1.86a0.62,0.62,0,0,0-1.24,0v1.86a6.158,6.158,0,0,1-2.05-3.24,21.822,21.822,0,0,1-.92-3.8,26.617,26.617,0,0,1,2.97-.23v2.88a0.62,0.62,0,1,0,1.24,0v-2.88a26.433,26.433,0,0,1,2.97.23,21.822,21.822,0,0,1-.92,3.8A6.158,6.158,0,0,1,1010.88,5315.59Zm2.06-.39a11.517,11.517,0,0,0,1.16-2.45,23.111,23.111,0,0,0,.97-4.01,25.549,25.549,0,0,1,2.93.71A10.351,10.351,0,0,1,1012.94,5315.2Zm7.67-4.77a12.664,12.664,0,0,1-4.17,3.74,12.981,12.981,0,0,0,1.05-1.26,14.339,14.339,0,0,0,1.68-3.06C1019.66,5310.03,1020.14,5310.22,1020.61,5310.43Zm-2.7-16.14c-0.13-.21-0.27-0.42-0.42-0.62a12.981,12.981,0,0,0-1.05-1.26,12.764,12.764,0,0,1,4.16,3.74c-0.21.1-.43,0.19-0.65,0.28A6.239,6.239,0,0,0,1017.91,5294.29Zm2.47,8.39c0-.25-0.02-0.5-0.04-0.74a6.259,6.259,0,0,0,.12-4.39c0.27-.11.54-0.23,0.8-0.35a12.206,12.206,0,0,1,1.59,5.48h-2.47Zm-5.71-6.16a3.07,3.07,0,1,0,1.08,5.94,0.614,0.614,0,0,0,.35-0.79,0.625,0.625,0,0,0-.8-0.35,1.681,1.681,0,0,1-.63.12,1.846,1.846,0,1,1,1.8-1.85,1.7,1.7,0,0,1-.07.51,0.613,0.613,0,0,0,.43.75,0.625,0.625,0,0,0,.77-0.42,3.336,3.336,0,0,0,.11-0.84A3.058,3.058,0,0,0,1014.67,5296.52Zm-2.89-15.14a0.621,0.621,0,0,0-.62.61,1.26,1.26,0,1,1-1.26-1.29,1.3,1.3,0,0,1,.67.19,0.611,0.611,0,0,0,.85-0.17,0.6,0.6,0,0,0-.18-0.85,2.447,2.447,0,0,0-1.34-.4,2.525,2.525,0,1,0,2.5,2.52A0.621,0.621,0,0,0,1011.78,5281.38Zm-1.88-4.38a4.953,4.953,0,0,0-4.9,4.99,5.035,5.035,0,0,0,3.07,4.64l1.29,2.28a0.616,0.616,0,0,0,1.08,0l1.29-2.28a5.035,5.035,0,0,0,3.07-4.64A4.953,4.953,0,0,0,1009.9,5277Zm1.3,8.52a1.039,1.039,0,0,0-.51.44l-0.79,1.4-0.79-1.4h0a1.039,1.039,0,0,0-.51-0.44,3.8,3.8,0,0,1-2.36-3.53,3.662,3.662,0,1,1,7.32,0A3.8,3.8,0,0,1,1011.2,5285.52Zm-13.157-1.97a4.087,4.087,0,0,0-4.043,4.12,4.154,4.154,0,0,0,2.489,3.8l1.014,1.79a0.615,0.615,0,0,0,1.079,0l1.014-1.79a4.157,4.157,0,0,0,2.494-3.8A4.093,4.093,0,0,0,998.043,5283.55Zm1,6.82a0.925,0.925,0,0,0-.469.41l-0.526.93-0.528-.93a0.923,0.923,0,0,0-.468-0.41,2.9,2.9,0,0,1-1.81-2.7,2.808,2.808,0,1,1,5.613,0A2.9,2.9,0,0,1,999.038,5290.37Zm-1-4.84a2.14,2.14,0,1,0,2.117,2.14A2.134,2.134,0,0,0,998.043,5285.53Zm0,3.05a0.916,0.916,0,1,1,.885-0.91A0.9,0.9,0,0,1,998.043,5288.58Zm23.917-5.03a4.093,4.093,0,0,0-4.05,4.12,4.149,4.149,0,0,0,2.49,3.8l1.02,1.79a0.607,0.607,0,0,0,.54.32,0.618,0.618,0,0,0,.54-0.32l1.01-1.79a4.149,4.149,0,0,0,2.49-3.8A4.085,4.085,0,0,0,1021.96,5283.55Zm0.99,6.82a0.939,0.939,0,0,0-.47.41l-0.52.93-0.53-.93a0.9,0.9,0,0,0-.47-0.41,2.9,2.9,0,0,1-1.81-2.7,2.807,2.807,0,1,1,5.61,0A2.89,2.89,0,0,1,1022.95,5290.37Zm-0.99-4.84a2.14,2.14,0,1,0,2.12,2.14A2.132,2.132,0,0,0,1021.96,5285.53Zm0,3.05a0.916,0.916,0,1,1,.88-0.91A0.9,0.9,0,0,1,1021.96,5288.58Z" transform="translate(-994 -5277)"/>
</svg>
