<svg xmlns="http://www.w3.org/2000/svg" width="40" height="40" viewBox="0 0 40 40">
  <defs>
    <style>
      .cls-1 {
        fill: #0088d2;
        fill-rule: evenodd;
      }
    </style>
  </defs>
  <path id="_1" data-name="1" class="cls-1" d="M542.292,5290.95l-3.349-.67a12.455,12.455,0,0,0-.849-2.04l1.895-2.85a2.129,2.129,0,0,0-.266-2.68l-1.436-1.43a2.121,2.121,0,0,0-2.68-.27l-2.842,1.9a11.807,11.807,0,0,0-2.049-.85l-0.67-3.35a2.132,2.132,0,0,0-2.083-1.71h-2.031a2.132,2.132,0,0,0-2.083,1.71l-0.67,3.35a11.775,11.775,0,0,0-2.049.85l-2.842-1.9a2.123,2.123,0,0,0-2.681.27l-1.436,1.43a2.13,2.13,0,0,0-.265,2.68l1.9,2.85a12.368,12.368,0,0,0-.849,2.04l-3.349.67a2.138,2.138,0,0,0-1.708,2.09v2.03a2.127,2.127,0,0,0,1.708,2.08l2.168,0.43a0.627,0.627,0,1,0,.247-1.23l-2.168-.44a0.858,0.858,0,0,1-.692-0.84v-2.03a0.868,0.868,0,0,1,.692-0.85l3.722-.74a0.636,0.636,0,0,0,.485-0.45,11.129,11.129,0,0,1,1.03-2.49,0.63,0.63,0,0,0-.024-0.66l-2.106-3.16a0.852,0.852,0,0,1,.108-1.08l1.436-1.44a0.871,0.871,0,0,1,1.086-.11l3.159,2.11a0.628,0.628,0,0,0,.66.02,11.2,11.2,0,0,1,2.488-1.03,0.625,0.625,0,0,0,.449-0.48l0.744-3.72a0.863,0.863,0,0,1,.845-0.7h2.031a0.861,0.861,0,0,1,.844.7l0.745,3.72a0.623,0.623,0,0,0,.449.48,11.175,11.175,0,0,1,2.487,1.03,0.63,0.63,0,0,0,.661-0.02l3.159-2.11a0.858,0.858,0,0,1,1.086.11l1.436,1.44a0.852,0.852,0,0,1,.108,1.08l-2.106,3.16a0.63,0.63,0,0,0-.025.66,11.179,11.179,0,0,1,1.031,2.49,0.636,0.636,0,0,0,.484.45l3.723,0.74a0.868,0.868,0,0,1,.692.85v2.03a0.858,0.858,0,0,1-.692.84l-3.723.75a0.62,0.62,0,0,0-.484.45,11.3,11.3,0,0,1-1.031,2.48,0.629,0.629,0,0,0,.025.66l2.106,3.16a0.869,0.869,0,0,1-.108,1.09l-1.436,1.44a0.87,0.87,0,0,1-1.086.1l-3.159-2.1a0.625,0.625,0,0,0-.876.17,0.637,0.637,0,0,0,.175.88l3.159,2.1a2.121,2.121,0,0,0,2.681-.26l1.436-1.44a2.129,2.129,0,0,0,.265-2.68l-1.895-2.84a12.559,12.559,0,0,0,.849-2.05l3.349-.67a2.127,2.127,0,0,0,1.708-2.08v-2.03A2.138,2.138,0,0,0,542.292,5290.95Zm-13.239,7.94h-5.895a0.638,0.638,0,0,0-.632.64,0.63,0.63,0,0,0,.632.63h5.895a1.052,1.052,0,0,1,1.052,1.05v0.84a1.06,1.06,0,0,1-1.052,1.06h-5.895a0.63,0.63,0,1,0,0,1.26h5.895a1.052,1.052,0,0,1,1.052,1.05v0.84a1.06,1.06,0,0,1-1.052,1.06h-5.895a0.63,0.63,0,1,0,0,1.26h5.895a1.052,1.052,0,0,1,1.052,1.05v0.84a1.06,1.06,0,0,1-1.052,1.06h-5.895a0.63,0.63,0,1,0,0,1.26h5.895a1.052,1.052,0,0,1,1.052,1.05v0.84a1.06,1.06,0,0,1-1.052,1.06H517.612a2.244,2.244,0,0,1-1.583-.66,3.52,3.52,0,0,0-2.483-1.03H512v-6.94a0.632,0.632,0,1,0-1.263,0v8.42a0.215,0.215,0,0,1-.211.21h-1.894v-8.64a0.632,0.632,0,0,0-1.264,0v8.64h-1.894a0.215,0.215,0,0,1-.211-0.21v-14.32a0.208,0.208,0,0,1,.211-0.21h5.052a0.208,0.208,0,0,1,.211.21v3.37a0.632,0.632,0,0,0,1.263,0v-1.9h1.523a2.307,2.307,0,0,0,2.2-1.58l0.235-.71a21.328,21.328,0,0,0,1.1-6.76,1.052,1.052,0,0,1,1.052-1.05,1.886,1.886,0,0,1,1.895,1.89v6.74a0.632,0.632,0,0,0,1.263,0v-6.74a3.15,3.15,0,0,0-3.158-3.15,2.312,2.312,0,0,0-2.316,2.31,20.11,20.11,0,0,1-1.033,6.37l-0.235.7a1.052,1.052,0,0,1-1,.72H512v-0.21a1.474,1.474,0,0,0-1.474-1.47h-5.052a1.474,1.474,0,0,0-1.474,1.47v14.32a1.474,1.474,0,0,0,1.474,1.47h5.052a1.474,1.474,0,0,0,1.474-1.47v-0.21h1.546a2.231,2.231,0,0,1,1.592.66,3.479,3.479,0,0,0,2.474,1.02h11.441a2.319,2.319,0,0,0,2.315-2.32v-0.84a2.314,2.314,0,0,1,0-3.37v-0.84a2.314,2.314,0,0,1,0-3.37v-0.84a2.314,2.314,0,0,1,0-3.37v-0.84A2.319,2.319,0,0,0,529.053,5298.89Zm-2.108-1.6a4.252,4.252,0,0,0,.5-0.03A3.3,3.3,0,1,0,526.945,5297.29Zm-0.3-5.19a1.979,1.979,0,1,1-1.65,2.26A1.978,1.978,0,0,1,526.642,5292.1Zm6.016,8.06a0.634,0.634,0,0,0,.457-0.2,8.549,8.549,0,0,0,.759-10.91,0.632,0.632,0,0,0-1.024.74,7.286,7.286,0,0,1-.648,9.3,0.628,0.628,0,0,0,.02.89A0.62,0.62,0,0,0,532.658,5300.16Zm-0.444-12.04a0.637,0.637,0,0,0-.124-0.89,8.54,8.54,0,0,0-12.641,2.73,0.635,0.635,0,0,0,.251.86,0.65,0.65,0,0,0,.3.07,0.621,0.621,0,0,0,.554-0.32,7.277,7.277,0,0,1,10.773-2.33A0.629,0.629,0,0,0,532.214,5288.12Z" transform="translate(-504 -5277)"/>
</svg>
