<svg xmlns="http://www.w3.org/2000/svg" width="40" height="36" viewBox="0 0 40 36">
  <defs>
    <style>
      .cls-1 {
        fill: #0088d2;
        fill-rule: evenodd;
      }
    </style>
  </defs>
  <path id="_12" data-name="12" class="cls-1" d="M1027.22,5660.93a5.508,5.508,0,0,0-1.78-1.14l-2.7-1.12-1.89-1.24v-0.63a5.093,5.093,0,0,0,2.7-3.72,2.4,2.4,0,0,0,1.47-4.02v-2.31a6.773,6.773,0,0,0-6.78-6.75h-0.51a6.761,6.761,0,0,0-6.55,5.01,7.193,7.193,0,0,0-1.86-.25h-0.54a6.963,6.963,0,0,0-1.95.28,6.768,6.768,0,0,0-6.56-5.04h-0.509a6.774,6.774,0,0,0-6.78,6.75v2.31a2.4,2.4,0,0,0-.637,1.63,2.423,2.423,0,0,0,2.1,2.39,5.117,5.117,0,0,0,2.7,3.72v0.63l-1.888,1.24-2.7,1.12a5.594,5.594,0,0,0-1.784,1.14,5.738,5.738,0,0,0-1.776,4.33v3.82a0.63,0.63,0,0,0,.632.63h7.93a6.979,6.979,0,0,0-.187,1.63v4.03a0.629,0.629,0,0,0,.631.63h14.844a0.63,0.63,0,0,0,0-1.26h-1.36l-0.76-4.7,0.3-.79,0.45,0.33a0.628,0.628,0,0,0,.37.12,0.772,0.772,0,0,0,.15-0.02,0.629,0.629,0,0,0,.42-0.34l1.72-3.51,2.29,0.95a0.147,0.147,0,0,0,.04.02,4.679,4.679,0,0,1,2.89,4.54v3.4h-2.62v-3.58a0.63,0.63,0,0,0-1.26,0v3.58h-0.67a0.63,0.63,0,1,0,0,1.26h5.18a0.636,0.636,0,0,0,.63-0.64v-4.02a6.836,6.836,0,0,0-.18-1.63h7.93a0.636,0.636,0,0,0,.63-0.64v-3.81A5.739,5.739,0,0,0,1027.22,5660.93Zm-4.86-8.66a3.871,3.871,0,0,1-3.88,3.85h-0.97a2.748,2.748,0,0,1-.41-0.02v-0.11a2.485,2.485,0,0,0-.67-1.7v-2.45a6.955,6.955,0,0,0-.73-3.12,9.159,9.159,0,0,0,4.27-2.19,4.513,4.513,0,0,0,2.39,2.39v3.35h0Zm-2.77,4.99v1.29l-1.62,1.67-1.57-1.52v-0.97h0a2.149,2.149,0,0,0,.32-0.41,5.156,5.156,0,0,0,.79.06h0.97A5.1,5.1,0,0,0,1019.59,5657.26Zm-3.75-1.27a1.226,1.226,0,0,1-.32.83,0.552,0.552,0,0,0-.28.24,1.511,1.511,0,0,1-.29.13v-2.39A1.245,1.245,0,0,1,1015.84,5655.99Zm8.55-5.3a1.159,1.159,0,0,1-.77,1.09v-2.18A1.159,1.159,0,0,1,1024.39,5650.69Zm-12.01-5.31a5.514,5.514,0,0,1,5.35-4.12h0.51a5.512,5.512,0,0,1,5.52,5.49v1.59a0.5,0.5,0,0,0-.16-0.03,0.612,0.612,0,0,0-.47-0.47c-1.77-.4-2.31-2.65-2.32-2.67a0.634,0.634,0,0,0-.49-0.48,0.642,0.642,0,0,0-.64.25,7.556,7.556,0,0,1-4.68,2.65,7.066,7.066,0,0,0-2.64-2.14A0.254,0.254,0,0,0,1012.38,5645.38Zm-3.6.64h0.54a5.845,5.845,0,0,1,5.85,5.82v1.72a1.892,1.892,0,0,0-.23-0.05v-0.02a0.037,0.037,0,0,1-.01-0.03c0-.01-0.01-0.02-0.01-0.03s-0.01-.02-0.01-0.03a0.037,0.037,0,0,1-.01-0.03c-0.01-.01-0.01-0.02-0.02-0.03a0.035,0.035,0,0,0-.01-0.02c-0.01-.01-0.01-0.02-0.02-0.03a0.022,0.022,0,0,0-.02-0.02c0-.01-0.01-0.02-0.01-0.03a0.022,0.022,0,0,1-.02-0.02l-0.02-.02-0.02-.02-0.03-.03c-0.01,0-.01-0.01-0.02-0.01a0.053,0.053,0,0,0-.03-0.02,0.038,0.038,0,0,0-.02-0.02c-0.01,0-.02-0.01-0.03-0.01s-0.02-.01-0.03-0.02a0.035,0.035,0,0,0-.02-0.01,0.06,0.06,0,0,0-.04-0.01c0-.01-0.01-0.01-0.02-0.01a0.06,0.06,0,0,0-.04-0.01,0.02,0.02,0,0,0-.02-0.01c-1.88-.43-2.46-2.81-2.46-2.84a0.636,0.636,0,0,0-.49-0.47,0.611,0.611,0,0,0-.64.25c-2.2,3.02-6.99,3.05-7.06,3.05h-0.09a0.06,0.06,0,0,0-.04.01h-0.02a0.09,0.09,0,0,1-.05.01c0,0.01-.01.01-0.02,0.01a0.037,0.037,0,0,1-.03.01c-0.01.01-.02,0.01-0.03,0.02s-0.02.01-.03,0.01-0.02.01-.03,0.02a0.035,0.035,0,0,1-.02.01,0.053,0.053,0,0,1-.03.02,0.038,0.038,0,0,1-.02.02l-0.02.02a1243955404.754,1243955404.754,0,0,0-.04.04l-0.02.02a0.053,0.053,0,0,0-.02.03l-0.02.02c-0.01.01-.01,0.02-0.02,0.03s-0.01.01-.01,0.02-0.01.02-.02,0.03a0.037,0.037,0,0,1-.01.03c0,0.01-.01.02-0.01,0.03s-0.01.02-.01,0.03-0.01.02-.01,0.03a0.037,0.037,0,0,1-.01.03h0c-0.08.01-.16,0.03-0.25,0.05v-1.72A5.845,5.845,0,0,1,1008.78,5646.02Zm0.26,20.07-1.7-1.64a0.076,0.076,0,0,0,.01-0.04v-1h0v-0.54a5.19,5.19,0,0,0,1.2.14h1.03a4.912,4.912,0,0,0,1.16-.13h0.04v1.41Zm0.93,2.38-0.33.87h-1.17l-0.38-.88,0.94-.68Zm-9.42-5.14h-1.073l-0.295-.79,0.858-.63,0.84,0.62Zm0.08,2.49a6.239,6.239,0,0,0-1.395.99,0.039,0.039,0,0,0-.021.02l0.363-2.25h0.853Zm-0.6-5.6-1.622-1.67v-1.29a5.066,5.066,0,0,0,1.109.12h0.973a4.6,4.6,0,0,0,.91-0.08,2.977,2.977,0,0,0,.2.29v0.14h0v0.97Zm2.64-.81a0.611,0.611,0,0,0,.19-0.52l0.55,0.36c0.07,0.2.14,0.38,0.22,0.56l-1.14,2.33-1.5-1.09Zm-0.38-3.42a1.248,1.248,0,0,1,.88-1.19v2.39A1.261,1.261,0,0,1,1002.29,5655.99Zm-0.36,7.31,0.42,0.31a0.628,0.628,0,0,0,.37.12,0.777,0.777,0,0,0,.16-0.02,0.635,0.635,0,0,0,.41-0.34l1.12-2.29a5.4,5.4,0,0,0,1.67,1.33v0.66l-2.02,1.33c-0.03.01-.06,0.01-0.08,0.02l-2.15.9-0.21-1.29Zm4.17,1.26a0.641,0.641,0,0,0,.17.6l1.81,1.75-1.65,1.21-1.39-2.86Zm3.48-2.81h-1.03a4.108,4.108,0,0,1-4.12-4.09v-3.42a11.05,11.05,0,0,0,6.72-2.69,4.734,4.734,0,0,0,2.54,2.55v3.56h0A4.1,4.1,0,0,1,1009.58,5661.75Zm-15.2-9.97a1.155,1.155,0,0,1,0-2.18v2.18Zm0.648-3.96h-0.016a0.632,0.632,0,0,0-.614.49,0.419,0.419,0,0,0-.155.03v-1.59a5.508,5.508,0,0,1,5.517-5.49h0.509a5.514,5.514,0,0,1,5.35,4.12,0.487,0.487,0,0,0,.04.11,6.99,6.99,0,0,0-2.19,1.65,4.368,4.368,0,0,1-.98-1.82,0.632,0.632,0,0,0-1.13-.23c-1.963,2.7-6.268,2.73-6.331,2.73h0Zm0.615,4.45v-3.22a10,10,0,0,0,6.006-2.38,5.144,5.144,0,0,0,1.06,1.49,6.985,6.985,0,0,0-1.04,3.68v2.48a2.487,2.487,0,0,0-.65,1.67c0,0.03.01,0.07,0.01,0.1a4.886,4.886,0,0,1-.54.03h-0.974A3.867,3.867,0,0,1,995.644,5652.27Zm1.515,6.66a0.649,0.649,0,0,0,.163.31l1.759,1.81-1.488,1.09-1.295-2.64Zm0.512,9.52h-3.723v-3.37a0.632,0.632,0,0,0-1.263,0v3.37h-2.422v-3.19a4.4,4.4,0,0,1,2.726-4.29,0.061,0.061,0,0,0,.041-0.01l2.144-.89,1.615,3.3a0.645,0.645,0,0,0,.416.34,0.782,0.782,0,0,0,.151.02,0.634,0.634,0,0,0,.375-0.12l0.393-.29,0.265,0.7Zm8.959,6.29h-4.11v-3.58a0.63,0.63,0,1,0-1.26,0v3.58h-2.622v-3.4a4.655,4.655,0,0,1,2.892-4.54,0.147,0.147,0,0,0,.04-0.02l2.34-.96,1.72,3.52a0.629,0.629,0,0,0,.42.34,0.772,0.772,0,0,0,.15.02,0.628,0.628,0,0,0,.37-0.12l0.48-.35,0.34,0.82Zm1.28,0,0.67-4.14h0.96l0.67,4.14h-2.3Zm3.71-6.63-0.5-.36h0l-1.14-.83,1.89-1.94a0.749,0.749,0,0,0,.17-0.36l0.97,0.64Zm4.55-2.79-2.12-.88-2.01-1.32h0v-0.71a5.217,5.217,0,0,0,1.59-1.24l1.08,2.2a0.635,0.635,0,0,0,.41.34,0.777,0.777,0,0,0,.16.02,0.628,0.628,0,0,0,.37-0.12l0.42-.31,0.31,0.73Zm-0.66-3.18-1.07-2.19a5.479,5.479,0,0,0,.3-0.8l0.4-.26a0.611,0.611,0,0,0,.19.52l1.68,1.64Zm3.25,4.67a6.1,6.1,0,0,0-1.39-.99l0.2-1.24h0.85l0.37,2.25A0.053,0.053,0,0,0,1018.76,5666.81Zm-0.24-3.48h-1.07l-0.34-.8,0.85-.62,0.86,0.63Zm0.4-2.28,1.76-1.81a0.661,0.661,0,0,0,.16-0.31l0.86,0.57-1.29,2.64Zm6.39,7.4v-3.37a0.63,0.63,0,1,0-1.26,0v3.37h-3.72l-0.72-4.43,0.27-.7,0.39,0.29a0.628,0.628,0,0,0,.37.12,0.772,0.772,0,0,0,.15-0.02,0.629,0.629,0,0,0,.42-0.34l1.62-3.3,2.14,0.89a0.06,0.06,0,0,0,.04.01,4.427,4.427,0,0,1,2.73,4.29v3.19h-2.43Z" transform="translate(-989 -5640)"/>
</svg>
