<svg xmlns="http://www.w3.org/2000/svg" width="38" height="40" viewBox="0 0 38 40">
  <defs>
    <style>
      .cls-1 {
        fill: #0088d2;
        fill-rule: evenodd;
      }
    </style>
  </defs>
  <path id="_4" data-name="4" class="cls-1" d="M512.457,5547a7.506,7.506,0,0,0-7.457,7.54,13.359,13.359,0,0,0,3.523,8.45,20.472,20.472,0,0,0,3.481,3.3,0.761,0.761,0,0,0,.907,0,20.514,20.514,0,0,0,3.481-3.3,13.359,13.359,0,0,0,3.523-8.45A7.507,7.507,0,0,0,512.457,5547Zm0,17.64c-1.452-1.17-5.881-5.16-5.881-10.1a5.882,5.882,0,1,1,11.763,0C518.339,5559.47,513.907,5563.46,512.457,5564.64Zm0-13.86a3.76,3.76,0,1,0,3.716,3.76A3.745,3.745,0,0,0,512.457,5550.78Zm0,5.92a2.16,2.16,0,1,1,2.14-2.16A2.153,2.153,0,0,1,512.457,5556.7Zm14.316,13.08a6.675,6.675,0,0,0-6.628,6.7c0,5.91,5.922,10.2,6.175,10.37a0.761,0.761,0,0,0,.907,0c0.252-.17,6.174-4.46,6.174-10.37A6.674,6.674,0,0,0,526.773,5569.78Zm0,15.42c-1.318-1.08-5.052-4.52-5.052-8.72a5.052,5.052,0,1,1,10.1,0C531.825,5580.68,528.091,5584.12,526.773,5585.2Zm0-12.11a3.39,3.39,0,1,0,3.352,3.39A3.375,3.375,0,0,0,526.773,5573.09Zm0,5.19a1.8,1.8,0,1,1,1.776-1.8A1.792,1.792,0,0,1,526.773,5578.28Zm4.828,7.13h-0.394a0.787,0.787,0,0,0-.788.79,0.8,0.8,0,0,0,.788.8H531.6a0.8,0.8,0,0,0,.788-0.8A0.787,0.787,0,0,0,531.6,5585.41Zm4.972-.24a0.778,0.778,0,0,0-1.025-.44c-0.112.04-.226,0.09-0.34,0.13a0.8,0.8,0,0,0,.265,1.55,0.828,0.828,0,0,0,.265-0.05l0.4-.15A0.806,0.806,0,0,0,536.573,5585.17Zm3.376-2.71a0.776,0.776,0,0,0-1.115.02c-0.083.09-.169,0.18-0.256,0.26a0.808,0.808,0,0,0-.019,1.13,0.787,0.787,0,0,0,.567.24,0.776,0.776,0,0,0,.548-0.22c0.1-.1.2-0.21,0.3-0.31A0.8,0.8,0,0,0,539.949,5582.46Zm1.967-3.89a0.8,0.8,0,0,0-1,.49c-0.04.12-.083,0.23-0.127,0.35a0.8,0.8,0,0,0,.443,1.03,0.745,0.745,0,0,0,.289.06,0.785,0.785,0,0,0,.734-0.51c0.052-.13.1-0.27,0.148-0.4A0.8,0.8,0,0,0,541.916,5578.57Zm1.055-3.63a0.788,0.788,0,1,0-1.57.14c0.011,0.12.019,0.24,0.025,0.37a0.79,0.79,0,0,0,.786.75h0.04a0.787,0.787,0,0,0,.748-0.83C542.993,5575.23,542.984,5575.08,542.971,5574.94Zm-1.175-4.1c-0.064-.12-0.132-0.25-0.2-0.37a0.775,0.775,0,0,0-1.074-.3,0.793,0.793,0,0,0-.3,1.08c0.06,0.11.118,0.22,0.173,0.32a0.776,0.776,0,0,0,1.062.35A0.811,0.811,0,0,0,541.8,5570.84Zm-2.948-3.61c-0.11-.09-0.223-0.18-0.338-0.26a0.786,0.786,0,0,0-1.1.17,0.809,0.809,0,0,0,.172,1.12c0.1,0.07.195,0.14,0.289,0.22a0.813,0.813,0,0,0,.489.17,0.776,0.776,0,0,0,.618-0.3A0.8,0.8,0,0,0,538.848,5567.23Zm-4.162-2.06c-0.136-.04-0.276-0.07-0.414-0.1a0.789,0.789,0,0,0-.931.62,0.8,0.8,0,0,0,.614.94c0.118,0.03.237,0.05,0.354,0.08a0.626,0.626,0,0,0,.189.03,0.8,0.8,0,0,0,.765-0.61A0.789,0.789,0,0,0,534.686,5565.17Zm-4.5-.32h-0.394a0.787,0.787,0,0,0-.788.79,0.8,0.8,0,0,0,.788.8h0.394a0.8,0.8,0,0,0,.788-0.8A0.787,0.787,0,0,0,530.188,5564.85Zm-4.334,0H525.46a0.787,0.787,0,0,0-.788.79,0.8,0.8,0,0,0,.788.8h0.394a0.8,0.8,0,0,0,.788-0.8A0.787,0.787,0,0,0,525.854,5564.85Zm-4.334,0h-0.394a0.786,0.786,0,0,0-.788.79,0.8,0.8,0,0,0,.788.8h0.394a0.8,0.8,0,0,0,.788-0.8A0.787,0.787,0,0,0,521.52,5564.85Zm-4.334,0h-0.394a0.786,0.786,0,0,0-.788.79,0.8,0.8,0,0,0,.788.8h0.394a0.8,0.8,0,0,0,.788-0.8A0.787,0.787,0,0,0,517.186,5564.85Z" transform="translate(-505 -5547)"/>
</svg>
