<svg xmlns="http://www.w3.org/2000/svg" width="40" height="40" viewBox="0 0 40 40">
  <defs>
    <style>
      .cls-1 {
        fill: #0088d2;
        fill-rule: evenodd;
      }
    </style>
  </defs>
  <path id="_13" data-name="13" class="cls-1" d="M996.806,5740.71H998.1V5742h-1.291v-1.29Zm-1.29-1.94h1.29v1.29h-1.29v-1.29Zm5.8,3.23h1.29v1.29h-1.29V5742Zm2.58-1.29h1.29V5742h-1.29v-1.29Zm18.71,18.71a3.87,3.87,0,1,0-3.87-3.87A3.873,3.873,0,0,0,1022.61,5759.42Zm-2.47-4.56,1.03,0.6,0.65-1.12-1.05-.6a2.616,2.616,0,0,1,1.2-.68v1.2h1.29v-1.2a2.534,2.534,0,0,1,1.19.68l-1.04.6,0.64,1.12,1.04-.6a2.614,2.614,0,0,1,.1.69,2.54,2.54,0,0,1-.1.68l-1.04-.6-0.64,1.12,1.04,0.6a2.551,2.551,0,0,1-1.19.69v-1.2h-1.29v1.2a2.634,2.634,0,0,1-1.2-.69l1.05-.6-0.65-1.12-1.03.6a2.545,2.545,0,0,1-.11-0.68A2.619,2.619,0,0,1,1020.14,5754.86Zm9.57,5.85V5749.1h-1.29v-3.87h-1.94v-7.37a4.464,4.464,0,0,0,.65-2.31,4.513,4.513,0,0,0-2.1-3.81l-5.83-6.52a4.511,4.511,0,0,0-8.11-1.16l-7.52,7.14a3.385,3.385,0,0,0-1.06,2.42,3.486,3.486,0,0,0,.54,1.87l-3.474,3.47,0.914,0.92,3.45-3.46a3.415,3.415,0,0,0,1.97.65,3.361,3.361,0,0,0,2.31-.91l5.68-5.24a2.9,2.9,0,0,0,.59.09l3.63,4.08a3.464,3.464,0,0,0-.02.46,4.552,4.552,0,0,0,.64,2.31v7.37h-1.93v3.87h-1.29v11.61H1003.9V5749.1h-1.29v-1.29h1.29v-1.29h-1.35a3.23,3.23,0,0,0-3.163-2.58h-5.806v2.58H992.29v1.29h1.291v1.29H992.29v11.61H991V5762h40v-1.29h-1.29Zm-34.839-15.48h4.516a1.917,1.917,0,0,1,1.813,1.29h-6.329v-1.29Zm0,2.58h6.449v1.29h-6.449v-1.29Zm7.739,6.45h-1.29v1.29h1.29v5.16h-9.029v-5.16h6.449v-1.29h-6.449v-3.87h9.029v3.87Zm23.23-18.71a3.225,3.225,0,1,1-3.23-3.23A3.226,3.226,0,0,1,1025.84,5735.55Zm-0.65,3.7v5.98h-5.16v-5.98A4.514,4.514,0,0,0,1025.19,5739.25Zm-17.84-4.04a2.1,2.1,0,0,1-3.54-1.57,2.1,2.1,0,0,1,.65-1.51l5.9-5.6a4.487,4.487,0,0,0,2.21,3.86Zm7.52-5.47a3.225,3.225,0,1,1,3.23-3.22,3.224,3.224,0,0,1-3.23,3.22h0Zm3.67,3.88-2.46-2.76a4.527,4.527,0,0,0,3.24-3.57l3.35,3.74h-0.06A4.5,4.5,0,0,0,1018.54,5733.62Zm-0.44,12.9h9.03v2.58h-9.03v-2.58Zm10.32,14.19h-11.61v-10.32h11.61v10.32Z" transform="translate(-991 -5722)"/>
</svg>
