<svg xmlns="http://www.w3.org/2000/svg" width="39" height="40" viewBox="0 0 39 40">
  <defs>
    <style>
      .cls-1 {
        fill: #0088d2;
        fill-rule: evenodd;
      }
    </style>
  </defs>
  <path id="_10" data-name="10" class="cls-1" d="M1020.28,5481.38h-15.5a0.625,0.625,0,1,0,0,1.25h2.07v4.72a0.637,0.637,0,0,0,.98.52l1.67-1.1,1.67,1.1a0.637,0.637,0,0,0,.98-0.52v-4.72h7.5v16.12h-20.3v-16.12h2.74a0.625,0.625,0,1,0,0-1.25h-3.372a0.628,0.628,0,0,0-.632.62v17.37a0.63,0.63,0,0,0,.632.63h21.562a0.627,0.627,0,0,0,.63-0.63V5482A0.625,0.625,0,0,0,1020.28,5481.38Zm-9.39,4.8-1.04-.69a0.636,0.636,0,0,0-.7,0l-1.04.69v-3.55h2.78v3.55Zm-4.99,9.41-2.02-2a0.622,0.622,0,0,0-.89,0l-2.02,2a0.622,0.622,0,0,0,0,.89,0.64,0.64,0,0,0,.89,0l0.94-.94v1.83a0.635,0.635,0,0,0,1.27,0v-1.83l0.94,0.94a0.653,0.653,0,0,0,.93-0.04A0.631,0.631,0,0,0,1005.9,5495.59Zm12.13,0-2.02-2a0.622,0.622,0,0,0-.89,0l-2.02,2a0.622,0.622,0,0,0,0,.89,0.64,0.64,0,0,0,.89,0l0.94-.94v1.83a0.635,0.635,0,0,0,1.27,0v-1.83l0.94,0.94a0.653,0.653,0,0,0,.93-0.04A0.631,0.631,0,0,0,1018.03,5495.59Zm-3.14-6.86h-10.78a0.625,0.625,0,0,0-.63.62v2.67a0.627,0.627,0,0,0,.63.63h10.78a0.627,0.627,0,0,0,.63-0.63v-2.67A0.625,0.625,0,0,0,1014.89,5488.73Zm-0.63,2.67h-9.52v-1.42h9.52v1.42Zm0.63-7.35a0.627,0.627,0,0,0-.63.63v1.33a0.63,0.63,0,0,0,1.26,0v-1.33A0.627,0.627,0,0,0,1014.89,5484.05Zm2.02,0a0.627,0.627,0,0,0-.63.63v1.33a0.63,0.63,0,0,0,1.26,0v-1.33A0.627,0.627,0,0,0,1016.91,5484.05Zm-12.8,0a0.627,0.627,0,0,0-.63.63v1.33a0.63,0.63,0,0,0,1.26,0v-1.33A0.627,0.627,0,0,0,1004.11,5484.05Zm-2.02,0a0.627,0.627,0,0,0-.63.63v1.33a0.63,0.63,0,1,0,1.26,0v-1.33A0.627,0.627,0,0,0,1002.09,5484.05Zm26.28-3.34c-0.76,0-1.39-.94-1.39-2.05a0.625,0.625,0,0,0-.63-0.62,0.634,0.634,0,0,0-.64.62c0,1.11-.63,2.05-1.39,2.05a0.625,0.625,0,1,0,0,1.25c0.76,0,1.39.94,1.39,2.05a0.634,0.634,0,0,0,.64.62,0.625,0.625,0,0,0,.63-0.62c0-1.11.63-2.05,1.39-2.05A0.625,0.625,0,1,0,1028.37,5480.71Zm-2.02,1.16a3.017,3.017,0,0,0-.47-0.53,3.5,3.5,0,0,0,.47-0.54,2.985,2.985,0,0,0,.46.54A2.618,2.618,0,0,0,1026.35,5481.87Zm-8.09-19.2c-0.75,0-1.39-.93-1.39-2.04a0.63,0.63,0,0,0-1.26,0c0,1.11-.64,2.04-1.39,2.04a0.625,0.625,0,1,0,0,1.25c0.75,0,1.39.94,1.39,2.05a0.63,0.63,0,0,0,1.26,0c0-1.11.64-2.05,1.39-2.05A0.625,0.625,0,1,0,1018.26,5462.67Zm-2.02,1.17a2.764,2.764,0,0,0-.47-0.54,3.5,3.5,0,0,0,.47-0.54,3.038,3.038,0,0,0,.47.54A2.468,2.468,0,0,0,1016.24,5463.84Zm-11.46-1.17c-0.75,0-1.39-.93-1.39-2.04a0.63,0.63,0,0,0-1.26,0c0,1.11-.64,2.04-1.39,2.04a0.625,0.625,0,1,0,0,1.25c0.75,0,1.39.94,1.39,2.05a0.63,0.63,0,0,0,1.26,0c0-1.11.64-2.05,1.39-2.05A0.625,0.625,0,1,0,1004.78,5462.67Zm-2.02,1.17a2.468,2.468,0,0,0-.47-0.54,3.038,3.038,0,0,0,.47-0.54,3.5,3.5,0,0,0,.47.54A2.764,2.764,0,0,0,1002.76,5463.84Zm-8.085,16.87c-0.753,0-1.39-.94-1.39-2.05a0.632,0.632,0,0,0-1.263,0c0,1.11-.637,2.05-1.39,2.05a0.625,0.625,0,1,0,0,1.25c0.753,0,1.39.94,1.39,2.05a0.632,0.632,0,0,0,1.263,0c0-1.11.637-2.05,1.39-2.05A0.625,0.625,0,1,0,994.675,5480.71Zm-2.022,1.16a2.85,2.85,0,0,0-.467-0.53,3.284,3.284,0,0,0,.467-0.54,3.243,3.243,0,0,0,.468.54A2.819,2.819,0,0,0,992.653,5481.87Zm31-18.53a1.974,1.974,0,0,0-1.98,1.96,1.941,1.941,0,0,0,.81,1.58l-8.13,5.59-4.17-5.32a1.98,1.98,0,1,0-1.36,0l-4.17,5.32-8.132-5.59a1.938,1.938,0,0,0,.81-1.58,1.98,1.98,0,1,0-1.979,1.97,0.074,0.074,0,0,1,.045-0.01,0.622,0.622,0,0,0,.025.23l2.667,8.6V5480a0.63,0.63,0,0,0,.632.63h21.562a0.627,0.627,0,0,0,.63-0.63v-3.91l2.67-8.6a0.852,0.852,0,0,0,.03-0.23,0.06,0.06,0,0,1,.04.01A1.965,1.965,0,1,0,1023.65,5463.34Zm-28.3,2.67a0.71,0.71,0,1,1,.716-0.71A0.715,0.715,0,0,1,995.349,5466.01Zm13.431-.71a0.72,0.72,0,1,1,.72.71A0.721,0.721,0,0,1,1008.78,5465.3Zm10.87,14.07h-20.3v-2.75h20.3v2.75h0Zm0.17-4H999.185l-2.022-6.52,7.257,4.98a0.628,0.628,0,0,0,.86-0.13l4.22-5.37,4.22,5.37a0.628,0.628,0,0,0,.86.13l7.26-4.98Zm3.83-9.36a0.71,0.71,0,1,1,.72-0.71A0.713,0.713,0,0,1,1023.65,5466.01Z" transform="translate(-990 -5460)"/>
</svg>
