<svg xmlns="http://www.w3.org/2000/svg" width="40" height="40" viewBox="0 0 40 40">
  <defs>
    <style>
      .cls-1 {
        fill: #0088d2;
        fill-rule: evenodd;
      }
    </style>
  </defs>
  <path id="_11" data-name="11" class="cls-1" d="M1025.65,5565.11a5.365,5.365,0,0,0-5.13,3.8h-0.8v-6.9a5.6,5.6,0,0,0-5.6-5.58h-0.66a0.623,0.623,0,0,0-.62.62v11.86h-11.91a0.617,0.617,0,0,0-.62.62v0.66a5.593,5.593,0,0,0,5.6,5.58h2.56a0.62,0.62,0,0,0,0-1.24h-2.56a4.353,4.353,0,0,1-4.36-4.34v-0.04h18.75c0,0.1-.01.19-0.01,0.29a5.306,5.306,0,0,0,1.93,4.09h-10.68a0.62,0.62,0,1,0,0,1.24h1.3v0.79a5.335,5.335,0,1,0,6.88,5.26v-6.05h5.93A5.33,5.33,0,1,0,1025.65,5565.11Zm-7.17,3.8h-4.4v-11.24h0.04a4.353,4.353,0,0,1,4.36,4.34v6.9h0Zm-4.11,16.85a4.09,4.09,0,1,1,4.11-4.09A4.112,4.112,0,0,1,1014.37,5585.76Zm4.11-7.5a5.356,5.356,0,0,0-4.11-1.92,2.81,2.81,0,0,0-.29.01v-0.58h4.4v2.49h0Zm7.17-3.73a4.09,4.09,0,1,1,4.11-4.09A4.1,4.1,0,0,1,1025.65,5574.53Zm0-6.61a2.52,2.52,0,1,0,2.53,2.52A2.524,2.524,0,0,0,1025.65,5567.92Zm0,3.8a1.28,1.28,0,1,1,1.28-1.28A1.285,1.285,0,0,1,1025.65,5571.72Zm-11.28,7.43a2.52,2.52,0,1,0,2.53,2.52A2.531,2.531,0,0,0,1014.37,5579.15Zm0,3.8a1.28,1.28,0,1,1,1.29-1.28A1.276,1.276,0,0,1,1014.37,5582.95Zm3.12-11.88a1.787,1.787,0,0,0-2.52,0,1.787,1.787,0,0,0,0,2.52,1.787,1.787,0,0,0,2.52,0A1.787,1.787,0,0,0,1017.49,5571.07Zm-0.88,1.64a0.531,0.531,0,1,1,.16-0.38A0.546,0.546,0,0,1,1016.61,5572.71Zm-9.93-25.71h-2.52a0.62,0.62,0,0,0,0,1.24h2.52A0.62,0.62,0,1,0,1006.68,5547Zm-10.055,0H994.1a0.62,0.62,0,1,0,0,1.24h2.527A0.62,0.62,0,1,0,996.625,5547Zm5.025,0h-2.512a0.62,0.62,0,1,0,0,1.24h2.512A0.62,0.62,0,1,0,1001.65,5547Zm9.72,3.89a0.623,0.623,0,0,0-.62.62v2.51a0.625,0.625,0,0,0,1.25,0v-2.51A0.625,0.625,0,0,0,1011.37,5550.89Zm0.33-2.11a3.1,3.1,0,0,0-2.44-1.76,0.62,0.62,0,1,0-.15,1.23,1.9,1.9,0,0,1,1.46,1.06,0.641,0.641,0,0,0,.57.36,0.583,0.583,0,0,0,.26-0.06A0.624,0.624,0,0,0,1011.7,5548.78Zm-0.33,12.12a0.623,0.623,0,0,0-.62.62v2.51a0.625,0.625,0,0,0,1.25,0v-2.51A0.625,0.625,0,0,0,1011.37,5560.9Zm-0.05,5.03a0.617,0.617,0,0,0-.85.2,1.884,1.884,0,0,1-1.58.87,0.617,0.617,0,0,0-.62.62,0.623,0.623,0,0,0,.62.62h0a3.1,3.1,0,0,0,2.63-1.45A0.62,0.62,0,0,0,1011.32,5565.93Zm0.05-10.03a0.623,0.623,0,0,0-.62.62v2.5a0.625,0.625,0,0,0,1.25,0v-2.5A0.625,0.625,0,0,0,1011.37,5555.9Zm-19.041-7.64a0.627,0.627,0,0,0-.858.2,3.085,3.085,0,0,0-.471,1.64v1.12a0.623,0.623,0,0,0,1.245,0v-1.12a1.82,1.82,0,0,1,.282-0.98A0.625,0.625,0,0,0,992.329,5548.26Zm0.094,17.67a1.787,1.787,0,0,1-.178-0.79v-1.41a0.623,0.623,0,0,0-1.245,0v1.41a3.041,3.041,0,0,0,.3,1.32,0.618,0.618,0,0,0,.563.36A0.624,0.624,0,0,0,992.423,5565.93Zm-0.8-12.83a0.623,0.623,0,0,0-.622.62v2.5a0.623,0.623,0,0,0,1.245,0v-2.5A0.623,0.623,0,0,0,991.622,5553.1Zm0,5.01a0.617,0.617,0,0,0-.622.62v2.5a0.623,0.623,0,0,0,1.245,0v-2.5A0.617,0.617,0,0,0,991.622,5558.11Zm9.728,8.89h-2.513a0.62,0.62,0,1,0,0,1.24h2.513A0.62,0.62,0,1,0,1001.35,5567Zm-5.026,0h-2.212a1.694,1.694,0,0,1-.226-0.01,0.619,0.619,0,1,0-.148,1.23c0.123,0.01.249,0.02,0.374,0.02h2.212A0.62,0.62,0,1,0,996.324,5567Zm10.056,0h-2.52a0.62,0.62,0,0,0,0,1.24h2.52A0.62,0.62,0,1,0,1006.38,5567Zm-4.88-17.44a8.06,8.06,0,1,0,8.09,8.06A8.087,8.087,0,0,0,1001.5,5549.56Zm0,14.88a6.82,6.82,0,1,1,6.84-6.82A6.842,6.842,0,0,1,1001.5,5564.44Zm-2.232-10.98a1.94,1.94,0,1,0,1.952,1.94A1.947,1.947,0,0,0,999.268,5553.46Zm0,2.64a0.7,0.7,0,1,1,.7-0.7A0.7,0.7,0,0,1,999.268,5556.1Zm4.462,1.8a1.94,1.94,0,1,0,1.95,1.94A1.944,1.944,0,0,0,1003.73,5557.9Zm0,2.64a0.7,0.7,0,1,1,0-1.4A0.7,0.7,0,1,1,1003.73,5560.54Zm1.52-6.65a0.61,0.61,0,0,0-.88,0l-6.474,6.44a0.623,0.623,0,0,0,0,.88c-0.054-.06-0.162-0.16,0,0,0.04,0.04.026,0.02,0,0a0.628,0.628,0,0,0,.88,0l6.474-6.45A0.616,0.616,0,0,0,1005.25,5553.89Z" transform="translate(-991 -5547)"/>
</svg>
