<svg xmlns="http://www.w3.org/2000/svg" width="40" height="35" viewBox="0 0 40 35">
  <defs>
    <style>
      .cls-1 {
        fill: #0088d2;
        fill-rule: evenodd;
      }
    </style>
  </defs>
  <path id="_3" data-name="3" class="cls-1" d="M540.7,5482.84h-3.382v-7.32a3.289,3.289,0,0,0-3.3-3.27H527.3v-4.01a0.626,0.626,0,0,0-1.252,0v14.6H505.253v-20.6h6.764v7.99a0.633,0.633,0,0,0,.948.53l3.018-1.8,3.018,1.8a0.634,0.634,0,0,0,.949-0.53v-7.99h6.1v3.35a0.626,0.626,0,0,0,1.252,0v-3.97a0.624,0.624,0,0,0-.626-0.62H504.626a0.624,0.624,0,0,0-.626.62v31.11a0.624,0.624,0,0,0,.626.62h2.484a4.649,4.649,0,0,0,8.394,0H532.5a4.649,4.649,0,0,0,8.394,0h2.484a0.624,0.624,0,0,0,.626-0.62v-6.62A3.29,3.29,0,0,0,540.7,5482.84Zm-27.432-20.6H518.7v6.89l-2.392-1.42a0.621,0.621,0,0,0-.644,0l-2.392,1.42v-6.89Zm-1.962,32.52a3.35,3.35,0,1,1,3.382-3.35A3.368,3.368,0,0,1,511.307,5494.76Zm14.739-2.65H515.887a4.488,4.488,0,0,0,.054-0.7,4.635,4.635,0,0,0-9.269,0,4.488,4.488,0,0,0,.055.7h-1.474v-8.03h20.793v8.03Zm1.252-18.62h6.723a2.04,2.04,0,0,1,2.046,2.03v7.32H527.3v-9.35Zm9.395,21.27a3.35,3.35,0,1,1,3.382-3.35A3.368,3.368,0,0,1,536.693,5494.76Zm6.054-2.65h-1.474a4.488,4.488,0,0,0,.055-0.7,4.635,4.635,0,0,0-9.27,0,4.488,4.488,0,0,0,.055.7H527.3v-8.03h13.4a2.04,2.04,0,0,1,2.046,2.03v6h0Zm-6.054-3.31a2.605,2.605,0,1,0,2.63,2.61A2.623,2.623,0,0,0,536.693,5488.8Zm0,3.97a1.365,1.365,0,1,1,1.378-1.36A1.37,1.37,0,0,1,536.693,5492.77Zm-25.386-3.97a2.605,2.605,0,1,0,2.63,2.61A2.623,2.623,0,0,0,511.307,5488.8Zm0,3.97a1.365,1.365,0,1,1,1.378-1.36A1.37,1.37,0,0,1,511.307,5492.77Zm18.7-7.94h-1.336a0.62,0.62,0,1,0,0,1.24h1.336A0.62,0.62,0,1,0,530.012,5484.83Zm3.341-10.59h-4.677a0.624,0.624,0,0,0-.626.62v6.62a0.624,0.624,0,0,0,.626.62h6.013a0.624,0.624,0,0,0,.626-0.62v-5.3A1.953,1.953,0,0,0,533.353,5474.24Zm0.709,6.62H529.3v-5.38h4.05a0.709,0.709,0,0,1,.709.7v4.68Zm-26.764-1.99a0.625,0.625,0,0,0-.626.62v1.99a0.627,0.627,0,0,0,1.253,0v-1.99A0.625,0.625,0,0,0,507.3,5478.87Zm2,0a0.625,0.625,0,0,0-.627.62v1.99a0.627,0.627,0,0,0,1.253,0v-1.99A0.624,0.624,0,0,0,509.3,5478.87Zm12.693,0a0.625,0.625,0,0,0-.627.62v1.99a0.627,0.627,0,0,0,1.253,0v-1.99A0.624,0.624,0,0,0,522,5478.87Zm2,0a0.624,0.624,0,0,0-.626.62v1.99a0.626,0.626,0,0,0,1.252,0v-1.99A0.624,0.624,0,0,0,524,5478.87Zm-11.357,0a0.624,0.624,0,0,0-.626.62v1.99a0.626,0.626,0,0,0,1.252,0v-1.99A0.624,0.624,0,0,0,512.643,5478.87Zm2,0a0.624,0.624,0,0,0-.626.62v1.99a0.626,0.626,0,0,0,1.252,0v-1.99A0.624,0.624,0,0,0,514.647,5478.87Zm2,0a0.624,0.624,0,0,0-.626.62v1.99a0.627,0.627,0,0,0,1.253,0v-1.99A0.625,0.625,0,0,0,516.651,5478.87Zm2,0a0.625,0.625,0,0,0-.626.62v1.99a0.627,0.627,0,0,0,1.253,0v-1.99A0.625,0.625,0,0,0,518.655,5478.87Zm4.677-6.62h-14.7a0.625,0.625,0,0,0-.627.62v2.65a0.625,0.625,0,0,0,.627.62h14.7a0.624,0.624,0,0,0,.626-0.62v-2.65A0.624,0.624,0,0,0,523.332,5472.25Zm-0.627,2.65H509.261v-1.41h13.444v1.41h0Z" transform="translate(-504 -5461)"/>
</svg>
