<svg xmlns="http://www.w3.org/2000/svg" width="40" height="33" viewBox="0 0 40 33">
  <defs>
    <style>
      .cls-1 {
        fill: #0088d2;
        fill-rule: evenodd;
      }
    </style>
  </defs>
  <path id="_9" data-name="9" class="cls-1" d="M1029.35,5397.76v-13.2l-1.88-.66v-14.76h-17.43v10.35l-3.43,1.21-1.03-14.7h-4.91L1000,5383.02l-1.32.47L997.448,5366H992.54l-1.252,31.76H990V5399h40v-1.24h-0.65Zm-18.09-27.38h14.99v13.09l-13.77-4.84-1.22.43v-8.68Zm-9.42-3.14h2.6l0.13,1.9h-2.8Zm-0.12,3.14h2.94l0.14,1.91h-3.15Zm-0.12,3.15h3.28l0.05,0.66h-3.36Zm-0.08,1.9h3.5l0.4,5.69-4.18,1.47Zm-7.806-8.19h2.6l0.134,1.9h-2.8Zm-0.124,3.14h2.942l0.133,1.91h-3.15Zm-0.124,3.15,3.289,0.03,0.045,0.63h-3.36Zm2.155,24.23h-3.11l0.88-22.33,3.5,0.03,0.6,8.45-1.863.65v13.2h0Zm19.389,0H999.369v-0.75h15.641v0.75Zm0-3.89h-14.99v1.24h14.99v0.66H999.369v-2.56h14.991v-1.24H999.369v-0.66h15.641v2.56Zm10.67,3.89h-6.92v-1.32h6.92v1.32Zm0-2.57h-6.92v-0.66h6.92v0.66Zm2.45,2.57h-1.23v-4.47h-9.36v4.47h-1.31v-7.69H998.147v7.69h-1.3v-12.31l15.637-5.5,15.65,5.5v12.31h0Zm-16.23-26.71v5.69h13.73v-5.69H1011.9Zm3.11,4.45h-1.88v-0.65h1.88v0.65Zm6.27,0h-5.05v-0.65h5.05v0.65Zm3.13,0h-1.91v-0.65h1.91v0.65Zm0-1.89h-11.28v-1.32h11.28v1.32Zm-26.265,12.04v3.78h18.105v-3.78H998.145Zm4.975,2.54h-3.753v-1.3h3.753v1.3Zm6.92,0h-5.7v-1.3h5.7v1.3Zm4.99,0h-3.77v-1.3h3.77v1.3Zm2.5-2.54v6.32h9.35v-6.32h-9.35Zm2.53,5.08h-1.31v-3.84h1.31v3.84h0Zm3.1,0h-1.88v-3.84h1.88v3.84Zm2.5,0h-1.28v-3.84h1.28v3.84Zm-11.39-8.27a1.857,1.857,0,0,0-3.51,0h-4.47v1.24h4.46a1.852,1.852,0,0,0,3.53,0h4.48v-1.24h-4.49Zm-1.76,1.29a0.65,0.65,0,1,1,.64-0.65A0.647,0.647,0,0,1,1012.51,5383.75Z" transform="translate(-990 -5366)"/>
</svg>
