<svg xmlns="http://www.w3.org/2000/svg" width="38" height="40" viewBox="0 0 38 40">
  <defs>
    <style>
      .cls-1 {
        fill: #0088d2;
        fill-rule: evenodd;
      }
    </style>
  </defs>
  <path id="_2" data-name="2" class="cls-1" d="M537.793,5368H506.207a3.191,3.191,0,0,0-3.207,3.17v33.66a3.191,3.191,0,0,0,3.207,3.17h31.586a3.191,3.191,0,0,0,3.207-3.17v-33.66A3.191,3.191,0,0,0,537.793,5368Zm1.593,36.83a1.589,1.589,0,0,1-1.593,1.58H506.207a1.59,1.59,0,0,1-1.594-1.58v-33.66a1.59,1.59,0,0,1,1.594-1.58h31.586a1.589,1.589,0,0,1,1.593,1.58v33.66h0Zm-2.7-33.4H507.316a0.8,0.8,0,0,0-.807.79v5.9a0.805,0.805,0,0,0,.807.8h29.368a0.8,0.8,0,0,0,.806-0.8v-5.9A0.8,0.8,0,0,0,536.684,5371.43Zm-0.807,5.89H508.123v-4.3h27.754v4.3h0Zm-23.328,4.39h-5.233a0.8,0.8,0,0,0-.807.79v2.84a0.805,0.805,0,0,0,.807.8h5.233a0.805,0.805,0,0,0,.807-0.8v-2.84A0.8,0.8,0,0,0,512.549,5381.71Zm-0.807,2.83h-3.619v-1.24h3.619v1.24Zm8.852-2.83h-5.233a0.8,0.8,0,0,0-.807.79v2.84a0.805,0.805,0,0,0,.807.8h5.233a0.8,0.8,0,0,0,.806-0.8v-2.84A0.8,0.8,0,0,0,520.594,5381.71Zm-0.807,2.83h-3.619v-1.24h3.619v1.24Zm8.852-2.83h-5.233a0.8,0.8,0,0,0-.807.79v2.84a0.805,0.805,0,0,0,.807.8h5.233a0.8,0.8,0,0,0,.806-0.8v-2.84A0.8,0.8,0,0,0,528.639,5381.71Zm-0.807,2.83h-3.619v-1.24h3.619v1.24Zm8.852-2.83h-5.233a0.8,0.8,0,0,0-.807.79v2.84a0.805,0.805,0,0,0,.807.8h5.233a0.8,0.8,0,0,0,.806-0.8v-2.84A0.8,0.8,0,0,0,536.684,5381.71Zm-0.807,2.83h-3.619v-1.24h3.619v1.24Zm-23.328,3.03h-5.233a0.805,0.805,0,0,0-.807.8v2.83a0.805,0.805,0,0,0,.807.8h5.233a0.805,0.805,0,0,0,.807-0.8v-2.83A0.805,0.805,0,0,0,512.549,5387.57Zm-0.807,2.84h-3.619v-1.25h3.619v1.25Zm8.852-2.84h-5.233a0.805,0.805,0,0,0-.807.8v2.83a0.805,0.805,0,0,0,.807.8h5.233a0.8,0.8,0,0,0,.806-0.8v-2.83A0.8,0.8,0,0,0,520.594,5387.57Zm-0.807,2.84h-3.619v-1.25h3.619v1.25Zm8.852-2.84h-5.233a0.805,0.805,0,0,0-.807.8v2.83a0.805,0.805,0,0,0,.807.8h5.233a0.8,0.8,0,0,0,.806-0.8v-2.83A0.8,0.8,0,0,0,528.639,5387.57Zm-0.807,2.84h-3.619v-1.25h3.619v1.25Zm8.852-2.84h-5.233a0.805,0.805,0,0,0-.807.8v2.83a0.805,0.805,0,0,0,.807.8h5.233a0.8,0.8,0,0,0,.806-0.8v-2.83A0.8,0.8,0,0,0,536.684,5387.57Zm-0.807,2.84h-3.619v-1.25h3.619v1.25Zm-23.328,3.12h-5.233a0.805,0.805,0,0,0-.807.8v2.83a0.805,0.805,0,0,0,.807.8h5.233a0.805,0.805,0,0,0,.807-0.8v-2.83A0.805,0.805,0,0,0,512.549,5393.53Zm-0.807,2.84h-3.619v-1.25h3.619v1.25Zm8.852-2.84h-5.233a0.805,0.805,0,0,0-.807.8v2.83a0.805,0.805,0,0,0,.807.8h5.233a0.8,0.8,0,0,0,.806-0.8v-2.83A0.8,0.8,0,0,0,520.594,5393.53Zm-0.807,2.84h-3.619v-1.25h3.619v1.25Zm8.852-2.84h-5.233a0.805,0.805,0,0,0-.807.8v2.83a0.805,0.805,0,0,0,.807.8h5.233a0.8,0.8,0,0,0,.806-0.8v-2.83A0.8,0.8,0,0,0,528.639,5393.53Zm-0.807,2.84h-3.619v-1.25h3.619v1.25Zm-15.283,3.21h-5.233a0.805,0.805,0,0,0-.807.8v2.84a0.8,0.8,0,0,0,.807.79h5.233a0.8,0.8,0,0,0,.807-0.79v-2.84A0.805,0.805,0,0,0,512.549,5399.58Zm-0.807,2.84h-3.619v-1.24h3.619v1.24Zm8.852-2.84h-5.233a0.805,0.805,0,0,0-.807.8v2.84a0.8,0.8,0,0,0,.807.79h5.233a0.8,0.8,0,0,0,.806-0.79v-2.84A0.8,0.8,0,0,0,520.594,5399.58Zm-0.807,2.84h-3.619v-1.24h3.619v1.24Zm8.852-2.84h-5.233a0.805,0.805,0,0,0-.807.8v2.84a0.8,0.8,0,0,0,.807.79h5.233a0.8,0.8,0,0,0,.806-0.79v-2.84A0.8,0.8,0,0,0,528.639,5399.58Zm-0.807,2.84h-3.619v-1.24h3.619v1.24Zm8.852-8.92h-5.233a0.8,0.8,0,0,0-.807.79v8.93a0.805,0.805,0,0,0,.807.8h5.233a0.8,0.8,0,0,0,.806-0.8v-8.93A0.8,0.8,0,0,0,536.684,5393.5Zm-0.807,8.92h-3.619v-7.33h3.619v7.33Zm-2.1-28.05h-9.52a0.8,0.8,0,1,0,0,1.6h9.52A0.8,0.8,0,1,0,533.779,5374.37Zm-12.1,0h-0.726a0.8,0.8,0,1,0,0,1.6h0.726A0.8,0.8,0,1,0,521.677,5374.37Z" transform="translate(-503 -5368)"/>
</svg>
