<svg xmlns="http://www.w3.org/2000/svg" width="40" height="35" viewBox="0 0 40 35">
  <defs>
    <style>
      .cls-1 {
        fill: #0088d2;
        fill-rule: evenodd;
      }
    </style>
  </defs>
  <path id="_6" data-name="6" class="cls-1" d="M534.44,5729a10.555,10.555,0,0,0-9.44,5.92,10.533,10.533,0,0,0-20,4.81c0,5.05,4.588,9.53,8.275,13.13l11.186,10.93a0.8,0.8,0,0,0,1.079,0l11.184-10.93c3.687-3.6,8.276-8.08,8.276-13.13A10.656,10.656,0,0,0,534.44,5729Zm-4.181,28.02c-2.3,2.25-4.329,4.19-5.26,5.07-0.919-.87-2.916-2.76-5.258-5.06v-3.09a3.283,3.283,0,0,1,3.254-3.31h4.01a3.283,3.283,0,0,1,3.254,3.31v3.08Zm5.361-5.33c-0.615.6-1.2,1.17-1.744,1.73-0.634.64-1.311,1.32-2.024,2.03v-1.51a4.893,4.893,0,0,0-4.847-4.93H523a4.894,4.894,0,0,0-4.848,4.93v1.51c-0.7-.7-1.378-1.38-2.023-2.03-0.548-.56-1.129-1.13-1.744-1.73-3.469-3.39-7.786-7.6-7.786-11.96a8.952,8.952,0,0,1,17.635-2.33,0.795,0.795,0,0,0,1.541,0,8.952,8.952,0,0,1,17.636,2.33C543.406,5744.09,539.089,5748.3,535.62,5751.69Zm-20.747-3.24-0.279-.27a0.789,0.789,0,0,0-1.126.02,0.813,0.813,0,0,0,.021,1.14l0.279,0.28c0.449,0.44.872,0.85,1.266,1.25a0.782,0.782,0,0,0,1.127,0,0.825,0.825,0,0,0,0-1.15C515.756,5749.31,515.327,5748.89,514.873,5748.45Zm0.725-16.85a8.083,8.083,0,0,0-8.008,8.14c0,2.91,2.029,5.49,3.555,7.17a0.774,0.774,0,0,0,.586.27,0.762,0.762,0,0,0,.539-0.22,0.814,0.814,0,0,0,.048-1.14c-2.138-2.37-3.134-4.3-3.134-6.08a6.472,6.472,0,0,1,6.414-6.52A0.81,0.81,0,0,0,515.6,5731.6Zm9.4,7.94a4.211,4.211,0,1,0,4.143,4.21A4.176,4.176,0,0,0,525,5739.54Zm0,6.8a2.59,2.59,0,1,1,2.55-2.59A2.572,2.572,0,0,1,525,5746.34Z" transform="translate(-505 -5729)"/>
</svg>
