<?xml version="1.0" encoding="utf-8"?>
<!-- Generator: Adobe Illustrator 19.0.0, SVG Export Plug-In . SVG Version: 6.00 Build 0)  -->
<svg version="1.1" id="Шар_1" xmlns="http://www.w3.org/2000/svg" xmlns:xlink="http://www.w3.org/1999/xlink" x="0px" y="0px"
	 viewBox="0 0 37.1 40.6" style="enable-background:new 0 0 37.1 40.6;" width="37px" height="40px" xml:space="preserve">
<style type="text/css">
	.st0{fill:#96CCE8;}
	.st1{fill:#0087D2;}
	.st2{fill:#0288D2;}
</style>
<path class="st0" d="M37.1,17.1C37,17.1,37,17.1,37.1,17.1c-0.1-0.3-0.1-0.5,0-0.8C37.1,16.6,37.1,16.9,37.1,17.1z"/>
<path class="st1" d="M19.4,40.6c-0.6,0-1.1,0-1.7,0c-0.4-0.1-0.8-0.1-1.1-0.1c-1.5-0.1-2.7-0.8-4-1.6c-1.3-0.8-2.5-1.7-3.7-2.8
	c-2.8-2.5-4.9-5.5-6.5-8.9c-1.1-2.4-1.9-4.9-2.3-7.5c-0.1-0.8-0.1-1.6-0.2-2.4c0-0.1,0-0.2,0-0.3c0-5.5,0-11,0-16.5
	C0,0.3,0.3,0,0.6,0c11.9,0,23.9,0,35.8,0c0.4,0,0.6,0.3,0.6,0.6c0,5.2,0,10.5,0,15.7c-0.1,0.2,0,0.5,0,0.8c0,2.8-0.6,5.4-1.5,8
	c-0.8,2.1-1.8,4.1-3.1,6c-0.8,1.2-1.7,2.2-2.6,3.3c-1.3,1.4-2.6,2.6-4.1,3.7c-1.3,1-2.8,1.8-4.4,2.3C20.7,40.6,20,40.5,19.4,40.6z
	 M2.2,1.8c-0.3,0-0.5,0.1-0.5,0.4c0,4.4,0,8.7,0,13.1c0,1.7,0.2,3.4,0.5,5.1c1.1,5.6,3.7,10.4,7.9,14.2c1.6,1.5,3.4,2.8,5.5,3.7
	c1.3,0.5,2.7,0.7,4.1,0.5c1.7-0.3,3.2-1.1,4.6-2.1c7-5.2,10.7-12.3,11-21c0.1-4.5,0-9,0-13.4c0-0.4-0.1-0.5-0.5-0.5
	c-5.4,0-10.9,0-16.3,0C13.1,1.8,7.7,1.8,2.2,1.8z"/>
<path class="st1" d="M22,3.5c3.4,0,6.8,0,10.3,0c0.8,0,1.2,0.3,1.2,1.1c0,3.8,0,7.7,0,11.5c-0.1,6.1-2.1,11.4-6.2,15.9
	c-1.6,1.7-3.3,3.2-5.5,4.2c-2.7,1.3-5.4,0.9-7.8-0.7C9.7,33,6.9,29.2,5.1,24.5c-1-2.7-1.5-5.5-1.5-8.4c0-3.8,0-7.6,0-11.5
	c0-0.9,0.3-1.1,1.1-1.2c0.5,0,0.9,0,1.4,0c0.6,0,0.9,0.4,0.9,0.9c0,0.5-0.4,0.9-0.9,0.9c-0.8,0-0.8,0-0.8,0.8
	c0,3.7-0.1,7.5,0.1,11.2c0.4,7,3.4,12.6,9.1,16.6c1.2,0.8,2.6,1.4,4.1,1.4c1.4,0,2.6-0.6,3.7-1.3c2.8-1.8,4.9-4.2,6.5-7.1
	c1.8-3.2,2.7-6.6,2.8-10.3c0-3.7,0-7.4,0-11c0-0.4-0.2-0.3-0.4-0.3c-6.3,0-12.6,0-18.8,0c-0.3,0-0.6,0-0.9,0c-0.6,0-1-0.4-1-0.9
	c0-0.5,0.4-0.9,1-0.9C15.1,3.5,18.5,3.5,22,3.5z"/>
<path class="st1" d="M18.8,12.9c-0.3,0-0.6,0-0.8,0c-1.6,0-3.2,0-4.8,0c-0.3,0-0.4-0.1-0.4-0.4c0-0.7,0-1.5,0-2.2
	c0-0.2,0-0.3,0.3-0.3c3.3,0,6.5,0,9.8,0c0.3,0,0.3,0.1,0.3,0.3c0,0.7,0,1.3,0,2c0,0.2-0.1,0.3-0.2,0.5c-1.2,1.1-2.4,2.3-3.6,3.5
	c0.3,0.1,0.6,0.2,0.9,0.2c2.7,0.8,3.6,2.9,3.1,5.4c-0.4,1.9-1.6,3.1-3.5,3.6c-2.9,0.7-5.5,0.1-7.7-2.1c-0.2-0.2-0.2-0.3,0-0.6
	c0.6-0.6,1.2-1.1,1.8-1.7c0.2-0.2,0.3-0.2,0.5,0c0.7,0.7,1.4,1.3,2.4,1.5c0.7,0.1,1.3,0.2,2,0c0.7-0.3,1.1-0.8,1.2-1.5
	c0.1-0.8-0.2-1.4-0.9-1.8c-0.7-0.4-1.5-0.4-2.3-0.5c-0.3,0-0.6,0-0.9,0c-0.2,0-0.3-0.1-0.4-0.3c-0.1-0.5-0.2-1.1-0.4-1.6
	c-0.1-0.2,0-0.3,0.1-0.5c1.1-1.1,2.1-2.2,3.2-3.2C18.7,13.1,18.7,13,18.8,12.9z"/>
<path class="st2" d="M9.7,4.4c0,0.5-0.4,0.9-0.9,0.9c-0.5,0-0.9-0.4-0.9-0.9c0-0.5,0.4-0.9,0.9-0.9C9.3,3.5,9.7,3.9,9.7,4.4z"/>
</svg>
